<svg width="24" height="24" viewBox="0 0 24 24" fill="none" xmlns="http://www.w3.org/2000/svg">
<path d="M12 6C8.69 6 6 8.69 6 12C6 15.31 8.69 18 12 18C15.31 18 18 15.31 18 12C18 8.69 15.31 6 12 6Z" fill="#724BC3"/>
<path d="M12 6C8.69 6 6 8.69 6 12C6 15.31 8.69 18 12 18C15.31 18 18 15.31 18 12C18 8.69 15.31 6 12 6Z" fill="#724BC3"/>
<path d="M4 12C4 7.58728 7.58728 4 12 4C16.4127 4 20 7.58728 20 12C20 16.4127 16.4127 20 12 20C7.58728 20 4 16.4127 4 12Z" stroke="#724BC3" stroke-width="2"/>
<path d="M10.589 0.0823545C9.95713 0.156592 9.34021 0.28005 8.74214 0.448783L8.87791 0.929998C7.99916 1.17792 7.16276 1.52791 6.38231 1.96643L6.13739 1.53053C5.58783 1.83931 5.06495 2.19011 4.57313 2.57856L4.88303 2.97094C4.17348 3.53134 3.53134 4.17348 2.97094 4.88303L2.57856 4.57313C2.19011 5.06495 1.83931 5.58783 1.53053 6.13739L1.96643 6.38231C1.52791 7.16275 1.17792 7.99916 0.929998 8.87791L0.448783 8.74214C0.28005 9.34021 0.156592 9.95713 0.0823547 10.5889L0.578939 10.6473C0.526822 11.0908 0.5 11.5422 0.5 12C0.5 12.4578 0.526822 12.9091 0.578938 13.3527L0.0823545 13.411C0.156592 14.0429 0.28005 14.6598 0.448783 15.2579L0.929998 15.1221C1.17792 16.0008 1.52791 16.8372 1.96643 17.6177L1.53053 17.8626C1.83931 18.4122 2.19011 18.935 2.57856 19.4269L2.97094 19.117C3.53134 19.8265 4.17348 20.4687 4.88303 21.0291L4.57313 21.4214C5.06495 21.8099 5.58783 22.1607 6.13739 22.4695L6.38231 22.0336C7.16276 22.4721 7.99916 22.8221 8.87791 23.07L8.74214 23.5512C9.34021 23.7199 9.95713 23.8434 10.5889 23.9176L10.6473 23.4211C11.0909 23.4732 11.5422 23.5 12 23.5C12.4578 23.5 12.9091 23.4732 13.3527 23.4211L13.411 23.9176C14.0429 23.8434 14.6598 23.7199 15.2579 23.5512L15.1221 23.07C16.0008 22.8221 16.8372 22.4721 17.6177 22.0336L17.8626 22.4695C18.4122 22.1607 18.935 21.8099 19.4269 21.4214L19.117 21.0291C19.8265 20.4687 20.4687 19.8265 21.0291 19.117L21.4214 19.4269C21.8099 18.935 22.1607 18.4122 22.4695 17.8626L22.0336 17.6177C22.4721 16.8372 22.8221 16.0008 23.07 15.1221L23.5512 15.2579C23.7199 14.6598 23.8434 14.0429 23.9176 13.4111L23.4211 13.3527C23.4732 12.9092 23.5 12.4578 23.5 12C23.5 11.5422 23.4732 11.0909 23.4211 10.6473L23.9176 10.589C23.8434 9.95713 23.7199 9.34021 23.5512 8.74214L23.07 8.87791C22.8221 7.99916 22.4721 7.16275 22.0336 6.38231L22.4695 6.13739C22.1607 5.58783 21.8099 5.06495 21.4214 4.57313L21.0291 4.88303C20.4687 4.17348 19.8265 3.53134 19.117 2.97094L19.4269 2.57856C18.935 2.19011 18.4122 1.83931 17.8626 1.53053L17.6177 1.96643C16.8372 1.52791 16.0008 1.17792 15.1221 0.929998L15.2579 0.448783C14.6598 0.28005 14.0429 0.156592 13.411 0.0823547L13.3527 0.578939C12.9091 0.526822 12.4578 0.5 12 0.5C11.5422 0.5 11.0909 0.526822 10.6473 0.578938L10.589 0.0823545Z" stroke="#724BC3" stroke-dasharray="3 2"/>
</svg>
