<svg width="25" height="25" viewBox="0 0 25 25" fill="none" xmlns="http://www.w3.org/2000/svg">
<path fill-rule="evenodd" clip-rule="evenodd" d="M3.78779 11.6586H0.438477V13.8915H3.78779V11.6586ZM13.8357 0.550049H11.6029V3.84354H13.8357V0.550049ZM21.6508 13.8915H25.0001V11.6586H21.6508V13.8915ZM12.7193 6.07642C9.02389 6.07642 6.02067 9.07964 6.02067 12.7751C6.02067 16.4705 9.02389 19.4737 12.7193 19.4737C16.4147 19.4737 19.4179 16.4705 19.4179 12.7751C19.4179 9.07964 16.4147 6.07642 12.7193 6.07642ZM13.8357 25.0001V21.7066H11.6029V25.0001H13.8357ZM8.99241 4.07862L7.56852 1.62816L5.64055 2.74128L7.05365 5.18884L8.99241 4.07862ZM23.8655 7.62463L22.7524 5.69666L20.3048 7.10976L21.4179 9.03773L23.8655 7.62463ZM16.4451 21.4711L17.8553 23.9295L19.7833 22.8164L18.3594 20.3659L16.4451 21.4711ZM1.57206 17.9251L2.68517 19.8531L5.13562 18.4292L4.02251 16.5012L1.57206 17.9251ZM19.801 2.74523L18.3908 5.20358L16.4599 4.07968L17.873 1.63212L19.801 2.74523ZM23.8695 17.9291L22.7564 19.857L20.3088 18.4439L21.4219 16.516L23.8695 17.9291ZM5.63088 22.8045L7.05477 20.3541L8.96906 21.4593L7.55885 23.9176L5.63088 22.8045ZM1.57606 7.62858L2.68917 5.70061L5.14752 7.11083L4.03441 9.03879L1.57606 7.62858Z" fill="#FF9831"/>
</svg>
