<svg width="26" height="26" viewBox="0 0 26 26" fill="none" xmlns="http://www.w3.org/2000/svg">
<path d="M7.32325 5.24333L5.37325 3.30416L3.84575 4.83166L5.78492 6.77083L7.32325 5.24333ZM1.08325 11.375H4.33325V13.5417H1.08325V11.375ZM11.9166 0.595825H14.0833V3.79166H11.9166V0.595825ZM20.6266 3.29874L22.1519 4.82299L20.2128 6.76216L18.6885 5.23683L20.6266 3.29874ZM18.6766 19.6733L20.6158 21.6233L22.1433 20.0958L20.1932 18.1567L18.6766 19.6733ZM21.6666 11.375H24.9166V13.5417H21.6666V11.375ZM12.9999 5.95833C9.41408 5.95833 6.49992 8.87249 6.49992 12.4583C6.49992 16.0442 9.41408 18.9583 12.9999 18.9583C16.5858 18.9583 19.4999 16.0442 19.4999 12.4583C19.4999 8.87249 16.5858 5.95833 12.9999 5.95833ZM12.9999 16.7917C10.6058 16.7917 8.66658 14.8525 8.66658 12.4583C8.66658 10.0642 10.6058 8.12499 12.9999 8.12499C15.3941 8.12499 17.3333 10.0642 17.3333 12.4583C17.3333 14.8525 15.3941 16.7917 12.9999 16.7917ZM11.9166 21.125H14.0833V24.3208H11.9166V21.125ZM3.84575 20.085L5.37325 21.6125L7.31242 19.6625L5.78492 18.135L3.84575 20.085Z" fill="#90CA62"/>
</svg>
