<svg width="26" height="26" viewBox="0 0 26 26" fill="none" xmlns="http://www.w3.org/2000/svg">
<path d="M7.32325 5.24333L5.37325 3.30416L3.84575 4.83166L5.78492 6.77083L7.32325 5.24333ZM4.33325 11.375H1.08325V13.5417H4.33325V11.375ZM14.0833 0.595825H11.9166V3.79166H14.0833V0.595825V0.595825ZM22.1541 4.83166L20.6266 3.30416L18.6874 5.24333L20.2149 6.77083L22.1541 4.83166ZM18.6766 19.6733L20.6158 21.6233L22.1433 20.0958L20.1932 18.1567L18.6766 19.6733ZM21.6666 11.375V13.5417H24.9166V11.375H21.6666ZM12.9999 5.95833C9.41408 5.95833 6.49992 8.87249 6.49992 12.4583C6.49992 16.0442 9.41408 18.9583 12.9999 18.9583C16.5858 18.9583 19.4999 16.0442 19.4999 12.4583C19.4999 8.87249 16.5858 5.95833 12.9999 5.95833ZM11.9166 24.3208H14.0833V21.125H11.9166V24.3208ZM3.84575 20.085L5.37325 21.6125L7.31242 19.6625L5.78492 18.135L3.84575 20.085Z" fill="#FFD600"/>
</svg>
