<svg width="374" height="368" viewBox="0 0 374 368" fill="none" xmlns="http://www.w3.org/2000/svg">
<path d="M15 190C15 160.48 23.4842 131.583 39.4422 106.749C55.4002 81.9144 78.1596 62.1899 105.01 49.924L137.005 119.962C123.58 126.095 112.2 135.957 104.221 148.374C96.2421 160.791 92 175.24 92 190L15 190Z" fill="#AAE47C"/>
<path d="M78.5813 116V113.784L83.7589 108.99C84.1992 108.564 84.5685 108.18 84.8668 107.839C85.1699 107.499 85.3995 107.165 85.5558 106.838C85.712 106.507 85.7901 106.149 85.7901 105.766C85.7901 105.339 85.6931 104.973 85.4989 104.665C85.3048 104.352 85.0397 104.113 84.7035 103.947C84.3673 103.777 83.9862 103.692 83.56 103.692C83.1149 103.692 82.7267 103.782 82.3952 103.962C82.0638 104.142 81.8081 104.4 81.6282 104.736C81.4483 105.072 81.3583 105.472 81.3583 105.936H78.4393C78.4393 104.984 78.6547 104.158 79.0856 103.457C79.5165 102.757 80.1201 102.214 80.8967 101.831C81.6732 101.447 82.5681 101.256 83.5813 101.256C84.623 101.256 85.5297 101.44 86.3015 101.81C87.078 102.174 87.6817 102.681 88.1126 103.33C88.5434 103.978 88.7589 104.722 88.7589 105.56C88.7589 106.109 88.65 106.651 88.4322 107.186C88.2191 107.721 87.8379 108.315 87.2887 108.969C86.7395 109.617 85.9653 110.396 84.9663 111.305L82.8427 113.386V113.486H88.9506V116H78.5813Z" fill="white"/>
<path d="M40.1643 274.364C23.7924 249.362 15.049 220.137 15.0002 190.251L92.0001 190.126C92.0245 205.068 96.3962 219.681 104.582 232.182L40.1643 274.364Z" fill="#724BC3"/>
<path d="M104.029 50.3764C124.042 41.0638 145.822 36.1623 167.895 36.004C189.968 35.8456 211.817 40.4342 231.961 49.4587C252.106 58.4832 270.075 71.7327 284.65 88.3092C299.226 104.886 310.068 124.402 316.441 145.535L242.721 167.768C239.534 157.201 234.113 147.443 226.825 139.155C219.537 130.866 210.553 124.242 200.481 119.729C190.409 115.217 179.484 112.923 168.448 113.002C157.411 113.081 146.521 115.532 136.514 120.188L104.029 50.3764Z" fill="#FFD600"/>
<path d="M270.8 305.554C254.237 320.145 234.731 331.006 213.604 337.399C192.477 343.792 170.222 345.569 148.348 342.609C126.474 339.649 105.492 332.021 86.8239 320.242C68.1558 308.464 52.2379 292.81 40.149 274.341L104.574 232.171C110.619 241.405 118.578 249.232 127.912 255.121C137.246 261.011 147.737 264.824 158.674 266.304C169.611 267.785 180.738 266.896 191.302 263.7C201.866 260.503 211.619 255.073 219.9 247.777L270.8 305.554Z" fill="#E0362C"/>
<path d="M316.403 145.408C324.95 173.663 325.197 203.779 317.114 232.17C309.03 260.561 292.957 286.031 270.809 305.546L219.904 247.773C230.979 238.016 239.015 225.281 243.057 211.085C247.099 196.89 246.975 181.832 242.701 167.704L316.403 145.408Z" fill="#FF9831"/>
<path d="M58.7219 152.455V167H55.6467V155.374H55.5614L52.2305 157.462V154.734L55.8313 152.455H58.7219Z" fill="white"/>
<path d="M124.775 206V194.364H132.343V196.131H126.883V199.29H131.951V201.057H126.883V204.233H132.389V206H124.775ZM135.134 206V194.364H137.242V199.71H137.384L141.924 194.364H144.498L139.998 199.585L144.537 206H142.003L138.532 201.011L137.242 202.534V206H135.134ZM152.863 197.562C152.81 197.066 152.587 196.68 152.193 196.403C151.803 196.127 151.295 195.989 150.67 195.989C150.231 195.989 149.854 196.055 149.54 196.188C149.225 196.32 148.985 196.5 148.818 196.727C148.651 196.955 148.566 197.214 148.562 197.506C148.562 197.748 148.617 197.958 148.727 198.136C148.841 198.314 148.994 198.466 149.187 198.591C149.381 198.712 149.595 198.814 149.829 198.898C150.064 198.981 150.301 199.051 150.54 199.108L151.631 199.381C152.07 199.483 152.492 199.621 152.898 199.795C153.307 199.97 153.672 200.189 153.994 200.455C154.32 200.72 154.577 201.04 154.767 201.415C154.956 201.79 155.051 202.229 155.051 202.733C155.051 203.415 154.877 204.015 154.528 204.534C154.18 205.049 153.676 205.453 153.017 205.744C152.362 206.032 151.568 206.176 150.636 206.176C149.731 206.176 148.945 206.036 148.278 205.756C147.615 205.475 147.096 205.066 146.721 204.528C146.35 203.991 146.149 203.335 146.119 202.562H148.193C148.223 202.968 148.348 203.305 148.568 203.574C148.788 203.843 149.074 204.044 149.426 204.176C149.782 204.309 150.18 204.375 150.619 204.375C151.077 204.375 151.479 204.307 151.824 204.17C152.172 204.03 152.445 203.837 152.642 203.591C152.839 203.341 152.939 203.049 152.943 202.716C152.939 202.413 152.85 202.163 152.676 201.966C152.502 201.765 152.257 201.598 151.943 201.466C151.632 201.33 151.269 201.208 150.852 201.102L149.528 200.761C148.57 200.515 147.812 200.142 147.256 199.642C146.702 199.138 146.426 198.47 146.426 197.636C146.426 196.951 146.612 196.35 146.983 195.835C147.358 195.32 147.867 194.92 148.511 194.636C149.155 194.348 149.884 194.205 150.699 194.205C151.524 194.205 152.248 194.348 152.869 194.636C153.494 194.92 153.985 195.316 154.341 195.824C154.697 196.328 154.881 196.907 154.892 197.562H152.863ZM157.059 196.131V194.364H166.343V196.131H162.746V206H160.655V196.131H157.059ZM168.773 206V194.364H173.136C174.03 194.364 174.78 194.519 175.386 194.83C175.996 195.14 176.456 195.576 176.767 196.136C177.081 196.693 177.239 197.343 177.239 198.085C177.239 198.831 177.08 199.479 176.761 200.028C176.447 200.574 175.983 200.996 175.369 201.295C174.756 201.591 174.002 201.739 173.108 201.739H170V199.989H172.824C173.347 199.989 173.775 199.917 174.108 199.773C174.441 199.625 174.688 199.411 174.847 199.131C175.009 198.847 175.091 198.498 175.091 198.085C175.091 197.672 175.009 197.32 174.847 197.028C174.684 196.733 174.436 196.509 174.102 196.358C173.769 196.203 173.339 196.125 172.812 196.125H170.881V206H168.773ZM174.784 200.727L177.665 206H175.312L172.483 200.727H174.784ZM179.819 206V194.364H187.387V196.131H181.927V199.29H186.995V201.057H181.927V204.233H187.433V206H179.819ZM190.178 194.364H192.757L196.212 202.795H196.348L199.803 194.364H202.382V206H200.36V198.006H200.252L197.036 205.966H195.524L192.308 197.989H192.2V206H190.178V194.364ZM204.806 196.131V194.364H214.09V196.131H210.494V206H208.403V196.131H204.806ZM151.82 225V213.364H153.928V218.29H159.32V213.364H161.434V225H159.32V220.057H153.928V225H151.82ZM165.793 225.534L164.764 224.83L173.02 212.852L174.048 213.557L165.793 225.534ZM174.764 219.182C174.764 220.436 174.529 221.509 174.06 222.403C173.594 223.294 172.957 223.975 172.151 224.449C171.348 224.922 170.437 225.159 169.418 225.159C168.399 225.159 167.486 224.922 166.679 224.449C165.876 223.972 165.24 223.288 164.77 222.398C164.304 221.504 164.071 220.432 164.071 219.182C164.071 217.928 164.304 216.856 164.77 215.966C165.24 215.072 165.876 214.388 166.679 213.915C167.486 213.441 168.399 213.205 169.418 213.205C170.437 213.205 171.348 213.441 172.151 213.915C172.957 214.388 173.594 215.072 174.06 215.966C174.529 216.856 174.764 217.928 174.764 219.182ZM172.645 219.182C172.645 218.299 172.507 217.555 172.23 216.949C171.957 216.339 171.579 215.879 171.094 215.568C170.609 215.254 170.05 215.097 169.418 215.097C168.785 215.097 168.226 215.254 167.741 215.568C167.257 215.879 166.876 216.339 166.599 216.949C166.327 217.555 166.19 218.299 166.19 219.182C166.19 220.064 166.327 220.811 166.599 221.42C166.876 222.027 167.257 222.487 167.741 222.801C168.226 223.112 168.785 223.267 169.418 223.267C170.05 223.267 170.609 223.112 171.094 222.801C171.579 222.487 171.957 222.027 172.23 221.42C172.507 220.811 172.645 220.064 172.645 219.182ZM185.193 217.08C185.098 216.773 184.967 216.498 184.801 216.256C184.638 216.009 184.441 215.799 184.21 215.625C183.982 215.451 183.721 215.32 183.426 215.233C183.13 215.142 182.808 215.097 182.46 215.097C181.835 215.097 181.278 215.254 180.789 215.568C180.301 215.883 179.916 216.345 179.636 216.955C179.359 217.561 179.221 218.299 179.221 219.17C179.221 220.049 179.359 220.794 179.636 221.403C179.912 222.013 180.297 222.477 180.789 222.795C181.282 223.11 181.854 223.267 182.505 223.267C183.096 223.267 183.607 223.153 184.039 222.926C184.475 222.699 184.81 222.377 185.045 221.96C185.28 221.54 185.397 221.047 185.397 220.483L185.874 220.557H182.715V218.909H187.437V220.307C187.437 221.303 187.225 222.165 186.801 222.892C186.376 223.619 185.793 224.18 185.051 224.574C184.308 224.964 183.456 225.159 182.494 225.159C181.422 225.159 180.48 224.919 179.67 224.438C178.863 223.953 178.232 223.265 177.778 222.375C177.327 221.481 177.102 220.42 177.102 219.193C177.102 218.254 177.234 217.415 177.499 216.676C177.768 215.938 178.143 215.311 178.624 214.795C179.105 214.277 179.67 213.883 180.318 213.614C180.965 213.341 181.67 213.205 182.431 213.205C183.075 213.205 183.676 213.299 184.232 213.489C184.789 213.674 185.283 213.939 185.715 214.284C186.151 214.629 186.509 215.038 186.789 215.511C187.069 215.985 187.253 216.508 187.34 217.08H185.193Z" fill="black"/>
<path d="M140.545 230.727H141.209V235.543C141.209 236.037 141.093 236.48 140.861 236.871C140.629 237.259 140.306 237.566 139.891 237.79C139.479 238.013 139 238.124 138.453 238.124C137.909 238.124 137.429 238.012 137.015 237.787C136.601 237.562 136.277 237.255 136.045 236.867C135.813 236.479 135.697 236.037 135.697 235.543V230.727H136.361V235.496C136.361 235.882 136.448 236.227 136.621 236.53C136.793 236.83 137.036 237.067 137.349 237.24C137.664 237.413 138.032 237.499 138.453 237.499C138.874 237.499 139.243 237.413 139.557 237.24C139.872 237.067 140.115 236.83 140.285 236.53C140.458 236.227 140.545 235.882 140.545 235.496V230.727ZM143.549 230.727L145.822 237.137H145.886L148.159 230.727H148.855L146.209 238H145.499L142.853 230.727H143.549ZM157.663 232.545C157.622 232.141 157.444 231.819 157.126 231.58C156.809 231.34 156.41 231.221 155.93 231.221C155.591 231.221 155.293 231.279 155.035 231.395C154.779 231.511 154.578 231.672 154.431 231.878C154.287 232.081 154.214 232.313 154.214 232.574C154.214 232.766 154.256 232.934 154.339 233.078C154.422 233.223 154.533 233.347 154.673 233.451C154.815 233.553 154.971 233.64 155.141 233.714C155.314 233.787 155.488 233.849 155.663 233.898L156.43 234.119C156.662 234.183 156.894 234.264 157.126 234.364C157.358 234.463 157.57 234.589 157.762 234.74C157.956 234.889 158.111 235.073 158.227 235.29C158.346 235.506 158.405 235.765 158.405 236.068C158.405 236.456 158.304 236.806 158.103 237.116C157.902 237.426 157.613 237.672 157.236 237.854C156.86 238.034 156.409 238.124 155.884 238.124C155.389 238.124 154.959 238.043 154.594 237.879C154.23 237.714 153.943 237.485 153.735 237.194C153.527 236.903 153.41 236.565 153.384 236.182H154.065C154.089 236.468 154.184 236.711 154.349 236.91C154.515 237.109 154.731 237.26 154.996 237.364C155.261 237.466 155.557 237.517 155.884 237.517C156.246 237.517 156.568 237.457 156.849 237.336C157.134 237.213 157.356 237.042 157.517 236.825C157.68 236.604 157.762 236.349 157.762 236.058C157.762 235.811 157.698 235.605 157.57 235.44C157.442 235.272 157.264 235.131 157.034 235.017C156.807 234.903 156.543 234.803 156.242 234.715L155.372 234.46C154.802 234.289 154.359 234.054 154.044 233.753C153.729 233.452 153.572 233.069 153.572 232.602C153.572 232.212 153.676 231.868 153.884 231.572C154.095 231.274 154.379 231.042 154.736 230.876C155.096 230.708 155.5 230.624 155.947 230.624C156.4 230.624 156.8 230.707 157.148 230.873C157.496 231.039 157.772 231.267 157.975 231.558C158.181 231.847 158.291 232.176 158.305 232.545H157.663ZM159.962 231.324V230.727H165.236V231.324H162.931V238H162.267V231.324H159.962ZM167.131 238V230.727H169.478C169.994 230.727 170.425 230.821 170.771 231.008C171.119 231.192 171.38 231.449 171.556 231.778C171.733 232.105 171.822 232.48 171.822 232.904C171.822 233.328 171.733 233.702 171.556 234.026C171.38 234.351 171.12 234.604 170.774 234.786C170.429 234.969 170 235.06 169.489 235.06H167.49V234.452H169.471C169.85 234.452 170.165 234.39 170.416 234.264C170.669 234.139 170.857 233.96 170.98 233.728C171.106 233.496 171.169 233.221 171.169 232.904C171.169 232.587 171.106 232.31 170.98 232.073C170.855 231.834 170.666 231.649 170.412 231.519C170.161 231.389 169.844 231.324 169.46 231.324H167.795V238H167.131ZM170.338 234.719L172.127 238H171.36L169.588 234.719H170.338ZM173.85 238H173.154L175.8 230.727H176.51L179.156 238H178.46L176.18 231.59H176.13L173.85 238ZM174.351 235.212H177.959V235.809H174.351V235.212ZM176.155 230.276C175.89 230.276 175.664 230.184 175.477 229.999C175.292 229.812 175.2 229.586 175.2 229.321C175.2 229.143 175.242 228.982 175.327 228.838C175.413 228.694 175.528 228.579 175.672 228.494C175.819 228.408 175.98 228.366 176.155 228.366C176.332 228.366 176.493 228.408 176.638 228.494C176.782 228.579 176.897 228.694 176.982 228.838C177.068 228.982 177.11 229.143 177.11 229.321C177.11 229.496 177.068 229.657 176.982 229.804C176.897 229.948 176.782 230.063 176.638 230.148C176.493 230.234 176.332 230.276 176.155 230.276ZM176.155 229.861C176.306 229.861 176.433 229.809 176.535 229.705C176.639 229.598 176.691 229.47 176.691 229.321C176.691 229.17 176.639 229.042 176.535 228.938C176.433 228.833 176.306 228.781 176.155 228.781C176.003 228.781 175.876 228.835 175.771 228.941C175.67 229.045 175.619 229.172 175.619 229.321C175.619 229.473 175.67 229.6 175.771 229.705C175.876 229.809 176.003 229.861 176.155 229.861ZM180.802 238V230.727H181.466V237.403H184.932V238H180.802ZM187.491 230.727V238H186.827V230.727H187.491ZM195.489 230.727V238H194.842L190.546 231.91H190.489V238H189.825V230.727H190.467L194.779 236.825H194.835V230.727H195.489ZM202.854 233C202.788 232.759 202.691 232.532 202.563 232.322C202.435 232.109 202.277 231.923 202.087 231.764C201.9 231.603 201.684 231.478 201.437 231.388C201.194 231.298 200.921 231.253 200.621 231.253C200.147 231.253 199.723 231.376 199.349 231.622C198.975 231.868 198.679 232.223 198.462 232.688C198.246 233.152 198.138 233.71 198.138 234.364C198.138 235.015 198.247 235.572 198.465 236.036C198.683 236.5 198.981 236.857 199.36 237.105C199.741 237.351 200.177 237.474 200.667 237.474C201.114 237.474 201.51 237.375 201.853 237.176C202.196 236.977 202.464 236.693 202.655 236.324C202.85 235.955 202.944 235.515 202.94 235.006L203.153 235.074H200.823V234.477H203.586V235.074C203.586 235.694 203.46 236.23 203.209 236.683C202.958 237.135 202.614 237.484 202.176 237.73C201.738 237.976 201.235 238.099 200.667 238.099C200.032 238.099 199.477 237.947 199.001 237.641C198.525 237.334 198.155 236.9 197.89 236.342C197.627 235.781 197.496 235.121 197.496 234.364C197.496 233.793 197.571 233.278 197.723 232.819C197.874 232.36 198.089 231.967 198.366 231.64C198.645 231.313 198.975 231.063 199.356 230.891C199.738 230.715 200.159 230.628 200.621 230.628C201.018 230.628 201.382 230.691 201.711 230.816C202.042 230.942 202.333 231.114 202.584 231.335C202.838 231.552 203.045 231.804 203.206 232.091C203.369 232.375 203.479 232.678 203.536 233H202.854Z" fill="#747480"/>
<path d="M166.472 249.063C166.279 249.063 166.114 248.993 165.976 248.855C165.838 248.717 165.769 248.552 165.769 248.359C165.769 248.167 165.838 248.001 165.976 247.863C166.114 247.725 166.279 247.656 166.472 247.656C166.664 247.656 166.83 247.725 166.968 247.863C167.106 248.001 167.175 248.167 167.175 248.359C167.175 248.487 167.142 248.604 167.077 248.711C167.015 248.818 166.93 248.904 166.823 248.969C166.719 249.031 166.602 249.063 166.472 249.063ZM169.501 249.063C169.308 249.063 169.143 248.993 169.005 248.855C168.867 248.717 168.798 248.552 168.798 248.359C168.798 248.167 168.867 248.001 169.005 247.863C169.143 247.725 169.308 247.656 169.501 247.656C169.694 247.656 169.859 247.725 169.997 247.863C170.135 248.001 170.204 248.167 170.204 248.359C170.204 248.487 170.172 248.604 170.106 248.711C170.044 248.818 169.959 248.904 169.853 248.969C169.748 249.031 169.631 249.063 169.501 249.063ZM172.53 249.063C172.338 249.063 172.172 248.993 172.034 248.855C171.896 248.717 171.827 248.552 171.827 248.359C171.827 248.167 171.896 248.001 172.034 247.863C172.172 247.725 172.338 247.656 172.53 247.656C172.723 247.656 172.888 247.725 173.026 247.863C173.164 248.001 173.233 248.167 173.233 248.359C173.233 248.487 173.201 248.604 173.136 248.711C173.073 248.818 172.989 248.904 172.882 248.969C172.778 249.031 172.66 249.063 172.53 249.063Z" fill="#E4E4E4"/>
<path d="M151.372 85.1989C150.311 85.1989 149.367 85.0166 148.538 84.652C147.714 84.2827 147.063 83.776 146.585 83.1321C146.111 82.4834 145.868 81.7353 145.853 80.8878H148.95C148.969 81.2429 149.085 81.5554 149.298 81.8253C149.516 82.0904 149.805 82.2964 150.164 82.4432C150.524 82.59 150.929 82.6634 151.379 82.6634C151.848 82.6634 152.262 82.5805 152.622 82.4148C152.982 82.2491 153.263 82.0194 153.467 81.7259C153.671 81.4323 153.772 81.0937 153.772 80.7102C153.772 80.322 153.663 79.9787 153.446 79.6804C153.233 79.3774 152.925 79.1406 152.522 78.9702C152.125 78.7997 151.651 78.7145 151.102 78.7145H149.745V76.456H151.102C151.566 76.456 151.975 76.3755 152.331 76.2145C152.69 76.0535 152.97 75.831 153.169 75.5469C153.368 75.258 153.467 74.9219 153.467 74.5384C153.467 74.1738 153.379 73.8542 153.204 73.5795C153.034 73.3002 152.792 73.0824 152.48 72.9261C152.172 72.7699 151.812 72.6918 151.4 72.6918C150.984 72.6918 150.602 72.7675 150.257 72.919C149.911 73.0658 149.634 73.2765 149.426 73.5511C149.217 73.8258 149.106 74.1477 149.092 74.517H146.145C146.159 73.679 146.398 72.9403 146.862 72.3011C147.326 71.6619 147.951 71.1624 148.737 70.8026C149.528 70.438 150.42 70.2557 151.414 70.2557C152.418 70.2557 153.297 70.438 154.049 70.8026C154.802 71.1671 155.387 71.6596 155.804 72.2798C156.225 72.8954 156.433 73.5866 156.429 74.3537C156.433 75.1681 156.18 75.8475 155.669 76.392C155.162 76.9366 154.502 77.2822 153.687 77.429V77.5426C154.757 77.6799 155.572 78.0516 156.13 78.6577C156.694 79.259 156.973 80.0118 156.968 80.9162C156.973 81.7448 156.734 82.4811 156.251 83.125C155.773 83.7689 155.112 84.2756 154.27 84.6449C153.427 85.0142 152.461 85.1989 151.372 85.1989Z" fill="white"/>
<path d="M212.404 91.4432V89.0213L218.477 79.4545H220.565V82.8068H219.329L215.501 88.8651V88.9787H224.13V91.4432H212.404ZM219.386 94V90.7045L219.442 89.6321V79.4545H222.326V94H219.386Z" fill="white"/>
<path d="M266.601 133.199C265.597 133.199 264.702 133.014 263.916 132.645C263.135 132.276 262.515 131.767 262.055 131.118C261.596 130.469 261.357 129.726 261.338 128.888H264.321C264.354 129.451 264.591 129.908 265.031 130.259C265.472 130.609 265.995 130.784 266.601 130.784C267.084 130.784 267.51 130.678 267.879 130.464C268.253 130.247 268.545 129.946 268.753 129.562C268.966 129.174 269.072 128.729 269.072 128.227C269.072 127.716 268.964 127.266 268.746 126.878C268.533 126.49 268.237 126.187 267.858 125.969C267.479 125.751 267.046 125.64 266.558 125.635C266.132 125.635 265.718 125.723 265.315 125.898C264.918 126.073 264.607 126.312 264.385 126.615L261.651 126.125L262.339 118.455H271.232V120.969H264.875L264.499 124.612H264.584C264.839 124.252 265.225 123.954 265.741 123.717C266.258 123.481 266.835 123.362 267.474 123.362C268.35 123.362 269.132 123.568 269.818 123.98C270.505 124.392 271.047 124.958 271.445 125.678C271.842 126.393 272.039 127.216 272.034 128.149C272.039 129.129 271.812 130 271.352 130.763C270.898 131.52 270.261 132.117 269.442 132.553C268.627 132.983 267.68 133.199 266.601 133.199Z" fill="white"/>
<path d="M281.558 192.199C280.81 192.194 280.088 192.069 279.392 191.822C278.701 191.576 278.08 191.176 277.531 190.622C276.982 190.068 276.546 189.334 276.224 188.42C275.907 187.507 275.749 186.384 275.749 185.054C275.753 183.832 275.893 182.741 276.168 181.78C276.447 180.814 276.845 179.995 277.361 179.322C277.882 178.65 278.504 178.139 279.229 177.788C279.953 177.433 280.765 177.256 281.665 177.256C282.635 177.256 283.492 177.445 284.236 177.824C284.979 178.198 285.576 178.707 286.026 179.351C286.48 179.995 286.755 180.717 286.849 181.517H283.817C283.698 181.01 283.45 180.613 283.071 180.324C282.692 180.035 282.223 179.891 281.665 179.891C280.718 179.891 279.998 180.303 279.506 181.126C279.018 181.95 278.769 183.07 278.76 184.486H278.859C279.077 184.055 279.371 183.688 279.74 183.385C280.114 183.077 280.538 182.843 281.011 182.682C281.49 182.516 281.994 182.433 282.524 182.433C283.386 182.433 284.153 182.637 284.825 183.044C285.498 183.446 286.028 184 286.416 184.706C286.804 185.411 286.999 186.219 286.999 187.128C286.999 188.113 286.769 188.989 286.31 189.756C285.855 190.523 285.218 191.124 284.399 191.56C283.585 191.991 282.638 192.204 281.558 192.199ZM281.544 189.784C282.018 189.784 282.441 189.67 282.815 189.443C283.189 189.216 283.483 188.908 283.696 188.52C283.909 188.132 284.016 187.696 284.016 187.213C284.016 186.73 283.909 186.297 283.696 185.913C283.488 185.53 283.199 185.224 282.83 184.997C282.46 184.77 282.039 184.656 281.565 184.656C281.21 184.656 280.881 184.723 280.578 184.855C280.28 184.988 280.017 185.172 279.79 185.409C279.567 185.646 279.392 185.92 279.264 186.233C279.136 186.541 279.072 186.87 279.072 187.22C279.072 187.689 279.179 188.117 279.392 188.506C279.61 188.894 279.903 189.204 280.273 189.436C280.647 189.668 281.071 189.784 281.544 189.784Z" fill="white"/>
<path d="M264.86 258L270.89 246.068V245.969H263.865V243.455H274.071V246.004L268.034 258H264.86Z" fill="white"/>
<path d="M217.382 304.199C216.289 304.199 215.316 304.021 214.463 303.666C213.616 303.306 212.951 302.816 212.468 302.196C211.985 301.576 211.743 300.873 211.743 300.087C211.743 299.481 211.881 298.924 212.155 298.418C212.435 297.906 212.813 297.482 213.292 297.146C213.77 296.805 214.305 296.588 214.897 296.493V296.393C214.12 296.237 213.49 295.861 213.007 295.264C212.525 294.663 212.283 293.964 212.283 293.169C212.283 292.416 212.503 291.746 212.944 291.159C213.384 290.567 213.988 290.103 214.755 289.767C215.526 289.426 216.402 289.256 217.382 289.256C218.363 289.256 219.236 289.426 220.003 289.767C220.775 290.108 221.381 290.574 221.821 291.166C222.262 291.753 222.484 292.421 222.489 293.169C222.484 293.969 222.238 294.668 221.75 295.264C221.263 295.861 220.638 296.237 219.875 296.393V296.493C220.458 296.588 220.986 296.805 221.459 297.146C221.937 297.482 222.316 297.906 222.596 298.418C222.88 298.924 223.024 299.481 223.029 300.087C223.024 300.873 222.78 301.576 222.297 302.196C221.814 302.816 221.147 303.306 220.294 303.666C219.447 304.021 218.476 304.199 217.382 304.199ZM217.382 301.94C217.87 301.94 218.296 301.853 218.661 301.678C219.025 301.498 219.31 301.251 219.513 300.939C219.721 300.622 219.826 300.257 219.826 299.845C219.826 299.424 219.719 299.052 219.506 298.73C219.293 298.403 219.004 298.148 218.64 297.963C218.275 297.774 217.856 297.679 217.382 297.679C216.914 297.679 216.495 297.774 216.125 297.963C215.756 298.148 215.465 298.403 215.252 298.73C215.043 299.052 214.939 299.424 214.939 299.845C214.939 300.257 215.041 300.622 215.245 300.939C215.448 301.251 215.735 301.498 216.104 301.678C216.473 301.853 216.9 301.94 217.382 301.94ZM217.382 295.442C217.79 295.442 218.152 295.359 218.469 295.193C218.786 295.027 219.035 294.798 219.215 294.504C219.395 294.211 219.485 293.872 219.485 293.489C219.485 293.11 219.395 292.778 219.215 292.494C219.035 292.205 218.789 291.981 218.476 291.82C218.164 291.654 217.799 291.571 217.382 291.571C216.971 291.571 216.606 291.654 216.289 291.82C215.971 291.981 215.723 292.205 215.543 292.494C215.368 292.778 215.28 293.11 215.28 293.489C215.28 293.872 215.37 294.211 215.55 294.504C215.73 294.798 215.979 295.027 216.296 295.193C216.613 295.359 216.975 295.442 217.382 295.442Z" fill="white"/>
<mask id="path-15-outside-1_178_301" maskUnits="userSpaceOnUse" x="0" y="180" width="120" height="113" fill="black">
<rect fill="white" y="180" width="120" height="113"/>
<path d="M37.3168 286.683C17.8541 257.743 7.01692 223.868 6.06811 189.006L98.0341 186.503C98.5085 203.934 103.927 220.872 113.658 235.342L37.3168 286.683Z"/>
</mask>
<path d="M37.3168 286.683C17.8541 257.743 7.01692 223.868 6.06811 189.006L98.0341 186.503C98.5085 203.934 103.927 220.872 113.658 235.342L37.3168 286.683Z" fill="#521FBB"/>
<path d="M37.3168 286.683C17.8541 257.743 7.01692 223.868 6.06811 189.006L98.0341 186.503C98.5085 203.934 103.927 220.872 113.658 235.342L37.3168 286.683Z" stroke="#2D0E6D" stroke-width="12" stroke-linejoin="round" mask="url(#path-15-outside-1_178_301)"/>
<path d="M157.239 299.256C157.987 299.256 158.706 299.381 159.398 299.632C160.094 299.883 160.714 300.283 161.259 300.832C161.808 301.382 162.241 302.111 162.558 303.02C162.88 303.924 163.044 305.035 163.048 306.351C163.048 307.587 162.909 308.69 162.629 309.661C162.355 310.626 161.959 311.448 161.443 312.125C160.927 312.802 160.304 313.318 159.575 313.673C158.846 314.024 158.032 314.199 157.132 314.199C156.161 314.199 155.304 314.012 154.561 313.638C153.818 313.259 153.219 312.745 152.764 312.097C152.314 311.443 152.042 310.709 151.947 309.895H154.98C155.098 310.425 155.347 310.837 155.726 311.131C156.105 311.42 156.573 311.564 157.132 311.564C158.079 311.564 158.799 311.152 159.291 310.328C159.784 309.5 160.032 308.366 160.037 306.926H159.938C159.72 307.352 159.426 307.719 159.057 308.027C158.688 308.33 158.264 308.564 157.786 308.73C157.312 308.896 156.808 308.979 156.273 308.979C155.416 308.979 154.651 308.777 153.979 308.375C153.306 307.973 152.776 307.419 152.388 306.713C152 306.008 151.805 305.203 151.805 304.298C151.801 303.323 152.026 302.454 152.48 301.692C152.935 300.929 153.569 300.333 154.384 299.902C155.203 299.466 156.154 299.251 157.239 299.256ZM157.26 301.67C156.782 301.67 156.356 301.784 155.982 302.011C155.612 302.239 155.319 302.544 155.101 302.928C154.888 303.311 154.784 303.74 154.788 304.213C154.788 304.691 154.893 305.122 155.101 305.506C155.314 305.884 155.603 306.187 155.967 306.415C156.337 306.637 156.758 306.749 157.232 306.749C157.587 306.749 157.916 306.682 158.219 306.55C158.522 306.417 158.785 306.235 159.007 306.003C159.234 305.766 159.412 305.494 159.54 305.186C159.668 304.878 159.732 304.552 159.732 304.206C159.727 303.747 159.618 303.325 159.405 302.942C159.192 302.558 158.898 302.25 158.524 302.018C158.15 301.786 157.729 301.67 157.26 301.67Z" fill="white"/>
<path d="M92.9524 274.455V289H89.8771V277.374H89.7919L86.4609 279.462V276.734L90.0618 274.455H92.9524ZM102.113 289.32C100.891 289.315 99.8398 289.014 98.9592 288.418C98.0832 287.821 97.4085 286.957 96.935 285.825C96.4663 284.694 96.2343 283.332 96.239 281.741C96.239 280.155 96.4734 278.804 96.9421 277.686C97.4156 276.569 98.0903 275.719 98.9663 275.136C99.8469 274.549 100.896 274.256 102.113 274.256C103.329 274.256 104.376 274.549 105.252 275.136C106.132 275.723 106.81 276.576 107.283 277.693C107.757 278.806 107.991 280.155 107.986 281.741C107.986 283.337 107.749 284.701 107.276 285.832C106.807 286.964 106.135 287.828 105.259 288.425C104.383 289.021 103.334 289.32 102.113 289.32ZM102.113 286.77C102.946 286.77 103.611 286.351 104.108 285.513C104.605 284.675 104.852 283.418 104.847 281.741C104.847 280.638 104.733 279.72 104.506 278.986C104.283 278.252 103.966 277.7 103.554 277.331C103.147 276.962 102.667 276.777 102.113 276.777C101.284 276.777 100.621 277.191 100.124 278.02C99.6268 278.848 99.3758 280.089 99.3711 281.741C99.3711 282.859 99.4824 283.792 99.7049 284.54C99.9322 285.283 100.252 285.842 100.664 286.216C101.076 286.585 101.559 286.77 102.113 286.77Z" fill="white"/>
<path d="M169 156.5C164.863 156.5 161.5 159.862 161.5 164C161.5 168.137 164.863 171.5 169 171.5C173.137 171.5 176.5 168.137 176.5 164C176.5 159.862 173.137 156.5 169 156.5Z" fill="#724BC3"/>
<path d="M169 156.5C164.863 156.5 161.5 159.862 161.5 164C161.5 168.137 164.863 171.5 169 171.5C173.137 171.5 176.5 168.137 176.5 164C176.5 159.862 173.137 156.5 169 156.5Z" fill="#724BC3"/>
<path d="M169 152.75C162.794 152.75 157.75 157.794 157.75 164C157.75 170.206 162.794 175.25 169 175.25C175.206 175.25 180.25 170.206 180.25 164C180.25 157.794 175.206 152.75 169 152.75Z" stroke="#724BC3" stroke-width="2"/>
<path d="M169 149C160.725 149 154 155.725 154 164C154 172.275 160.725 179 169 179C177.275 179 184 172.275 184 164C184 155.725 177.275 149 169 149Z" stroke="#724BC3" stroke-dasharray="3 2"/>
<path d="M52.6989 212.727V236H47.7784V217.398H47.642L42.3125 220.739V216.375L48.0739 212.727H52.6989ZM68.3551 212.727V236H63.4347V217.398H63.2983L57.9688 220.739V216.375L63.7301 212.727H68.3551Z" fill="white"/>
</svg>
