<svg width="368" height="368" viewBox="0 0 368 368" fill="none" xmlns="http://www.w3.org/2000/svg">
<path d="M15 200C15 170.48 23.4842 141.583 39.4422 116.749C55.4002 91.9144 78.1596 72.1899 105.01 59.924L137.005 129.962C123.58 136.095 112.2 145.957 104.221 158.374C96.2421 170.791 92 185.24 92 200L15 200Z" fill="#AAE47C"/>
<path d="M78.5813 126V123.784L83.7589 118.99C84.1992 118.564 84.5685 118.18 84.8668 117.839C85.1699 117.499 85.3995 117.165 85.5558 116.838C85.712 116.507 85.7901 116.149 85.7901 115.766C85.7901 115.339 85.6931 114.973 85.4989 114.665C85.3048 114.352 85.0397 114.113 84.7035 113.947C84.3673 113.777 83.9862 113.692 83.56 113.692C83.1149 113.692 82.7267 113.782 82.3952 113.962C82.0638 114.142 81.8081 114.4 81.6282 114.736C81.4483 115.072 81.3583 115.472 81.3583 115.936H78.4393C78.4393 114.984 78.6547 114.158 79.0856 113.457C79.5165 112.757 80.1201 112.214 80.8967 111.831C81.6732 111.447 82.5681 111.256 83.5813 111.256C84.623 111.256 85.5297 111.44 86.3015 111.81C87.078 112.174 87.6817 112.681 88.1126 113.33C88.5434 113.978 88.7589 114.722 88.7589 115.56C88.7589 116.109 88.65 116.651 88.4322 117.186C88.2191 117.721 87.8379 118.315 87.2887 118.969C86.7395 119.617 85.9653 120.396 84.9663 121.305L82.8427 123.386V123.486H88.9506V126H78.5813Z" fill="white"/>
<path d="M40.1643 284.364C23.7924 259.362 15.049 230.137 15.0002 200.251L92.0001 200.126C92.0245 215.068 96.3962 229.681 104.582 242.182L40.1643 284.364Z" fill="#724BC3"/>
<path d="M104.029 60.3764C124.042 51.0638 145.822 46.1623 167.895 46.004C189.968 45.8456 211.817 50.4342 231.961 59.4587C252.106 68.4832 270.075 81.7327 284.65 98.3092C299.226 114.886 310.068 134.402 316.441 155.535L242.721 177.768C239.534 167.201 234.113 157.443 226.825 149.155C219.537 140.866 210.553 134.242 200.481 129.729C190.409 125.217 179.484 122.923 168.448 123.002C157.411 123.081 146.521 125.532 136.514 130.188L104.029 60.3764Z" fill="#FFD600"/>
<path d="M270.8 315.554C254.237 330.145 234.731 341.006 213.604 347.399C192.477 353.792 170.222 355.569 148.348 352.609C126.474 349.649 105.492 342.021 86.8239 330.242C68.1558 318.464 52.2379 302.81 40.149 284.341L104.574 242.171C110.619 251.405 118.578 259.232 127.912 265.121C137.246 271.011 147.737 274.824 158.674 276.304C169.611 277.785 180.738 276.896 191.302 273.7C201.866 270.503 211.619 265.073 219.9 257.777L270.8 315.554Z" fill="#E0362C"/>
<path d="M316.403 155.408C324.95 183.663 325.197 213.779 317.114 242.17C309.03 270.561 292.957 296.031 270.809 315.546L219.904 257.773C230.979 248.016 239.015 235.281 243.057 221.085C247.099 206.89 246.975 191.832 242.701 177.704L316.403 155.408Z" fill="#FF9831"/>
<path d="M58.7219 162.455V177H55.6467V165.374H55.5614L52.2305 167.462V164.734L55.8313 162.455H58.7219Z" fill="white"/>
<path d="M55.9368 227.455V242H52.8615V230.374H52.7763L49.4453 232.462V229.734L53.0462 227.455H55.9368ZM65.7219 227.455V242H62.6467V230.374H62.5614L59.2305 232.462V229.734L62.8313 227.455H65.7219Z" fill="white"/>
<path d="M119.942 204.364L122.97 213.523H123.089L126.112 204.364H128.43L124.328 216H121.726L117.629 204.364H119.942ZM130.603 216V204.364H138.171V206.131H132.711V209.29H137.779V211.057H132.711V214.233H138.217V216H130.603ZM140.962 216V204.364H143.07V214.233H148.195V216H140.962ZM154.607 216H150.664V204.364H154.687C155.842 204.364 156.835 204.597 157.664 205.062C158.498 205.525 159.138 206.189 159.585 207.057C160.032 207.924 160.255 208.962 160.255 210.17C160.255 211.383 160.03 212.424 159.579 213.295C159.132 214.167 158.486 214.835 157.642 215.301C156.801 215.767 155.789 216 154.607 216ZM152.772 214.176H154.505C155.316 214.176 155.992 214.028 156.534 213.733C157.075 213.434 157.482 212.989 157.755 212.398C158.028 211.803 158.164 211.061 158.164 210.17C158.164 209.28 158.028 208.542 157.755 207.955C157.482 207.364 157.079 206.922 156.545 206.631C156.015 206.335 155.356 206.188 154.568 206.188H152.772V214.176ZM165.006 204.364V216H162.898V204.364H165.006ZM175.724 208.08C175.629 207.773 175.499 207.498 175.332 207.256C175.169 207.009 174.972 206.799 174.741 206.625C174.514 206.451 174.253 206.32 173.957 206.233C173.662 206.142 173.34 206.097 172.991 206.097C172.366 206.097 171.809 206.254 171.321 206.568C170.832 206.883 170.448 207.345 170.167 207.955C169.891 208.561 169.753 209.299 169.753 210.17C169.753 211.049 169.891 211.794 170.167 212.403C170.444 213.013 170.828 213.477 171.321 213.795C171.813 214.11 172.385 214.267 173.037 214.267C173.628 214.267 174.139 214.153 174.571 213.926C175.006 213.699 175.342 213.377 175.576 212.96C175.811 212.54 175.929 212.047 175.929 211.483L176.406 211.557H173.247V209.909H177.968V211.307C177.968 212.303 177.756 213.165 177.332 213.892C176.908 214.619 176.324 215.18 175.582 215.574C174.84 215.964 173.987 216.159 173.025 216.159C171.953 216.159 171.012 215.919 170.201 215.438C169.395 214.953 168.764 214.265 168.309 213.375C167.859 212.481 167.633 211.42 167.633 210.193C167.633 209.254 167.766 208.415 168.031 207.676C168.3 206.938 168.675 206.311 169.156 205.795C169.637 205.277 170.201 204.883 170.849 204.614C171.497 204.341 172.201 204.205 172.963 204.205C173.607 204.205 174.207 204.299 174.764 204.489C175.321 204.674 175.815 204.939 176.247 205.284C176.682 205.629 177.04 206.038 177.321 206.511C177.601 206.985 177.785 207.508 177.872 208.08H175.724ZM185.256 216V204.364H187.364V209.29H192.756V204.364H194.869V216H192.756V211.057H187.364V216H185.256ZM199.228 216.534L198.2 215.83L206.455 203.852L207.484 204.557L199.228 216.534ZM208.2 210.182C208.2 211.436 207.965 212.509 207.495 213.403C207.029 214.294 206.393 214.975 205.586 215.449C204.783 215.922 203.872 216.159 202.853 216.159C201.834 216.159 200.921 215.922 200.114 215.449C199.311 214.972 198.675 214.288 198.205 213.398C197.739 212.504 197.506 211.432 197.506 210.182C197.506 208.928 197.739 207.856 198.205 206.966C198.675 206.072 199.311 205.388 200.114 204.915C200.921 204.441 201.834 204.205 202.853 204.205C203.872 204.205 204.783 204.441 205.586 204.915C206.393 205.388 207.029 206.072 207.495 206.966C207.965 207.856 208.2 208.928 208.2 210.182ZM206.08 210.182C206.08 209.299 205.942 208.555 205.665 207.949C205.393 207.339 205.014 206.879 204.529 206.568C204.044 206.254 203.486 206.097 202.853 206.097C202.22 206.097 201.662 206.254 201.177 206.568C200.692 206.879 200.311 207.339 200.035 207.949C199.762 208.555 199.626 209.299 199.626 210.182C199.626 211.064 199.762 211.811 200.035 212.42C200.311 213.027 200.692 213.487 201.177 213.801C201.662 214.112 202.22 214.267 202.853 214.267C203.486 214.267 204.044 214.112 204.529 213.801C205.014 213.487 205.393 213.027 205.665 212.42C205.942 211.811 206.08 211.064 206.08 210.182ZM218.628 208.08C218.533 207.773 218.402 207.498 218.236 207.256C218.073 207.009 217.876 206.799 217.645 206.625C217.418 206.451 217.156 206.32 216.861 206.233C216.565 206.142 216.243 206.097 215.895 206.097C215.27 206.097 214.713 206.254 214.224 206.568C213.736 206.883 213.351 207.345 213.071 207.955C212.795 208.561 212.656 209.299 212.656 210.17C212.656 211.049 212.795 211.794 213.071 212.403C213.348 213.013 213.732 213.477 214.224 213.795C214.717 214.11 215.289 214.267 215.94 214.267C216.531 214.267 217.043 214.153 217.474 213.926C217.91 213.699 218.245 213.377 218.48 212.96C218.715 212.54 218.832 212.047 218.832 211.483L219.31 211.557H216.151V209.909H220.872V211.307C220.872 212.303 220.66 213.165 220.236 213.892C219.812 214.619 219.228 215.18 218.486 215.574C217.743 215.964 216.891 216.159 215.929 216.159C214.857 216.159 213.916 215.919 213.105 215.438C212.298 214.953 211.668 214.265 211.213 213.375C210.762 212.481 210.537 211.42 210.537 210.193C210.537 209.254 210.67 208.415 210.935 207.676C211.204 206.938 211.579 206.311 212.06 205.795C212.541 205.277 213.105 204.883 213.753 204.614C214.401 204.341 215.105 204.205 215.867 204.205C216.51 204.205 217.111 204.299 217.668 204.489C218.224 204.674 218.719 204.939 219.151 205.284C219.586 205.629 219.944 206.038 220.224 206.511C220.505 206.985 220.688 207.508 220.776 208.08H218.628Z" fill="black"/>
<path d="M140.545 221.727H141.209V226.543C141.209 227.037 141.093 227.48 140.861 227.871C140.629 228.259 140.306 228.566 139.891 228.79C139.479 229.013 139 229.124 138.453 229.124C137.909 229.124 137.429 229.012 137.015 228.787C136.601 228.562 136.277 228.255 136.045 227.867C135.813 227.479 135.697 227.037 135.697 226.543V221.727H136.361V226.496C136.361 226.882 136.448 227.227 136.621 227.53C136.793 227.83 137.036 228.067 137.349 228.24C137.664 228.413 138.032 228.499 138.453 228.499C138.874 228.499 139.243 228.413 139.557 228.24C139.872 228.067 140.115 227.83 140.285 227.53C140.458 227.227 140.545 226.882 140.545 226.496V221.727ZM143.549 221.727L145.822 228.137H145.886L148.159 221.727H148.855L146.209 229H145.499L142.853 221.727H143.549ZM157.663 223.545C157.622 223.141 157.444 222.819 157.126 222.58C156.809 222.34 156.41 222.221 155.93 222.221C155.591 222.221 155.293 222.279 155.035 222.395C154.779 222.511 154.578 222.672 154.431 222.878C154.287 223.081 154.214 223.313 154.214 223.574C154.214 223.766 154.256 223.934 154.339 224.078C154.422 224.223 154.533 224.347 154.673 224.451C154.815 224.553 154.971 224.64 155.141 224.714C155.314 224.787 155.488 224.849 155.663 224.898L156.43 225.119C156.662 225.183 156.894 225.264 157.126 225.364C157.358 225.463 157.57 225.589 157.762 225.74C157.956 225.889 158.111 226.073 158.227 226.29C158.346 226.506 158.405 226.765 158.405 227.068C158.405 227.456 158.304 227.806 158.103 228.116C157.902 228.426 157.613 228.672 157.236 228.854C156.86 229.034 156.409 229.124 155.884 229.124C155.389 229.124 154.959 229.043 154.594 228.879C154.23 228.714 153.943 228.485 153.735 228.194C153.527 227.903 153.41 227.565 153.384 227.182H154.065C154.089 227.468 154.184 227.711 154.349 227.91C154.515 228.109 154.731 228.26 154.996 228.364C155.261 228.466 155.557 228.517 155.884 228.517C156.246 228.517 156.568 228.457 156.849 228.336C157.134 228.213 157.356 228.042 157.517 227.825C157.68 227.604 157.762 227.349 157.762 227.058C157.762 226.811 157.698 226.605 157.57 226.44C157.442 226.272 157.264 226.131 157.034 226.017C156.807 225.903 156.543 225.803 156.242 225.715L155.372 225.46C154.802 225.289 154.359 225.054 154.044 224.753C153.729 224.452 153.572 224.069 153.572 223.602C153.572 223.212 153.676 222.868 153.884 222.572C154.095 222.274 154.379 222.042 154.736 221.876C155.096 221.708 155.5 221.624 155.947 221.624C156.4 221.624 156.8 221.707 157.148 221.873C157.496 222.039 157.772 222.267 157.975 222.558C158.181 222.847 158.291 223.176 158.305 223.545H157.663ZM159.962 222.324V221.727H165.236V222.324H162.931V229H162.267V222.324H159.962ZM167.131 229V221.727H169.478C169.994 221.727 170.425 221.821 170.771 222.008C171.119 222.192 171.38 222.449 171.556 222.778C171.733 223.105 171.822 223.48 171.822 223.904C171.822 224.328 171.733 224.702 171.556 225.026C171.38 225.351 171.12 225.604 170.774 225.786C170.429 225.969 170 226.06 169.489 226.06H167.49V225.452H169.471C169.85 225.452 170.165 225.39 170.416 225.264C170.669 225.139 170.857 224.96 170.98 224.728C171.106 224.496 171.169 224.221 171.169 223.904C171.169 223.587 171.106 223.31 170.98 223.073C170.855 222.834 170.666 222.649 170.412 222.519C170.161 222.389 169.844 222.324 169.46 222.324H167.795V229H167.131ZM170.338 225.719L172.127 229H171.36L169.588 225.719H170.338ZM173.85 229H173.154L175.8 221.727H176.51L179.156 229H178.46L176.18 222.59H176.13L173.85 229ZM174.351 226.212H177.959V226.809H174.351V226.212ZM176.155 221.276C175.89 221.276 175.664 221.184 175.477 220.999C175.292 220.812 175.2 220.586 175.2 220.321C175.2 220.143 175.242 219.982 175.327 219.838C175.413 219.694 175.528 219.579 175.672 219.494C175.819 219.408 175.98 219.366 176.155 219.366C176.332 219.366 176.493 219.408 176.638 219.494C176.782 219.579 176.897 219.694 176.982 219.838C177.068 219.982 177.11 220.143 177.11 220.321C177.11 220.496 177.068 220.657 176.982 220.804C176.897 220.948 176.782 221.063 176.638 221.148C176.493 221.234 176.332 221.276 176.155 221.276ZM176.155 220.861C176.306 220.861 176.433 220.809 176.535 220.705C176.639 220.598 176.691 220.47 176.691 220.321C176.691 220.17 176.639 220.042 176.535 219.938C176.433 219.833 176.306 219.781 176.155 219.781C176.003 219.781 175.876 219.835 175.771 219.941C175.67 220.045 175.619 220.172 175.619 220.321C175.619 220.473 175.67 220.6 175.771 220.705C175.876 220.809 176.003 220.861 176.155 220.861ZM180.802 229V221.727H181.466V228.403H184.932V229H180.802ZM187.491 221.727V229H186.827V221.727H187.491ZM195.489 221.727V229H194.842L190.546 222.91H190.489V229H189.825V221.727H190.467L194.779 227.825H194.835V221.727H195.489ZM202.854 224C202.788 223.759 202.691 223.532 202.563 223.322C202.435 223.109 202.277 222.923 202.087 222.764C201.9 222.603 201.684 222.478 201.437 222.388C201.194 222.298 200.921 222.253 200.621 222.253C200.147 222.253 199.723 222.376 199.349 222.622C198.975 222.868 198.679 223.223 198.462 223.688C198.246 224.152 198.138 224.71 198.138 225.364C198.138 226.015 198.247 226.572 198.465 227.036C198.683 227.5 198.981 227.857 199.36 228.105C199.741 228.351 200.177 228.474 200.667 228.474C201.114 228.474 201.51 228.375 201.853 228.176C202.196 227.977 202.464 227.693 202.655 227.324C202.85 226.955 202.944 226.515 202.94 226.006L203.153 226.074H200.823V225.477H203.586V226.074C203.586 226.694 203.46 227.23 203.209 227.683C202.958 228.135 202.614 228.484 202.176 228.73C201.738 228.976 201.235 229.099 200.667 229.099C200.032 229.099 199.477 228.947 199.001 228.641C198.525 228.334 198.155 227.9 197.89 227.342C197.627 226.781 197.496 226.121 197.496 225.364C197.496 224.793 197.571 224.278 197.723 223.819C197.874 223.36 198.089 222.967 198.366 222.64C198.645 222.313 198.975 222.063 199.356 221.891C199.738 221.715 200.159 221.628 200.621 221.628C201.018 221.628 201.382 221.691 201.711 221.816C202.042 221.942 202.333 222.114 202.584 222.335C202.838 222.552 203.045 222.804 203.206 223.091C203.369 223.375 203.479 223.678 203.536 224H202.854Z" fill="#747480"/>
<path d="M166.472 240.063C166.279 240.063 166.114 239.993 165.976 239.855C165.838 239.717 165.769 239.552 165.769 239.359C165.769 239.167 165.838 239.001 165.976 238.863C166.114 238.725 166.279 238.656 166.472 238.656C166.664 238.656 166.83 238.725 166.968 238.863C167.106 239.001 167.175 239.167 167.175 239.359C167.175 239.487 167.142 239.604 167.077 239.711C167.015 239.818 166.93 239.904 166.823 239.969C166.719 240.031 166.602 240.063 166.472 240.063ZM169.501 240.063C169.308 240.063 169.143 239.993 169.005 239.855C168.867 239.717 168.798 239.552 168.798 239.359C168.798 239.167 168.867 239.001 169.005 238.863C169.143 238.725 169.308 238.656 169.501 238.656C169.694 238.656 169.859 238.725 169.997 238.863C170.135 239.001 170.204 239.167 170.204 239.359C170.204 239.487 170.172 239.604 170.106 239.711C170.044 239.818 169.959 239.904 169.853 239.969C169.748 240.031 169.631 240.063 169.501 240.063ZM172.53 240.063C172.338 240.063 172.172 239.993 172.034 239.855C171.896 239.717 171.827 239.552 171.827 239.359C171.827 239.167 171.896 239.001 172.034 238.863C172.172 238.725 172.338 238.656 172.53 238.656C172.723 238.656 172.888 238.725 173.026 238.863C173.164 239.001 173.233 239.167 173.233 239.359C173.233 239.487 173.201 239.604 173.136 239.711C173.073 239.818 172.989 239.904 172.882 239.969C172.778 240.031 172.66 240.063 172.53 240.063Z" fill="#E4E4E4"/>
<path d="M151.372 95.1989C150.311 95.1989 149.367 95.0166 148.538 94.652C147.714 94.2827 147.063 93.776 146.585 93.1321C146.111 92.4834 145.868 91.7353 145.853 90.8878H148.95C148.969 91.2429 149.085 91.5554 149.298 91.8253C149.516 92.0904 149.805 92.2964 150.164 92.4432C150.524 92.59 150.929 92.6634 151.379 92.6634C151.848 92.6634 152.262 92.5805 152.622 92.4148C152.982 92.2491 153.263 92.0194 153.467 91.7259C153.671 91.4323 153.772 91.0937 153.772 90.7102C153.772 90.322 153.663 89.9787 153.446 89.6804C153.233 89.3774 152.925 89.1406 152.522 88.9702C152.125 88.7997 151.651 88.7145 151.102 88.7145H149.745V86.456H151.102C151.566 86.456 151.975 86.3755 152.331 86.2145C152.69 86.0535 152.97 85.831 153.169 85.5469C153.368 85.258 153.467 84.9219 153.467 84.5384C153.467 84.1738 153.379 83.8542 153.204 83.5795C153.034 83.3002 152.792 83.0824 152.48 82.9261C152.172 82.7699 151.812 82.6918 151.4 82.6918C150.984 82.6918 150.602 82.7675 150.257 82.919C149.911 83.0658 149.634 83.2765 149.426 83.5511C149.217 83.8258 149.106 84.1477 149.092 84.517H146.145C146.159 83.679 146.398 82.9403 146.862 82.3011C147.326 81.6619 147.951 81.1624 148.737 80.8026C149.528 80.438 150.42 80.2557 151.414 80.2557C152.418 80.2557 153.297 80.438 154.049 80.8026C154.802 81.1671 155.387 81.6596 155.804 82.2798C156.225 82.8954 156.433 83.5866 156.429 84.3537C156.433 85.1681 156.18 85.8475 155.669 86.392C155.162 86.9366 154.502 87.2822 153.687 87.429V87.5426C154.757 87.6799 155.572 88.0516 156.13 88.6577C156.694 89.259 156.973 90.0118 156.968 90.9162C156.973 91.7448 156.734 92.4811 156.251 93.125C155.773 93.7689 155.112 94.2756 154.27 94.6449C153.427 95.0142 152.461 95.1989 151.372 95.1989Z" fill="white"/>
<path d="M212.404 101.443V99.0213L218.477 89.4545H220.565V92.8068H219.329L215.501 98.8651V98.9787H224.13V101.443H212.404ZM219.386 104V100.705L219.442 99.6321V89.4545H222.326V104H219.386Z" fill="white"/>
<path d="M266.601 143.199C265.597 143.199 264.702 143.014 263.916 142.645C263.135 142.276 262.515 141.767 262.055 141.118C261.596 140.469 261.357 139.726 261.338 138.888H264.321C264.354 139.451 264.591 139.908 265.031 140.259C265.472 140.609 265.995 140.784 266.601 140.784C267.084 140.784 267.51 140.678 267.879 140.464C268.253 140.247 268.545 139.946 268.753 139.562C268.966 139.174 269.072 138.729 269.072 138.227C269.072 137.716 268.964 137.266 268.746 136.878C268.533 136.49 268.237 136.187 267.858 135.969C267.479 135.751 267.046 135.64 266.558 135.635C266.132 135.635 265.718 135.723 265.315 135.898C264.918 136.073 264.607 136.312 264.385 136.615L261.651 136.125L262.339 128.455H271.232V130.969H264.875L264.499 134.612H264.584C264.839 134.252 265.225 133.954 265.741 133.717C266.258 133.481 266.835 133.362 267.474 133.362C268.35 133.362 269.132 133.568 269.818 133.98C270.505 134.392 271.047 134.958 271.445 135.678C271.842 136.393 272.039 137.216 272.034 138.149C272.039 139.129 271.812 140 271.352 140.763C270.898 141.52 270.261 142.117 269.442 142.553C268.627 142.983 267.68 143.199 266.601 143.199Z" fill="white"/>
<path d="M281.558 202.199C280.81 202.194 280.088 202.069 279.392 201.822C278.701 201.576 278.08 201.176 277.531 200.622C276.982 200.068 276.546 199.334 276.224 198.42C275.907 197.507 275.749 196.384 275.749 195.054C275.753 193.832 275.893 192.741 276.168 191.78C276.447 190.814 276.845 189.995 277.361 189.322C277.882 188.65 278.504 188.139 279.229 187.788C279.953 187.433 280.765 187.256 281.665 187.256C282.635 187.256 283.492 187.445 284.236 187.824C284.979 188.198 285.576 188.707 286.026 189.351C286.48 189.995 286.755 190.717 286.849 191.517H283.817C283.698 191.01 283.45 190.613 283.071 190.324C282.692 190.035 282.223 189.891 281.665 189.891C280.718 189.891 279.998 190.303 279.506 191.126C279.018 191.95 278.769 193.07 278.76 194.486H278.859C279.077 194.055 279.371 193.688 279.74 193.385C280.114 193.077 280.538 192.843 281.011 192.682C281.49 192.516 281.994 192.433 282.524 192.433C283.386 192.433 284.153 192.637 284.825 193.044C285.498 193.446 286.028 194 286.416 194.706C286.804 195.411 286.999 196.219 286.999 197.128C286.999 198.113 286.769 198.989 286.31 199.756C285.855 200.523 285.218 201.124 284.399 201.56C283.585 201.991 282.638 202.204 281.558 202.199ZM281.544 199.784C282.018 199.784 282.441 199.67 282.815 199.443C283.189 199.216 283.483 198.908 283.696 198.52C283.909 198.132 284.016 197.696 284.016 197.213C284.016 196.73 283.909 196.297 283.696 195.913C283.488 195.53 283.199 195.224 282.83 194.997C282.46 194.77 282.039 194.656 281.565 194.656C281.21 194.656 280.881 194.723 280.578 194.855C280.28 194.988 280.017 195.172 279.79 195.409C279.567 195.646 279.392 195.92 279.264 196.233C279.136 196.541 279.072 196.87 279.072 197.22C279.072 197.689 279.179 198.117 279.392 198.506C279.61 198.894 279.903 199.204 280.273 199.436C280.647 199.668 281.071 199.784 281.544 199.784Z" fill="white"/>
<path d="M264.86 268L270.89 256.068V255.969H263.865V253.455H274.071V256.004L268.034 268H264.86Z" fill="white"/>
<path d="M217.382 314.199C216.289 314.199 215.316 314.021 214.463 313.666C213.616 313.306 212.951 312.816 212.468 312.196C211.985 311.576 211.743 310.873 211.743 310.087C211.743 309.481 211.881 308.924 212.155 308.418C212.435 307.906 212.813 307.482 213.292 307.146C213.77 306.805 214.305 306.588 214.897 306.493V306.393C214.12 306.237 213.49 305.861 213.007 305.264C212.525 304.663 212.283 303.964 212.283 303.169C212.283 302.416 212.503 301.746 212.944 301.159C213.384 300.567 213.988 300.103 214.755 299.767C215.526 299.426 216.402 299.256 217.382 299.256C218.363 299.256 219.236 299.426 220.003 299.767C220.775 300.108 221.381 300.574 221.821 301.166C222.262 301.753 222.484 302.421 222.489 303.169C222.484 303.969 222.238 304.668 221.75 305.264C221.263 305.861 220.638 306.237 219.875 306.393V306.493C220.458 306.588 220.986 306.805 221.459 307.146C221.937 307.482 222.316 307.906 222.596 308.418C222.88 308.924 223.024 309.481 223.029 310.087C223.024 310.873 222.78 311.576 222.297 312.196C221.814 312.816 221.147 313.306 220.294 313.666C219.447 314.021 218.476 314.199 217.382 314.199ZM217.382 311.94C217.87 311.94 218.296 311.853 218.661 311.678C219.025 311.498 219.31 311.251 219.513 310.939C219.721 310.622 219.826 310.257 219.826 309.845C219.826 309.424 219.719 309.052 219.506 308.73C219.293 308.403 219.004 308.148 218.64 307.963C218.275 307.774 217.856 307.679 217.382 307.679C216.914 307.679 216.495 307.774 216.125 307.963C215.756 308.148 215.465 308.403 215.252 308.73C215.043 309.052 214.939 309.424 214.939 309.845C214.939 310.257 215.041 310.622 215.245 310.939C215.448 311.251 215.735 311.498 216.104 311.678C216.473 311.853 216.9 311.94 217.382 311.94ZM217.382 305.442C217.79 305.442 218.152 305.359 218.469 305.193C218.786 305.027 219.035 304.798 219.215 304.504C219.395 304.211 219.485 303.872 219.485 303.489C219.485 303.11 219.395 302.778 219.215 302.494C219.035 302.205 218.789 301.981 218.476 301.82C218.164 301.654 217.799 301.571 217.382 301.571C216.971 301.571 216.606 301.654 216.289 301.82C215.971 301.981 215.723 302.205 215.543 302.494C215.368 302.778 215.28 303.11 215.28 303.489C215.28 303.872 215.37 304.211 215.55 304.504C215.73 304.798 215.979 305.027 216.296 305.193C216.613 305.359 216.975 305.442 217.382 305.442Z" fill="white"/>
<g clip-path="url(#clip0_178_300)">
<path d="M161.14 163.26L158.44 160.575L156.325 162.69L159.01 165.375L161.14 163.26ZM157 171.75H152.5V174.75H157V171.75ZM170.5 156.825H167.5V161.25H170.5V156.825V156.825ZM181.675 162.69L179.56 160.575L176.875 163.26L178.99 165.375L181.675 162.69ZM176.86 183.24L179.545 185.94L181.66 183.825L178.96 181.14L176.86 183.24ZM181 171.75V174.75H185.5V171.75H181ZM169 164.25C164.035 164.25 160 168.285 160 173.25C160 178.215 164.035 182.25 169 182.25C173.965 182.25 178 178.215 178 173.25C178 168.285 173.965 164.25 169 164.25ZM167.5 189.675H170.5V185.25H167.5V189.675ZM156.325 183.81L158.44 185.925L161.125 183.225L159.01 181.11L156.325 183.81Z" fill="#E0362C"/>
<path d="M165.276 161.096L163.728 157.618L160.992 158.826L162.526 162.3L165.276 161.096ZM158.351 167.519L154.154 165.895L153.071 168.692L157.268 170.317L158.351 167.519ZM176.328 158.474L173.531 157.391L171.933 161.518L174.731 162.601L176.328 158.474ZM184.632 167.978L183.424 165.242L179.95 166.776L181.159 169.512L184.632 167.978ZM172.724 185.404L174.253 188.891L176.989 187.682L175.44 184.203L172.724 185.404ZM180.732 176.183L179.649 178.981L183.846 180.605L184.929 177.808L180.732 176.183ZM161.672 188.026L164.469 189.109L166.067 184.982L163.269 183.899L161.672 188.026ZM153.368 178.522L154.576 181.258L158.055 179.71L156.846 176.974L153.368 178.522Z" fill="#E0362C"/>
</g>
<mask id="path-18-outside-1_178_300" maskUnits="userSpaceOnUse" x="24" y="228" width="129" height="130" fill="black">
<rect fill="white" x="24" y="228" width="129" height="130"/>
<path d="M108.388 351.746C76.6688 337.449 49.6532 314.451 30.4755 285.421L107.238 234.71C116.827 249.226 130.334 260.724 146.194 267.873L108.388 351.746Z"/>
</mask>
<path d="M108.388 351.746C76.6688 337.449 49.6532 314.451 30.4755 285.421L107.238 234.71C116.827 249.226 130.334 260.724 146.194 267.873L108.388 351.746Z" fill="#D0241A"/>
<path d="M108.388 351.746C76.6688 337.449 49.6532 314.451 30.4755 285.421L107.238 234.71C116.827 249.226 130.334 260.724 146.194 267.873L108.388 351.746Z" stroke="#AD2921" stroke-width="12" stroke-linejoin="round" mask="url(#path-18-outside-1_178_300)"/>
<path d="M157.239 309.256C157.987 309.256 158.706 309.381 159.398 309.632C160.094 309.883 160.714 310.283 161.259 310.832C161.808 311.382 162.241 312.111 162.558 313.02C162.88 313.924 163.044 315.035 163.048 316.351C163.048 317.587 162.909 318.69 162.629 319.661C162.355 320.626 161.959 321.448 161.443 322.125C160.927 322.802 160.304 323.318 159.575 323.673C158.846 324.024 158.032 324.199 157.132 324.199C156.161 324.199 155.304 324.012 154.561 323.638C153.818 323.259 153.219 322.745 152.764 322.097C152.314 321.443 152.042 320.709 151.947 319.895H154.98C155.098 320.425 155.347 320.837 155.726 321.131C156.105 321.42 156.573 321.564 157.132 321.564C158.079 321.564 158.799 321.152 159.291 320.328C159.784 319.5 160.032 318.366 160.037 316.926H159.938C159.72 317.352 159.426 317.719 159.057 318.027C158.688 318.33 158.264 318.564 157.786 318.73C157.312 318.896 156.808 318.979 156.273 318.979C155.416 318.979 154.651 318.777 153.979 318.375C153.306 317.973 152.776 317.419 152.388 316.713C152 316.008 151.805 315.203 151.805 314.298C151.801 313.323 152.026 312.454 152.48 311.692C152.935 310.929 153.569 310.333 154.384 309.902C155.203 309.466 156.154 309.251 157.239 309.256ZM157.26 311.67C156.782 311.67 156.356 311.784 155.982 312.011C155.612 312.239 155.319 312.544 155.101 312.928C154.888 313.311 154.784 313.74 154.788 314.213C154.788 314.691 154.893 315.122 155.101 315.506C155.314 315.884 155.603 316.187 155.967 316.415C156.337 316.637 156.758 316.749 157.232 316.749C157.587 316.749 157.916 316.682 158.219 316.55C158.522 316.417 158.785 316.235 159.007 316.003C159.234 315.766 159.412 315.494 159.54 315.186C159.668 314.878 159.732 314.552 159.732 314.206C159.727 313.747 159.618 313.325 159.405 312.942C159.192 312.558 158.898 312.25 158.524 312.018C158.15 311.786 157.729 311.67 157.26 311.67Z" fill="white"/>
<path d="M83.3239 280.727V304H78.4034V285.398H78.267L72.9375 288.739V284.375L78.6989 280.727H83.3239ZM97.9801 304.511C96.0256 304.504 94.3438 304.023 92.9347 303.068C91.5331 302.114 90.4536 300.731 89.696 298.92C88.946 297.11 88.5748 294.932 88.5824 292.386C88.5824 289.848 88.9574 287.686 89.7074 285.898C90.465 284.11 91.5445 282.75 92.946 281.818C94.3551 280.879 96.0331 280.409 97.9801 280.409C99.9271 280.409 101.601 280.879 103.003 281.818C104.412 282.758 105.495 284.121 106.253 285.909C107.01 287.689 107.385 289.848 107.378 292.386C107.378 294.939 106.999 297.121 106.241 298.932C105.491 300.742 104.416 302.125 103.014 303.08C101.613 304.034 99.9347 304.511 97.9801 304.511ZM97.9801 300.432C99.3134 300.432 100.378 299.761 101.173 298.42C101.969 297.08 102.363 295.068 102.355 292.386C102.355 290.621 102.173 289.152 101.81 287.977C101.454 286.803 100.946 285.92 100.287 285.33C99.6354 284.739 98.8665 284.443 97.9801 284.443C96.6544 284.443 95.5938 285.106 94.7983 286.432C94.0028 287.758 93.6013 289.742 93.5938 292.386C93.5938 294.174 93.7718 295.667 94.1278 296.864C94.4915 298.053 95.0028 298.947 95.6619 299.545C96.321 300.136 97.0938 300.432 97.9801 300.432Z" fill="white"/>
<defs>
<clipPath id="clip0_178_300">
<rect width="36" height="36" fill="white" transform="translate(151 156)"/>
</clipPath>
</defs>
</svg>
