<svg width="308" height="330" viewBox="0 0 308 330" fill="none" xmlns="http://www.w3.org/2000/svg">
<path d="M0 176C2.58068e-06 146.48 8.48419 117.583 24.4422 92.7487C40.4002 67.9144 63.1596 48.1899 90.0101 35.924L122.005 105.962C108.58 112.095 97.2001 121.957 89.2211 134.374C81.2421 146.791 77 161.24 77 176L0 176Z" fill="#AAE47C"/>
<path d="M63.5813 102V99.7841L68.7589 94.9901C69.1992 94.5639 69.5685 94.1804 69.8668 93.8395C70.1699 93.4986 70.3995 93.1648 70.5558 92.8381C70.712 92.5066 70.7901 92.1491 70.7901 91.7656C70.7901 91.3395 70.6931 90.9725 70.4989 90.6648C70.3048 90.3523 70.0397 90.1132 69.7035 89.9474C69.3673 89.777 68.9862 89.6918 68.56 89.6918C68.1149 89.6918 67.7267 89.7817 67.3952 89.9616C67.0638 90.1416 66.8081 90.3996 66.6282 90.7358C66.4483 91.072 66.3583 91.4721 66.3583 91.9361H63.4393C63.4393 90.9844 63.6547 90.1581 64.0856 89.4574C64.5165 88.7566 65.1201 88.2145 65.8967 87.831C66.6732 87.4474 67.5681 87.2557 68.5813 87.2557C69.623 87.2557 70.5297 87.4403 71.3015 87.8097C72.078 88.1742 72.6817 88.6809 73.1126 89.3295C73.5434 89.9782 73.7589 90.7216 73.7589 91.5597C73.7589 92.1089 73.65 92.651 73.4322 93.1861C73.2191 93.7211 72.8379 94.3153 72.2887 94.9688C71.7395 95.6174 70.9653 96.3963 69.9663 97.3054L67.8427 99.3864V99.4858H73.9506V102H63.5813Z" fill="white"/>
<path d="M25.1643 260.364C8.79239 235.362 0.0489677 206.137 0.000204995 176.251L77.0001 176.126C77.0245 191.068 81.3962 205.681 89.5822 218.182L25.1643 260.364Z" fill="#724BC3"/>
<path d="M89.0288 36.3764C109.042 27.0638 130.822 22.1623 152.895 22.004C174.968 21.8456 196.817 26.4342 216.961 35.4587C237.106 44.4832 255.075 57.7327 269.65 74.3092C284.226 90.8858 295.068 110.402 301.441 131.535L227.721 153.768C224.534 143.201 219.113 133.443 211.825 125.155C204.537 116.866 195.553 110.242 185.481 105.729C175.409 101.217 164.484 98.9228 153.448 99.002C142.411 99.0812 131.521 101.532 121.514 106.188L89.0288 36.3764Z" fill="#FFD600"/>
<path d="M255.8 291.554C239.237 306.145 219.731 317.006 198.604 323.399C177.477 329.792 155.222 331.569 133.348 328.609C111.474 325.649 90.4921 318.021 71.8239 306.242C53.1558 294.464 37.2379 278.81 25.149 260.341L89.5745 218.171C95.6189 227.405 103.578 235.232 112.912 241.121C122.246 247.011 132.737 250.824 143.674 252.304C154.611 253.785 165.738 252.896 176.302 249.7C186.866 246.503 196.619 241.073 204.9 233.777L255.8 291.554Z" fill="#E0362C"/>
<path d="M301.403 131.408C309.95 159.663 310.197 189.779 302.114 218.17C294.03 246.561 277.957 272.031 255.809 291.546L204.904 233.773C215.979 224.016 224.015 211.281 228.057 197.085C232.099 182.89 231.975 167.832 227.701 153.704L301.403 131.408Z" fill="#FF9831"/>
<path d="M43.7219 138.455V153H40.6467V141.374H40.5614L37.2305 143.462V140.734L40.8313 138.455H43.7219Z" fill="white"/>
<path d="M249.601 115.199C248.597 115.199 247.702 115.014 246.916 114.645C246.135 114.276 245.515 113.767 245.055 113.118C244.596 112.469 244.357 111.726 244.338 110.888H247.321C247.354 111.451 247.591 111.908 248.031 112.259C248.472 112.609 248.995 112.784 249.601 112.784C250.084 112.784 250.51 112.678 250.879 112.464C251.253 112.247 251.545 111.946 251.753 111.562C251.966 111.174 252.072 110.729 252.072 110.227C252.072 109.716 251.964 109.266 251.746 108.878C251.533 108.49 251.237 108.187 250.858 107.969C250.479 107.751 250.046 107.64 249.558 107.635C249.132 107.635 248.718 107.723 248.315 107.898C247.918 108.073 247.607 108.312 247.385 108.615L244.651 108.125L245.339 100.455H254.232V102.969H247.875L247.499 106.612H247.584C247.839 106.252 248.225 105.954 248.741 105.717C249.258 105.481 249.835 105.362 250.474 105.362C251.35 105.362 252.132 105.568 252.818 105.98C253.505 106.392 254.047 106.958 254.445 107.678C254.842 108.393 255.039 109.216 255.034 110.149C255.039 111.129 254.812 112 254.352 112.763C253.898 113.52 253.261 114.117 252.442 114.553C251.627 114.983 250.68 115.199 249.601 115.199Z" fill="white"/>
<path d="M266.558 188.199C265.81 188.194 265.088 188.069 264.392 187.822C263.701 187.576 263.08 187.176 262.531 186.622C261.982 186.068 261.546 185.334 261.224 184.42C260.907 183.507 260.749 182.384 260.749 181.054C260.753 179.832 260.893 178.741 261.168 177.78C261.447 176.814 261.845 175.995 262.361 175.322C262.882 174.65 263.504 174.139 264.229 173.788C264.953 173.433 265.765 173.256 266.665 173.256C267.635 173.256 268.492 173.445 269.236 173.824C269.979 174.198 270.576 174.707 271.026 175.351C271.48 175.995 271.755 176.717 271.849 177.517H268.817C268.698 177.01 268.45 176.613 268.071 176.324C267.692 176.035 267.223 175.891 266.665 175.891C265.718 175.891 264.998 176.303 264.506 177.126C264.018 177.95 263.769 179.07 263.76 180.486H263.859C264.077 180.055 264.371 179.688 264.74 179.385C265.114 179.077 265.538 178.843 266.011 178.682C266.49 178.516 266.994 178.433 267.524 178.433C268.386 178.433 269.153 178.637 269.825 179.044C270.498 179.446 271.028 180 271.416 180.706C271.804 181.411 271.999 182.219 271.999 183.128C271.999 184.113 271.769 184.989 271.31 185.756C270.855 186.523 270.218 187.124 269.399 187.56C268.585 187.991 267.638 188.204 266.558 188.199ZM266.544 185.784C267.018 185.784 267.441 185.67 267.815 185.443C268.189 185.216 268.483 184.908 268.696 184.52C268.909 184.132 269.016 183.696 269.016 183.213C269.016 182.73 268.909 182.297 268.696 181.913C268.488 181.53 268.199 181.224 267.83 180.997C267.46 180.77 267.039 180.656 266.565 180.656C266.21 180.656 265.881 180.723 265.578 180.855C265.28 180.988 265.017 181.172 264.79 181.409C264.567 181.646 264.392 181.92 264.264 182.233C264.136 182.541 264.072 182.87 264.072 183.22C264.072 183.689 264.179 184.117 264.392 184.506C264.61 184.894 264.903 185.204 265.273 185.436C265.647 185.668 266.071 185.784 266.544 185.784Z" fill="white"/>
<path d="M247.86 242L253.89 230.068V229.969H246.865V227.455H257.071V230.004L251.034 242H247.86Z" fill="white"/>
<path d="M202.382 290.199C201.289 290.199 200.316 290.021 199.463 289.666C198.616 289.306 197.951 288.816 197.468 288.196C196.985 287.576 196.743 286.873 196.743 286.087C196.743 285.481 196.881 284.924 197.155 284.418C197.435 283.906 197.813 283.482 198.292 283.146C198.77 282.805 199.305 282.588 199.897 282.493V282.393C199.12 282.237 198.49 281.861 198.007 281.264C197.525 280.663 197.283 279.964 197.283 279.169C197.283 278.416 197.503 277.746 197.944 277.159C198.384 276.567 198.988 276.103 199.755 275.767C200.526 275.426 201.402 275.256 202.382 275.256C203.363 275.256 204.236 275.426 205.003 275.767C205.775 276.108 206.381 276.574 206.821 277.166C207.262 277.753 207.484 278.421 207.489 279.169C207.484 279.969 207.238 280.668 206.75 281.264C206.263 281.861 205.638 282.237 204.875 282.393V282.493C205.458 282.588 205.986 282.805 206.459 283.146C206.937 283.482 207.316 283.906 207.596 284.418C207.88 284.924 208.024 285.481 208.029 286.087C208.024 286.873 207.78 287.576 207.297 288.196C206.814 288.816 206.147 289.306 205.294 289.666C204.447 290.021 203.476 290.199 202.382 290.199ZM202.382 287.94C202.87 287.94 203.296 287.853 203.661 287.678C204.025 287.498 204.31 287.251 204.513 286.939C204.721 286.622 204.826 286.257 204.826 285.845C204.826 285.424 204.719 285.052 204.506 284.73C204.293 284.403 204.004 284.148 203.64 283.963C203.275 283.774 202.856 283.679 202.382 283.679C201.914 283.679 201.495 283.774 201.125 283.963C200.756 284.148 200.465 284.403 200.252 284.73C200.043 285.052 199.939 285.424 199.939 285.845C199.939 286.257 200.041 286.622 200.245 286.939C200.448 287.251 200.735 287.498 201.104 287.678C201.473 287.853 201.9 287.94 202.382 287.94ZM202.382 281.442C202.79 281.442 203.152 281.359 203.469 281.193C203.786 281.027 204.035 280.798 204.215 280.504C204.395 280.211 204.485 279.872 204.485 279.489C204.485 279.11 204.395 278.778 204.215 278.494C204.035 278.205 203.789 277.981 203.476 277.82C203.164 277.654 202.799 277.571 202.382 277.571C201.971 277.571 201.606 277.654 201.289 277.82C200.971 277.981 200.723 278.205 200.543 278.494C200.368 278.778 200.28 279.11 200.28 279.489C200.28 279.872 200.37 280.211 200.55 280.504C200.73 280.798 200.979 281.027 201.296 281.193C201.613 281.359 201.975 281.442 202.382 281.442Z" fill="white"/>
<path d="M142.239 285.256C142.987 285.256 143.706 285.381 144.398 285.632C145.094 285.883 145.714 286.283 146.259 286.832C146.808 287.382 147.241 288.111 147.558 289.02C147.88 289.924 148.044 291.035 148.048 292.351C148.048 293.587 147.909 294.69 147.629 295.661C147.355 296.626 146.959 297.448 146.443 298.125C145.927 298.802 145.304 299.318 144.575 299.673C143.846 300.024 143.032 300.199 142.132 300.199C141.161 300.199 140.304 300.012 139.561 299.638C138.818 299.259 138.219 298.745 137.764 298.097C137.314 297.443 137.042 296.709 136.947 295.895H139.98C140.098 296.425 140.347 296.837 140.726 297.131C141.105 297.42 141.573 297.564 142.132 297.564C143.079 297.564 143.799 297.152 144.291 296.328C144.784 295.5 145.032 294.366 145.037 292.926H144.938C144.72 293.352 144.426 293.719 144.057 294.027C143.688 294.33 143.264 294.564 142.786 294.73C142.312 294.896 141.808 294.979 141.273 294.979C140.416 294.979 139.651 294.777 138.979 294.375C138.306 293.973 137.776 293.419 137.388 292.713C137 292.008 136.805 291.203 136.805 290.298C136.801 289.323 137.026 288.454 137.48 287.692C137.935 286.929 138.569 286.333 139.384 285.902C140.203 285.466 141.154 285.251 142.239 285.256ZM142.26 287.67C141.782 287.67 141.356 287.784 140.982 288.011C140.612 288.239 140.319 288.544 140.101 288.928C139.888 289.311 139.784 289.74 139.788 290.213C139.788 290.691 139.893 291.122 140.101 291.506C140.314 291.884 140.603 292.187 140.967 292.415C141.337 292.637 141.758 292.749 142.232 292.749C142.587 292.749 142.916 292.682 143.219 292.55C143.522 292.417 143.785 292.235 144.007 292.003C144.234 291.766 144.412 291.494 144.54 291.186C144.668 290.878 144.732 290.552 144.732 290.206C144.727 289.747 144.618 289.325 144.405 288.942C144.192 288.558 143.898 288.25 143.524 288.018C143.15 287.786 142.729 287.67 142.26 287.67Z" fill="white"/>
<path d="M77.9524 260.455V275H74.8771V263.374H74.7919L71.4609 265.462V262.734L75.0618 260.455H77.9524ZM87.1126 275.32C85.891 275.315 84.8398 275.014 83.9592 274.418C83.0832 273.821 82.4085 272.957 81.935 271.825C81.4663 270.694 81.2343 269.332 81.239 267.741C81.239 266.155 81.4734 264.804 81.9421 263.686C82.4156 262.569 83.0903 261.719 83.9663 261.136C84.8469 260.549 85.8957 260.256 87.1126 260.256C88.3294 260.256 89.3758 260.549 90.2518 261.136C91.1325 261.723 91.8095 262.576 92.283 263.693C92.7565 264.806 92.9909 266.155 92.9862 267.741C92.9862 269.337 92.7494 270.701 92.2759 271.832C91.8072 272.964 91.1348 273.828 90.2589 274.425C89.3829 275.021 88.3342 275.32 87.1126 275.32ZM87.1126 272.77C87.9459 272.77 88.6112 272.351 89.1083 271.513C89.6055 270.675 89.8517 269.418 89.8469 267.741C89.8469 266.638 89.7333 265.72 89.506 264.986C89.2835 264.252 88.9663 263.7 88.5543 263.331C88.1471 262.962 87.6665 262.777 87.1126 262.777C86.284 262.777 85.6211 263.191 85.1239 264.02C84.6268 264.848 84.3758 266.089 84.3711 267.741C84.3711 268.859 84.4824 269.792 84.7049 270.54C84.9322 271.283 85.2518 271.842 85.6637 272.216C86.0756 272.585 86.5586 272.77 87.1126 272.77Z" fill="white"/>
<path d="M40.9368 203.455V218H37.8615V206.374H37.7763L34.4453 208.462V205.734L38.0462 203.455H40.9368ZM50.7219 203.455V218H47.6467V206.374H47.5614L44.2305 208.462V205.734L47.8313 203.455H50.7219Z" fill="white"/>
<path d="M114.056 182.364H116.635L120.09 190.795H120.226L123.681 182.364H126.26V194H124.238V186.006H124.13L120.914 193.966H119.402L116.187 185.989H116.079V194H114.056V182.364ZM139.594 188.182C139.594 189.436 139.359 190.509 138.889 191.403C138.423 192.294 137.787 192.975 136.98 193.449C136.177 193.922 135.266 194.159 134.247 194.159C133.228 194.159 132.315 193.922 131.508 193.449C130.705 192.972 130.069 192.288 129.599 191.398C129.133 190.504 128.9 189.432 128.9 188.182C128.9 186.928 129.133 185.856 129.599 184.966C130.069 184.072 130.705 183.388 131.508 182.915C132.315 182.441 133.228 182.205 134.247 182.205C135.266 182.205 136.177 182.441 136.98 182.915C137.787 183.388 138.423 184.072 138.889 184.966C139.359 185.856 139.594 186.928 139.594 188.182ZM137.474 188.182C137.474 187.299 137.336 186.555 137.059 185.949C136.787 185.339 136.408 184.879 135.923 184.568C135.438 184.254 134.88 184.097 134.247 184.097C133.614 184.097 133.056 184.254 132.571 184.568C132.086 184.879 131.705 185.339 131.429 185.949C131.156 186.555 131.02 187.299 131.02 188.182C131.02 189.064 131.156 189.811 131.429 190.42C131.705 191.027 132.086 191.487 132.571 191.801C133.056 192.112 133.614 192.267 134.247 192.267C134.88 192.267 135.438 192.112 135.923 191.801C136.408 191.487 136.787 191.027 137.059 190.42C137.336 189.811 137.474 189.064 137.474 188.182ZM146.17 194H142.226V182.364H146.249C147.405 182.364 148.397 182.597 149.226 183.062C150.06 183.525 150.7 184.189 151.147 185.057C151.594 185.924 151.817 186.962 151.817 188.17C151.817 189.383 151.592 190.424 151.141 191.295C150.694 192.167 150.048 192.835 149.204 193.301C148.363 193.767 147.351 194 146.17 194ZM144.334 192.176H146.067C146.878 192.176 147.554 192.028 148.096 191.733C148.637 191.434 149.045 190.989 149.317 190.398C149.59 189.803 149.726 189.061 149.726 188.17C149.726 187.28 149.59 186.542 149.317 185.955C149.045 185.364 148.641 184.922 148.107 184.631C147.577 184.335 146.918 184.188 146.13 184.188H144.334V192.176ZM154.46 194V182.364H162.028V184.131H156.568V187.29H161.636V189.057H156.568V192.233H162.074V194H154.46ZM164.819 194V182.364H169.183C170.077 182.364 170.827 182.519 171.433 182.83C172.042 183.14 172.503 183.576 172.813 184.136C173.128 184.693 173.285 185.343 173.285 186.085C173.285 186.831 173.126 187.479 172.808 188.028C172.493 188.574 172.029 188.996 171.416 189.295C170.802 189.591 170.048 189.739 169.154 189.739H166.046V187.989H168.87C169.393 187.989 169.821 187.917 170.154 187.773C170.488 187.625 170.734 187.411 170.893 187.131C171.056 186.847 171.137 186.498 171.137 186.085C171.137 185.672 171.056 185.32 170.893 185.028C170.73 184.733 170.482 184.509 170.149 184.358C169.815 184.203 169.385 184.125 168.859 184.125H166.927V194H164.819ZM170.83 188.727L173.711 194H171.359L168.529 188.727H170.83ZM177.36 194H175.11L179.206 182.364H181.808L185.911 194H183.661L180.553 184.75H180.462L177.36 194ZM177.433 189.438H183.57V191.131H177.433V189.438ZM186.166 184.131V182.364H195.45V184.131H191.853V194H189.762V184.131H186.166Z" fill="black"/>
<path d="M125.545 199.727H126.209V204.543C126.209 205.037 126.093 205.48 125.861 205.871C125.629 206.259 125.306 206.566 124.891 206.79C124.479 207.013 124 207.124 123.453 207.124C122.909 207.124 122.429 207.012 122.015 206.787C121.601 206.562 121.277 206.255 121.045 205.867C120.813 205.479 120.697 205.037 120.697 204.543V199.727H121.361V204.496C121.361 204.882 121.448 205.227 121.621 205.53C121.793 205.83 122.036 206.067 122.349 206.24C122.664 206.413 123.032 206.499 123.453 206.499C123.874 206.499 124.243 206.413 124.557 206.24C124.872 206.067 125.115 205.83 125.285 205.53C125.458 205.227 125.545 204.882 125.545 204.496V199.727ZM128.549 199.727L130.822 206.137H130.886L133.159 199.727H133.855L131.209 207H130.499L127.853 199.727H128.549ZM142.663 201.545C142.622 201.141 142.444 200.819 142.126 200.58C141.809 200.34 141.41 200.221 140.93 200.221C140.591 200.221 140.293 200.279 140.035 200.395C139.779 200.511 139.578 200.672 139.431 200.878C139.287 201.081 139.214 201.313 139.214 201.574C139.214 201.766 139.256 201.934 139.339 202.078C139.422 202.223 139.533 202.347 139.673 202.451C139.815 202.553 139.971 202.64 140.141 202.714C140.314 202.787 140.488 202.849 140.663 202.898L141.43 203.119C141.662 203.183 141.894 203.264 142.126 203.364C142.358 203.463 142.57 203.589 142.762 203.74C142.956 203.889 143.111 204.073 143.227 204.29C143.346 204.506 143.405 204.765 143.405 205.068C143.405 205.456 143.304 205.806 143.103 206.116C142.902 206.426 142.613 206.672 142.236 206.854C141.86 207.034 141.409 207.124 140.884 207.124C140.389 207.124 139.959 207.043 139.594 206.879C139.23 206.714 138.943 206.485 138.735 206.194C138.527 205.903 138.41 205.565 138.384 205.182H139.065C139.089 205.468 139.184 205.711 139.349 205.91C139.515 206.109 139.731 206.26 139.996 206.364C140.261 206.466 140.557 206.517 140.884 206.517C141.246 206.517 141.568 206.457 141.849 206.336C142.134 206.213 142.356 206.042 142.517 205.825C142.68 205.604 142.762 205.349 142.762 205.058C142.762 204.811 142.698 204.605 142.57 204.44C142.442 204.272 142.264 204.131 142.034 204.017C141.807 203.903 141.543 203.803 141.242 203.715L140.372 203.46C139.802 203.289 139.359 203.054 139.044 202.753C138.729 202.452 138.572 202.069 138.572 201.602C138.572 201.212 138.676 200.868 138.884 200.572C139.095 200.274 139.379 200.042 139.736 199.876C140.096 199.708 140.5 199.624 140.947 199.624C141.4 199.624 141.8 199.707 142.148 199.873C142.496 200.039 142.772 200.267 142.975 200.558C143.181 200.847 143.291 201.176 143.305 201.545H142.663ZM144.962 200.324V199.727H150.236V200.324H147.931V207H147.267V200.324H144.962ZM152.131 207V199.727H154.478C154.994 199.727 155.425 199.821 155.771 200.008C156.119 200.192 156.38 200.449 156.556 200.778C156.733 201.105 156.822 201.48 156.822 201.904C156.822 202.328 156.733 202.702 156.556 203.026C156.38 203.351 156.12 203.604 155.774 203.786C155.429 203.969 155 204.06 154.489 204.06H152.49V203.452H154.471C154.85 203.452 155.165 203.39 155.416 203.264C155.669 203.139 155.857 202.96 155.98 202.728C156.106 202.496 156.169 202.221 156.169 201.904C156.169 201.587 156.106 201.31 155.98 201.073C155.855 200.834 155.666 200.649 155.412 200.519C155.161 200.389 154.844 200.324 154.46 200.324H152.795V207H152.131ZM155.338 203.719L157.127 207H156.36L154.588 203.719H155.338ZM158.85 207H158.154L160.8 199.727H161.51L164.156 207H163.46L161.18 200.59H161.13L158.85 207ZM159.351 204.212H162.959V204.809H159.351V204.212ZM161.155 199.276C160.89 199.276 160.664 199.184 160.477 198.999C160.292 198.812 160.2 198.586 160.2 198.321C160.2 198.143 160.242 197.982 160.327 197.838C160.413 197.694 160.528 197.579 160.672 197.494C160.819 197.408 160.98 197.366 161.155 197.366C161.332 197.366 161.493 197.408 161.638 197.494C161.782 197.579 161.897 197.694 161.982 197.838C162.068 197.982 162.11 198.143 162.11 198.321C162.11 198.496 162.068 198.657 161.982 198.804C161.897 198.948 161.782 199.063 161.638 199.148C161.493 199.234 161.332 199.276 161.155 199.276ZM161.155 198.861C161.306 198.861 161.433 198.809 161.535 198.705C161.639 198.598 161.691 198.47 161.691 198.321C161.691 198.17 161.639 198.042 161.535 197.938C161.433 197.833 161.306 197.781 161.155 197.781C161.003 197.781 160.876 197.835 160.771 197.941C160.67 198.045 160.619 198.172 160.619 198.321C160.619 198.473 160.67 198.6 160.771 198.705C160.876 198.809 161.003 198.861 161.155 198.861ZM165.802 207V199.727H166.466V206.403H169.932V207H165.802ZM172.491 199.727V207H171.827V199.727H172.491ZM180.489 199.727V207H179.842L175.546 200.91H175.489V207H174.825V199.727H175.467L179.779 205.825H179.835V199.727H180.489ZM187.854 202C187.788 201.759 187.691 201.532 187.563 201.322C187.435 201.109 187.277 200.923 187.087 200.764C186.9 200.603 186.684 200.478 186.437 200.388C186.194 200.298 185.921 200.253 185.621 200.253C185.147 200.253 184.723 200.376 184.349 200.622C183.975 200.868 183.679 201.223 183.462 201.688C183.246 202.152 183.138 202.71 183.138 203.364C183.138 204.015 183.247 204.572 183.465 205.036C183.683 205.5 183.981 205.857 184.36 206.105C184.741 206.351 185.177 206.474 185.667 206.474C186.114 206.474 186.51 206.375 186.853 206.176C187.196 205.977 187.464 205.693 187.655 205.324C187.85 204.955 187.944 204.515 187.94 204.006L188.153 204.074H185.823V203.477H188.586V204.074C188.586 204.694 188.46 205.23 188.209 205.683C187.958 206.135 187.614 206.484 187.176 206.73C186.738 206.976 186.235 207.099 185.667 207.099C185.032 207.099 184.477 206.947 184.001 206.641C183.525 206.334 183.155 205.9 182.89 205.342C182.627 204.781 182.496 204.121 182.496 203.364C182.496 202.793 182.571 202.278 182.723 201.819C182.874 201.36 183.089 200.967 183.366 200.64C183.645 200.313 183.975 200.063 184.356 199.891C184.738 199.715 185.159 199.628 185.621 199.628C186.018 199.628 186.382 199.691 186.711 199.816C187.042 199.942 187.333 200.114 187.584 200.335C187.838 200.552 188.045 200.804 188.206 201.091C188.369 201.375 188.479 201.678 188.536 202H187.854Z" fill="#747480"/>
<path d="M151.472 218.063C151.279 218.063 151.114 217.993 150.976 217.855C150.838 217.717 150.769 217.552 150.769 217.359C150.769 217.167 150.838 217.001 150.976 216.863C151.114 216.725 151.279 216.656 151.472 216.656C151.664 216.656 151.83 216.725 151.968 216.863C152.106 217.001 152.175 217.167 152.175 217.359C152.175 217.487 152.142 217.604 152.077 217.711C152.015 217.818 151.93 217.904 151.823 217.969C151.719 218.031 151.602 218.063 151.472 218.063ZM154.501 218.063C154.308 218.063 154.143 217.993 154.005 217.855C153.867 217.717 153.798 217.552 153.798 217.359C153.798 217.167 153.867 217.001 154.005 216.863C154.143 216.725 154.308 216.656 154.501 216.656C154.694 216.656 154.859 216.725 154.997 216.863C155.135 217.001 155.204 217.167 155.204 217.359C155.204 217.487 155.172 217.604 155.106 217.711C155.044 217.818 154.959 217.904 154.853 217.969C154.748 218.031 154.631 218.063 154.501 218.063ZM157.53 218.063C157.338 218.063 157.172 217.993 157.034 217.855C156.896 217.717 156.827 217.552 156.827 217.359C156.827 217.167 156.896 217.001 157.034 216.863C157.172 216.725 157.338 216.656 157.53 216.656C157.723 216.656 157.888 216.725 158.026 216.863C158.164 217.001 158.233 217.167 158.233 217.359C158.233 217.487 158.201 217.604 158.136 217.711C158.073 217.818 157.989 217.904 157.882 217.969C157.778 218.031 157.66 218.063 157.53 218.063Z" fill="#E4E4E4"/>
<path d="M136.372 71.1989C135.311 71.1989 134.367 71.0166 133.538 70.652C132.714 70.2827 132.063 69.776 131.585 69.1321C131.111 68.4834 130.868 67.7353 130.853 66.8878H133.95C133.969 67.2429 134.085 67.5554 134.298 67.8253C134.516 68.0904 134.805 68.2964 135.164 68.4432C135.524 68.59 135.929 68.6634 136.379 68.6634C136.848 68.6634 137.262 68.5805 137.622 68.4148C137.982 68.2491 138.263 68.0194 138.467 67.7259C138.671 67.4323 138.772 67.0937 138.772 66.7102C138.772 66.322 138.663 65.9787 138.446 65.6804C138.233 65.3774 137.925 65.1406 137.522 64.9702C137.125 64.7997 136.651 64.7145 136.102 64.7145H134.745V62.456H136.102C136.566 62.456 136.975 62.3755 137.331 62.2145C137.69 62.0535 137.97 61.831 138.169 61.5469C138.368 61.258 138.467 60.9219 138.467 60.5384C138.467 60.1738 138.379 59.8542 138.204 59.5795C138.034 59.3002 137.792 59.0824 137.48 58.9261C137.172 58.7699 136.812 58.6918 136.4 58.6918C135.984 58.6918 135.602 58.7675 135.257 58.919C134.911 59.0658 134.634 59.2765 134.426 59.5511C134.217 59.8258 134.106 60.1477 134.092 60.517H131.145C131.159 59.679 131.398 58.9403 131.862 58.3011C132.326 57.6619 132.951 57.1624 133.737 56.8026C134.528 56.438 135.42 56.2557 136.414 56.2557C137.418 56.2557 138.297 56.438 139.049 56.8026C139.802 57.1671 140.387 57.6596 140.804 58.2798C141.225 58.8954 141.433 59.5866 141.429 60.3537C141.433 61.1681 141.18 61.8475 140.669 62.392C140.162 62.9366 139.502 63.2822 138.687 63.429V63.5426C139.757 63.6799 140.572 64.0516 141.13 64.6577C141.694 65.259 141.973 66.0118 141.968 66.9162C141.973 67.7448 141.734 68.4811 141.251 69.125C140.773 69.7689 140.112 70.2756 139.27 70.6449C138.427 71.0142 137.461 71.1989 136.372 71.1989Z" fill="white"/>
<path d="M174.916 10.7584C174.128 10.6204 173.317 10.803 172.664 11.2655C172.012 11.7281 171.57 12.4322 171.439 13.2215L157.027 99.9157C156.757 101.54 157.847 103.079 159.469 103.363C175.82 106.225 191.034 113.757 203.253 125.041C204.467 126.163 206.36 126.091 207.486 124.879L267.2 60.6149C267.742 60.0308 268.03 59.2548 268 58.4581C267.969 57.6615 267.623 56.9097 267.037 56.3688C241.332 32.63 209.324 16.7821 174.916 10.7584Z" fill="#E7B918" stroke="#C18B00" stroke-width="6" stroke-linejoin="round"/>
<path d="M191.847 76.9091V73.0341L201.562 57.7273H204.903V63.0909H202.926L196.801 72.7841V72.9659H210.608V76.9091H191.847ZM203.017 81V75.7273L203.108 74.0114V57.7273H207.722V81H203.017Z" fill="white"/>
<path d="M147.14 139.26L144.44 136.575L142.325 138.69L145.01 141.375L147.14 139.26ZM143 147.75H138.5V150.75H143V147.75ZM156.5 132.825H153.5V137.25H156.5V132.825V132.825ZM167.675 138.69L165.56 136.575L162.875 139.26L164.99 141.375L167.675 138.69ZM162.86 159.24L165.545 161.94L167.66 159.825L164.96 157.14L162.86 159.24ZM167 147.75V150.75H171.5V147.75H167ZM155 140.25C150.035 140.25 146 144.285 146 149.25C146 154.215 150.035 158.25 155 158.25C159.965 158.25 164 154.215 164 149.25C164 144.285 159.965 140.25 155 140.25ZM153.5 165.675H156.5V161.25H153.5V165.675ZM142.325 159.81L144.44 161.925L147.125 159.225L145.01 157.11L142.325 159.81Z" fill="#FFD600"/>
</svg>
