<svg width="308" height="320" viewBox="0 0 308 320" fill="none" xmlns="http://www.w3.org/2000/svg">
<path d="M0 166C2.58068e-06 136.48 8.48419 107.583 24.4422 82.7487C40.4002 57.9144 63.1596 38.1899 90.0101 25.924L122.005 95.962C108.58 102.095 97.2001 111.957 89.2211 124.374C81.2421 136.791 77 151.24 77 166L0 166Z" fill="#AAE47C"/>
<path d="M63.5813 97V94.7841L68.7589 89.9901C69.1992 89.5639 69.5685 89.1804 69.8668 88.8395C70.1699 88.4986 70.3995 88.1648 70.5558 87.8381C70.712 87.5066 70.7901 87.1491 70.7901 86.7656C70.7901 86.3395 70.6931 85.9725 70.4989 85.6648C70.3048 85.3523 70.0397 85.1132 69.7035 84.9474C69.3673 84.777 68.9862 84.6918 68.56 84.6918C68.1149 84.6918 67.7267 84.7817 67.3952 84.9616C67.0638 85.1416 66.8081 85.3996 66.6282 85.7358C66.4483 86.072 66.3583 86.4721 66.3583 86.9361H63.4393C63.4393 85.9844 63.6547 85.1581 64.0856 84.4574C64.5165 83.7566 65.1201 83.2145 65.8967 82.831C66.6732 82.4474 67.5681 82.2557 68.5813 82.2557C69.623 82.2557 70.5297 82.4403 71.3015 82.8097C72.078 83.1742 72.6817 83.6809 73.1126 84.3295C73.5434 84.9782 73.7589 85.7216 73.7589 86.5597C73.7589 87.1089 73.65 87.651 73.4322 88.1861C73.2191 88.7211 72.8379 89.3153 72.2887 89.9688C71.7395 90.6174 70.9653 91.3963 69.9663 92.3054L67.8427 94.3864V94.4858H73.9506V97H63.5813Z" fill="white"/>
<path d="M25.1643 250.364C8.79239 225.362 0.0489677 196.137 0.000204995 166.251L77.0001 166.126C77.0245 181.068 81.3962 195.681 89.5822 208.182L25.1643 250.364Z" fill="#724BC3"/>
<path d="M89.0288 26.3764C109.042 17.0638 130.822 12.1623 152.895 12.004C174.968 11.8456 196.817 16.4342 216.961 25.4587C237.106 34.4832 255.075 47.7327 269.65 64.3092C284.226 80.8858 295.068 100.402 301.441 121.535L227.721 143.768C224.534 133.201 219.113 123.443 211.825 115.155C204.537 106.866 195.553 100.242 185.481 95.7293C175.409 91.2171 164.484 88.9228 153.448 89.002C142.411 89.0812 131.521 91.5319 121.514 96.1882L89.0288 26.3764Z" fill="#FFD600"/>
<path d="M255.8 281.554C239.237 296.145 219.731 307.006 198.604 313.399C177.477 319.792 155.222 321.569 133.348 318.609C111.474 315.649 90.4921 308.021 71.8239 296.242C53.1558 284.464 37.2379 268.81 25.149 250.341L89.5745 208.171C95.6189 217.405 103.578 225.232 112.912 231.121C122.246 237.011 132.737 240.824 143.674 242.304C154.611 243.785 165.738 242.896 176.302 239.7C186.866 236.503 196.619 231.073 204.9 223.777L255.8 281.554Z" fill="#E0362C"/>
<path d="M301.403 121.408C309.95 149.663 310.197 179.779 302.114 208.17C294.03 236.561 277.957 262.031 255.809 281.546L204.904 223.773C215.979 214.016 224.015 201.281 228.057 187.085C232.099 172.89 231.975 157.832 227.701 143.704L301.403 121.408Z" fill="#FF9831"/>
<path d="M43.7219 128.455V143H40.6467V131.374H40.5614L37.2305 133.462V130.734L40.8313 128.455H43.7219Z" fill="white"/>
<path d="M195.404 65.4432V63.0213L201.477 53.4545H203.565V56.8068H202.329L198.501 62.8651V62.9787H207.13V65.4432H195.404ZM202.386 68V64.7045L202.442 63.6321V53.4545H205.326V68H202.386Z" fill="white"/>
<path d="M249.601 105.199C248.597 105.199 247.702 105.014 246.916 104.645C246.135 104.276 245.515 103.767 245.055 103.118C244.596 102.469 244.357 101.726 244.338 100.888H247.321C247.354 101.451 247.591 101.908 248.031 102.259C248.472 102.609 248.995 102.784 249.601 102.784C250.084 102.784 250.51 102.678 250.879 102.464C251.253 102.247 251.545 101.946 251.753 101.562C251.966 101.174 252.072 100.729 252.072 100.227C252.072 99.7159 251.964 99.2661 251.746 98.8778C251.533 98.4896 251.237 98.1866 250.858 97.9688C250.479 97.7509 250.046 97.6397 249.558 97.6349C249.132 97.6349 248.718 97.7225 248.315 97.8977C247.918 98.0729 247.607 98.312 247.385 98.6151L244.651 98.125L245.339 90.4545H254.232V92.9688H247.875L247.499 96.6122H247.584C247.839 96.2524 248.225 95.9541 248.741 95.7173C249.258 95.4806 249.835 95.3622 250.474 95.3622C251.35 95.3622 252.132 95.5682 252.818 95.9801C253.505 96.392 254.047 96.9579 254.445 97.6776C254.842 98.3925 255.039 99.2164 255.034 100.149C255.039 101.129 254.812 102 254.352 102.763C253.898 103.52 253.261 104.117 252.442 104.553C251.627 104.983 250.68 105.199 249.601 105.199Z" fill="white"/>
<path d="M266.558 178.199C265.81 178.194 265.088 178.069 264.392 177.822C263.701 177.576 263.08 177.176 262.531 176.622C261.982 176.068 261.546 175.334 261.224 174.42C260.907 173.507 260.749 172.384 260.749 171.054C260.753 169.832 260.893 168.741 261.168 167.78C261.447 166.814 261.845 165.995 262.361 165.322C262.882 164.65 263.504 164.139 264.229 163.788C264.953 163.433 265.765 163.256 266.665 163.256C267.635 163.256 268.492 163.445 269.236 163.824C269.979 164.198 270.576 164.707 271.026 165.351C271.48 165.995 271.755 166.717 271.849 167.517H268.817C268.698 167.01 268.45 166.613 268.071 166.324C267.692 166.035 267.223 165.891 266.665 165.891C265.718 165.891 264.998 166.303 264.506 167.126C264.018 167.95 263.769 169.07 263.76 170.486H263.859C264.077 170.055 264.371 169.688 264.74 169.385C265.114 169.077 265.538 168.843 266.011 168.682C266.49 168.516 266.994 168.433 267.524 168.433C268.386 168.433 269.153 168.637 269.825 169.044C270.498 169.446 271.028 170 271.416 170.706C271.804 171.411 271.999 172.219 271.999 173.128C271.999 174.113 271.769 174.989 271.31 175.756C270.855 176.523 270.218 177.124 269.399 177.56C268.585 177.991 267.638 178.204 266.558 178.199ZM266.544 175.784C267.018 175.784 267.441 175.67 267.815 175.443C268.189 175.216 268.483 174.908 268.696 174.52C268.909 174.132 269.016 173.696 269.016 173.213C269.016 172.73 268.909 172.297 268.696 171.913C268.488 171.53 268.199 171.224 267.83 170.997C267.46 170.77 267.039 170.656 266.565 170.656C266.21 170.656 265.881 170.723 265.578 170.855C265.28 170.988 265.017 171.172 264.79 171.409C264.567 171.646 264.392 171.92 264.264 172.233C264.136 172.541 264.072 172.87 264.072 173.22C264.072 173.689 264.179 174.117 264.392 174.506C264.61 174.894 264.903 175.204 265.273 175.436C265.647 175.668 266.071 175.784 266.544 175.784Z" fill="white"/>
<path d="M247.86 232L253.89 220.068V219.969H246.865V217.455H257.071V220.004L251.034 232H247.86Z" fill="white"/>
<path d="M202.382 280.199C201.289 280.199 200.316 280.021 199.463 279.666C198.616 279.306 197.951 278.816 197.468 278.196C196.985 277.576 196.743 276.873 196.743 276.087C196.743 275.481 196.881 274.924 197.155 274.418C197.435 273.906 197.813 273.482 198.292 273.146C198.77 272.805 199.305 272.588 199.897 272.493V272.393C199.12 272.237 198.49 271.861 198.007 271.264C197.525 270.663 197.283 269.964 197.283 269.169C197.283 268.416 197.503 267.746 197.944 267.159C198.384 266.567 198.988 266.103 199.755 265.767C200.526 265.426 201.402 265.256 202.382 265.256C203.363 265.256 204.236 265.426 205.003 265.767C205.775 266.108 206.381 266.574 206.821 267.166C207.262 267.753 207.484 268.421 207.489 269.169C207.484 269.969 207.238 270.668 206.75 271.264C206.263 271.861 205.638 272.237 204.875 272.393V272.493C205.458 272.588 205.986 272.805 206.459 273.146C206.937 273.482 207.316 273.906 207.596 274.418C207.88 274.924 208.024 275.481 208.029 276.087C208.024 276.873 207.78 277.576 207.297 278.196C206.814 278.816 206.147 279.306 205.294 279.666C204.447 280.021 203.476 280.199 202.382 280.199ZM202.382 277.94C202.87 277.94 203.296 277.853 203.661 277.678C204.025 277.498 204.31 277.251 204.513 276.939C204.721 276.622 204.826 276.257 204.826 275.845C204.826 275.424 204.719 275.052 204.506 274.73C204.293 274.403 204.004 274.148 203.64 273.963C203.275 273.774 202.856 273.679 202.382 273.679C201.914 273.679 201.495 273.774 201.125 273.963C200.756 274.148 200.465 274.403 200.252 274.73C200.043 275.052 199.939 275.424 199.939 275.845C199.939 276.257 200.041 276.622 200.245 276.939C200.448 277.251 200.735 277.498 201.104 277.678C201.473 277.853 201.9 277.94 202.382 277.94ZM202.382 271.442C202.79 271.442 203.152 271.359 203.469 271.193C203.786 271.027 204.035 270.798 204.215 270.504C204.395 270.211 204.485 269.872 204.485 269.489C204.485 269.11 204.395 268.778 204.215 268.494C204.035 268.205 203.789 267.981 203.476 267.82C203.164 267.654 202.799 267.571 202.382 267.571C201.971 267.571 201.606 267.654 201.289 267.82C200.971 267.981 200.723 268.205 200.543 268.494C200.368 268.778 200.28 269.11 200.28 269.489C200.28 269.872 200.37 270.211 200.55 270.504C200.73 270.798 200.979 271.027 201.296 271.193C201.613 271.359 201.975 271.442 202.382 271.442Z" fill="white"/>
<path d="M142.239 275.256C142.987 275.256 143.706 275.381 144.398 275.632C145.094 275.883 145.714 276.283 146.259 276.832C146.808 277.382 147.241 278.111 147.558 279.02C147.88 279.924 148.044 281.035 148.048 282.351C148.048 283.587 147.909 284.69 147.629 285.661C147.355 286.626 146.959 287.448 146.443 288.125C145.927 288.802 145.304 289.318 144.575 289.673C143.846 290.024 143.032 290.199 142.132 290.199C141.161 290.199 140.304 290.012 139.561 289.638C138.818 289.259 138.219 288.745 137.764 288.097C137.314 287.443 137.042 286.709 136.947 285.895H139.98C140.098 286.425 140.347 286.837 140.726 287.131C141.105 287.42 141.573 287.564 142.132 287.564C143.079 287.564 143.799 287.152 144.291 286.328C144.784 285.5 145.032 284.366 145.037 282.926H144.938C144.72 283.352 144.426 283.719 144.057 284.027C143.688 284.33 143.264 284.564 142.786 284.73C142.312 284.896 141.808 284.979 141.273 284.979C140.416 284.979 139.651 284.777 138.979 284.375C138.306 283.973 137.776 283.419 137.388 282.713C137 282.008 136.805 281.203 136.805 280.298C136.801 279.323 137.026 278.454 137.48 277.692C137.935 276.929 138.569 276.333 139.384 275.902C140.203 275.466 141.154 275.251 142.239 275.256ZM142.26 277.67C141.782 277.67 141.356 277.784 140.982 278.011C140.612 278.239 140.319 278.544 140.101 278.928C139.888 279.311 139.784 279.74 139.788 280.213C139.788 280.691 139.893 281.122 140.101 281.506C140.314 281.884 140.603 282.187 140.967 282.415C141.337 282.637 141.758 282.749 142.232 282.749C142.587 282.749 142.916 282.682 143.219 282.55C143.522 282.417 143.785 282.235 144.007 282.003C144.234 281.766 144.412 281.494 144.54 281.186C144.668 280.878 144.732 280.552 144.732 280.206C144.727 279.747 144.618 279.325 144.405 278.942C144.192 278.558 143.898 278.25 143.524 278.018C143.15 277.786 142.729 277.67 142.26 277.67Z" fill="white"/>
<path d="M77.9524 250.455V265H74.8771V253.374H74.7919L71.4609 255.462V252.734L75.0618 250.455H77.9524ZM87.1126 265.32C85.891 265.315 84.8398 265.014 83.9592 264.418C83.0832 263.821 82.4085 262.957 81.935 261.825C81.4663 260.694 81.2343 259.332 81.239 257.741C81.239 256.155 81.4734 254.804 81.9421 253.686C82.4156 252.569 83.0903 251.719 83.9663 251.136C84.8469 250.549 85.8957 250.256 87.1126 250.256C88.3294 250.256 89.3758 250.549 90.2518 251.136C91.1325 251.723 91.8095 252.576 92.283 253.693C92.7565 254.806 92.9909 256.155 92.9862 257.741C92.9862 259.337 92.7494 260.701 92.2759 261.832C91.8072 262.964 91.1348 263.828 90.2589 264.425C89.3829 265.021 88.3342 265.32 87.1126 265.32ZM87.1126 262.77C87.9459 262.77 88.6112 262.351 89.1083 261.513C89.6055 260.675 89.8517 259.418 89.8469 257.741C89.8469 256.638 89.7333 255.72 89.506 254.986C89.2835 254.252 88.9663 253.7 88.5543 253.331C88.1471 252.962 87.6665 252.777 87.1126 252.777C86.284 252.777 85.6211 253.191 85.1239 254.02C84.6268 254.848 84.3758 256.089 84.3711 257.741C84.3711 258.859 84.4824 259.792 84.7049 260.54C84.9322 261.283 85.2518 261.842 85.6637 262.216C86.0756 262.585 86.5586 262.77 87.1126 262.77Z" fill="white"/>
<path d="M40.9368 193.455V208H37.8615V196.374H37.7763L34.4453 198.462V195.734L38.0462 193.455H40.9368ZM50.7219 193.455V208H47.6467V196.374H47.5614L44.2305 198.462V195.734L47.8313 193.455H50.7219Z" fill="white"/>
<path d="M114.056 172.364H116.635L120.09 180.795H120.226L123.681 172.364H126.26V184H124.238V176.006H124.13L120.914 183.966H119.402L116.187 175.989H116.079V184H114.056V172.364ZM139.594 178.182C139.594 179.436 139.359 180.509 138.889 181.403C138.423 182.294 137.787 182.975 136.98 183.449C136.177 183.922 135.266 184.159 134.247 184.159C133.228 184.159 132.315 183.922 131.508 183.449C130.705 182.972 130.069 182.288 129.599 181.398C129.133 180.504 128.9 179.432 128.9 178.182C128.9 176.928 129.133 175.856 129.599 174.966C130.069 174.072 130.705 173.388 131.508 172.915C132.315 172.441 133.228 172.205 134.247 172.205C135.266 172.205 136.177 172.441 136.98 172.915C137.787 173.388 138.423 174.072 138.889 174.966C139.359 175.856 139.594 176.928 139.594 178.182ZM137.474 178.182C137.474 177.299 137.336 176.555 137.059 175.949C136.787 175.339 136.408 174.879 135.923 174.568C135.438 174.254 134.88 174.097 134.247 174.097C133.614 174.097 133.056 174.254 132.571 174.568C132.086 174.879 131.705 175.339 131.429 175.949C131.156 176.555 131.02 177.299 131.02 178.182C131.02 179.064 131.156 179.811 131.429 180.42C131.705 181.027 132.086 181.487 132.571 181.801C133.056 182.112 133.614 182.267 134.247 182.267C134.88 182.267 135.438 182.112 135.923 181.801C136.408 181.487 136.787 181.027 137.059 180.42C137.336 179.811 137.474 179.064 137.474 178.182ZM146.17 184H142.226V172.364H146.249C147.405 172.364 148.397 172.597 149.226 173.062C150.06 173.525 150.7 174.189 151.147 175.057C151.594 175.924 151.817 176.962 151.817 178.17C151.817 179.383 151.592 180.424 151.141 181.295C150.694 182.167 150.048 182.835 149.204 183.301C148.363 183.767 147.351 184 146.17 184ZM144.334 182.176H146.067C146.878 182.176 147.554 182.028 148.096 181.733C148.637 181.434 149.045 180.989 149.317 180.398C149.59 179.803 149.726 179.061 149.726 178.17C149.726 177.28 149.59 176.542 149.317 175.955C149.045 175.364 148.641 174.922 148.107 174.631C147.577 174.335 146.918 174.188 146.13 174.188H144.334V182.176ZM154.46 184V172.364H162.028V174.131H156.568V177.29H161.636V179.057H156.568V182.233H162.074V184H154.46ZM164.819 184V172.364H169.183C170.077 172.364 170.827 172.519 171.433 172.83C172.042 173.14 172.503 173.576 172.813 174.136C173.128 174.693 173.285 175.343 173.285 176.085C173.285 176.831 173.126 177.479 172.808 178.028C172.493 178.574 172.029 178.996 171.416 179.295C170.802 179.591 170.048 179.739 169.154 179.739H166.046V177.989H168.87C169.393 177.989 169.821 177.917 170.154 177.773C170.488 177.625 170.734 177.411 170.893 177.131C171.056 176.847 171.137 176.498 171.137 176.085C171.137 175.672 171.056 175.32 170.893 175.028C170.73 174.733 170.482 174.509 170.149 174.358C169.815 174.203 169.385 174.125 168.859 174.125H166.927V184H164.819ZM170.83 178.727L173.711 184H171.359L168.529 178.727H170.83ZM177.36 184H175.11L179.206 172.364H181.808L185.911 184H183.661L180.553 174.75H180.462L177.36 184ZM177.433 179.438H183.57V181.131H177.433V179.438ZM186.166 174.131V172.364H195.45V174.131H191.853V184H189.762V174.131H186.166Z" fill="black"/>
<path d="M125.545 189.727H126.209V194.543C126.209 195.037 126.093 195.48 125.861 195.871C125.629 196.259 125.306 196.566 124.891 196.79C124.479 197.013 124 197.124 123.453 197.124C122.909 197.124 122.429 197.012 122.015 196.787C121.601 196.562 121.277 196.255 121.045 195.867C120.813 195.479 120.697 195.037 120.697 194.543V189.727H121.361V194.496C121.361 194.882 121.448 195.227 121.621 195.53C121.793 195.83 122.036 196.067 122.349 196.24C122.664 196.413 123.032 196.499 123.453 196.499C123.874 196.499 124.243 196.413 124.557 196.24C124.872 196.067 125.115 195.83 125.285 195.53C125.458 195.227 125.545 194.882 125.545 194.496V189.727ZM128.549 189.727L130.822 196.137H130.886L133.159 189.727H133.855L131.209 197H130.499L127.853 189.727H128.549ZM142.663 191.545C142.622 191.141 142.444 190.819 142.126 190.58C141.809 190.34 141.41 190.221 140.93 190.221C140.591 190.221 140.293 190.279 140.035 190.395C139.779 190.511 139.578 190.672 139.431 190.878C139.287 191.081 139.214 191.313 139.214 191.574C139.214 191.766 139.256 191.934 139.339 192.078C139.422 192.223 139.533 192.347 139.673 192.451C139.815 192.553 139.971 192.64 140.141 192.714C140.314 192.787 140.488 192.849 140.663 192.898L141.43 193.119C141.662 193.183 141.894 193.264 142.126 193.364C142.358 193.463 142.57 193.589 142.762 193.74C142.956 193.889 143.111 194.073 143.227 194.29C143.346 194.506 143.405 194.765 143.405 195.068C143.405 195.456 143.304 195.806 143.103 196.116C142.902 196.426 142.613 196.672 142.236 196.854C141.86 197.034 141.409 197.124 140.884 197.124C140.389 197.124 139.959 197.043 139.594 196.879C139.23 196.714 138.943 196.485 138.735 196.194C138.527 195.903 138.41 195.565 138.384 195.182H139.065C139.089 195.468 139.184 195.711 139.349 195.91C139.515 196.109 139.731 196.26 139.996 196.364C140.261 196.466 140.557 196.517 140.884 196.517C141.246 196.517 141.568 196.457 141.849 196.336C142.134 196.213 142.356 196.042 142.517 195.825C142.68 195.604 142.762 195.349 142.762 195.058C142.762 194.811 142.698 194.605 142.57 194.44C142.442 194.272 142.264 194.131 142.034 194.017C141.807 193.903 141.543 193.803 141.242 193.715L140.372 193.46C139.802 193.289 139.359 193.054 139.044 192.753C138.729 192.452 138.572 192.069 138.572 191.602C138.572 191.212 138.676 190.868 138.884 190.572C139.095 190.274 139.379 190.042 139.736 189.876C140.096 189.708 140.5 189.624 140.947 189.624C141.4 189.624 141.8 189.707 142.148 189.873C142.496 190.039 142.772 190.267 142.975 190.558C143.181 190.847 143.291 191.176 143.305 191.545H142.663ZM144.962 190.324V189.727H150.236V190.324H147.931V197H147.267V190.324H144.962ZM152.131 197V189.727H154.478C154.994 189.727 155.425 189.821 155.771 190.008C156.119 190.192 156.38 190.449 156.556 190.778C156.733 191.105 156.822 191.48 156.822 191.904C156.822 192.328 156.733 192.702 156.556 193.026C156.38 193.351 156.12 193.604 155.774 193.786C155.429 193.969 155 194.06 154.489 194.06H152.49V193.452H154.471C154.85 193.452 155.165 193.39 155.416 193.264C155.669 193.139 155.857 192.96 155.98 192.728C156.106 192.496 156.169 192.221 156.169 191.904C156.169 191.587 156.106 191.31 155.98 191.073C155.855 190.834 155.666 190.649 155.412 190.519C155.161 190.389 154.844 190.324 154.46 190.324H152.795V197H152.131ZM155.338 193.719L157.127 197H156.36L154.588 193.719H155.338ZM158.85 197H158.154L160.8 189.727H161.51L164.156 197H163.46L161.18 190.59H161.13L158.85 197ZM159.351 194.212H162.959V194.809H159.351V194.212ZM161.155 189.276C160.89 189.276 160.664 189.184 160.477 188.999C160.292 188.812 160.2 188.586 160.2 188.321C160.2 188.143 160.242 187.982 160.327 187.838C160.413 187.694 160.528 187.579 160.672 187.494C160.819 187.408 160.98 187.366 161.155 187.366C161.332 187.366 161.493 187.408 161.638 187.494C161.782 187.579 161.897 187.694 161.982 187.838C162.068 187.982 162.11 188.143 162.11 188.321C162.11 188.496 162.068 188.657 161.982 188.804C161.897 188.948 161.782 189.063 161.638 189.148C161.493 189.234 161.332 189.276 161.155 189.276ZM161.155 188.861C161.306 188.861 161.433 188.809 161.535 188.705C161.639 188.598 161.691 188.47 161.691 188.321C161.691 188.17 161.639 188.042 161.535 187.938C161.433 187.833 161.306 187.781 161.155 187.781C161.003 187.781 160.876 187.835 160.771 187.941C160.67 188.045 160.619 188.172 160.619 188.321C160.619 188.473 160.67 188.6 160.771 188.705C160.876 188.809 161.003 188.861 161.155 188.861ZM165.802 197V189.727H166.466V196.403H169.932V197H165.802ZM172.491 189.727V197H171.827V189.727H172.491ZM180.489 189.727V197H179.842L175.546 190.91H175.489V197H174.825V189.727H175.467L179.779 195.825H179.835V189.727H180.489ZM187.854 192C187.788 191.759 187.691 191.532 187.563 191.322C187.435 191.109 187.277 190.923 187.087 190.764C186.9 190.603 186.684 190.478 186.437 190.388C186.194 190.298 185.921 190.253 185.621 190.253C185.147 190.253 184.723 190.376 184.349 190.622C183.975 190.868 183.679 191.223 183.462 191.688C183.246 192.152 183.138 192.71 183.138 193.364C183.138 194.015 183.247 194.572 183.465 195.036C183.683 195.5 183.981 195.857 184.36 196.105C184.741 196.351 185.177 196.474 185.667 196.474C186.114 196.474 186.51 196.375 186.853 196.176C187.196 195.977 187.464 195.693 187.655 195.324C187.85 194.955 187.944 194.515 187.94 194.006L188.153 194.074H185.823V193.477H188.586V194.074C188.586 194.694 188.46 195.23 188.209 195.683C187.958 196.135 187.614 196.484 187.176 196.73C186.738 196.976 186.235 197.099 185.667 197.099C185.032 197.099 184.477 196.947 184.001 196.641C183.525 196.334 183.155 195.9 182.89 195.342C182.627 194.781 182.496 194.121 182.496 193.364C182.496 192.793 182.571 192.278 182.723 191.819C182.874 191.36 183.089 190.967 183.366 190.64C183.645 190.313 183.975 190.063 184.356 189.891C184.738 189.715 185.159 189.628 185.621 189.628C186.018 189.628 186.382 189.691 186.711 189.816C187.042 189.942 187.333 190.114 187.584 190.335C187.838 190.552 188.045 190.804 188.206 191.091C188.369 191.375 188.479 191.678 188.536 192H187.854Z" fill="#747480"/>
<path d="M151.472 208.063C151.279 208.063 151.114 207.993 150.976 207.855C150.838 207.717 150.769 207.552 150.769 207.359C150.769 207.167 150.838 207.001 150.976 206.863C151.114 206.725 151.279 206.656 151.472 206.656C151.664 206.656 151.83 206.725 151.968 206.863C152.106 207.001 152.175 207.167 152.175 207.359C152.175 207.487 152.142 207.604 152.077 207.711C152.015 207.818 151.93 207.904 151.823 207.969C151.719 208.031 151.602 208.063 151.472 208.063ZM154.501 208.063C154.308 208.063 154.143 207.993 154.005 207.855C153.867 207.717 153.798 207.552 153.798 207.359C153.798 207.167 153.867 207.001 154.005 206.863C154.143 206.725 154.308 206.656 154.501 206.656C154.694 206.656 154.859 206.725 154.997 206.863C155.135 207.001 155.204 207.167 155.204 207.359C155.204 207.487 155.172 207.604 155.106 207.711C155.044 207.818 154.959 207.904 154.853 207.969C154.748 208.031 154.631 208.063 154.501 208.063ZM157.53 208.063C157.338 208.063 157.172 207.993 157.034 207.855C156.896 207.717 156.827 207.552 156.827 207.359C156.827 207.167 156.896 207.001 157.034 206.863C157.172 206.725 157.338 206.656 157.53 206.656C157.723 206.656 157.888 206.725 158.026 206.863C158.164 207.001 158.233 207.167 158.233 207.359C158.233 207.487 158.201 207.604 158.136 207.711C158.073 207.818 157.989 207.904 157.882 207.969C157.778 208.031 157.66 208.063 157.53 208.063Z" fill="#E4E4E4"/>
<path d="M80.7382 19.866C80.0123 20.2026 79.4509 20.8151 79.1788 21.5675C78.9067 22.32 78.9465 23.1499 79.2892 23.8729L116.936 103.285C117.642 104.773 119.415 105.414 120.909 104.722C135.969 97.7397 152.76 95.2411 169.234 97.5325C170.871 97.7602 172.384 96.6203 172.617 94.9835L184.97 8.13233C185.082 7.34303 184.876 6.5415 184.396 5.90473C183.916 5.26797 183.203 4.84834 182.413 4.7385C147.757 -0.0820074 112.429 5.17346 80.7382 19.866Z" fill="#E7B918" stroke="#C18B00" stroke-width="6" stroke-linejoin="round"/>
<path d="M135.395 65.3182C133.698 65.3182 132.187 65.0265 130.861 64.4432C129.543 63.8523 128.501 63.0417 127.736 62.0114C126.978 60.9735 126.588 59.7765 126.565 58.4205H131.52C131.55 58.9886 131.736 59.4886 132.077 59.9205C132.425 60.3447 132.887 60.6742 133.463 60.9091C134.039 61.1439 134.687 61.2614 135.406 61.2614C136.156 61.2614 136.819 61.1288 137.395 60.8636C137.971 60.5985 138.421 60.2311 138.747 59.7614C139.073 59.2917 139.236 58.75 139.236 58.1364C139.236 57.5152 139.062 56.9659 138.713 56.4886C138.372 56.0038 137.88 55.625 137.236 55.3523C136.599 55.0795 135.842 54.9432 134.963 54.9432H132.793V51.3295H134.963C135.705 51.3295 136.361 51.2008 136.929 50.9432C137.505 50.6856 137.952 50.3295 138.27 49.875C138.588 49.4129 138.747 48.875 138.747 48.2614C138.747 47.678 138.607 47.1667 138.327 46.7273C138.054 46.2803 137.668 45.9318 137.168 45.6818C136.675 45.4318 136.099 45.3068 135.44 45.3068C134.774 45.3068 134.164 45.428 133.611 45.6705C133.058 45.9053 132.615 46.2424 132.281 46.6818C131.948 47.1212 131.77 47.6364 131.747 48.2273H127.031C127.054 46.8864 127.437 45.7045 128.179 44.6818C128.921 43.6591 129.921 42.8598 131.179 42.2841C132.444 41.7008 133.872 41.4091 135.463 41.4091C137.069 41.4091 138.474 41.7008 139.679 42.2841C140.884 42.8674 141.819 43.6553 142.486 44.6477C143.16 45.6326 143.493 46.7386 143.486 47.9659C143.493 49.2689 143.088 50.3561 142.27 51.2273C141.459 52.0985 140.402 52.6515 139.099 52.8864V53.0682C140.812 53.2879 142.115 53.8826 143.009 54.8523C143.91 55.8144 144.357 57.0189 144.349 58.4659C144.357 59.7917 143.974 60.9697 143.202 62C142.437 63.0303 141.38 63.8409 140.031 64.4318C138.683 65.0227 137.137 65.3182 135.395 65.3182Z" fill="white"/>
<path d="M146.14 129.26L143.44 126.575L141.325 128.69L144.01 131.375L146.14 129.26ZM142 137.75H137.5V140.75H142V137.75ZM155.5 122.825H152.5V127.25H155.5V122.825V122.825ZM166.675 128.69L164.56 126.575L161.875 129.26L163.99 131.375L166.675 128.69ZM161.86 149.24L164.545 151.94L166.66 149.825L163.96 147.14L161.86 149.24ZM166 137.75V140.75H170.5V137.75H166ZM154 130.25C149.035 130.25 145 134.285 145 139.25C145 144.215 149.035 148.25 154 148.25C158.965 148.25 163 144.215 163 139.25C163 134.285 158.965 130.25 154 130.25ZM152.5 155.675H155.5V151.25H152.5V155.675ZM141.325 149.81L143.44 151.925L146.125 149.225L144.01 147.11L141.325 149.81Z" fill="#FFD600"/>
</svg>
