<svg width="314" height="308" viewBox="0 0 314 308" fill="none" xmlns="http://www.w3.org/2000/svg">
<path d="M0 154C2.58068e-06 124.48 8.48419 95.583 24.4422 70.7487C40.4002 45.9144 63.1596 26.1899 90.0101 13.924L122.005 83.962C108.58 90.0949 97.2001 99.9572 89.2211 112.374C81.2421 124.791 77 139.24 77 154L0 154Z" fill="#AAE47C"/>
<path d="M63.5813 80V77.7841L68.7589 72.9901C69.1992 72.5639 69.5685 72.1804 69.8668 71.8395C70.1699 71.4986 70.3995 71.1648 70.5558 70.8381C70.712 70.5066 70.7901 70.1491 70.7901 69.7656C70.7901 69.3395 70.6931 68.9725 70.4989 68.6648C70.3048 68.3523 70.0397 68.1132 69.7035 67.9474C69.3673 67.777 68.9862 67.6918 68.56 67.6918C68.1149 67.6918 67.7267 67.7817 67.3952 67.9616C67.0638 68.1416 66.8081 68.3996 66.6282 68.7358C66.4483 69.072 66.3583 69.4721 66.3583 69.9361H63.4393C63.4393 68.9844 63.6547 68.1581 64.0856 67.4574C64.5165 66.7566 65.1201 66.2145 65.8967 65.831C66.6732 65.4474 67.5681 65.2557 68.5813 65.2557C69.623 65.2557 70.5297 65.4403 71.3015 65.8097C72.078 66.1742 72.6817 66.6809 73.1126 67.3295C73.5434 67.9782 73.7589 68.7216 73.7589 69.5597C73.7589 70.1089 73.65 70.651 73.4322 71.1861C73.2191 71.7211 72.8379 72.3153 72.2887 72.9688C71.7395 73.6174 70.9653 74.3963 69.9663 75.3054L67.8427 77.3864V77.4858H73.9506V80H63.5813Z" fill="white"/>
<path d="M25.1643 238.364C8.79239 213.362 0.0489677 184.137 0.000204995 154.251L77.0001 154.126C77.0245 169.068 81.3962 183.681 89.5822 196.182L25.1643 238.364Z" fill="#724BC3"/>
<path d="M89.0288 14.3764C109.042 5.06385 130.822 0.162305 152.895 0.00396236C174.968 -0.15438 196.817 4.43418 216.961 13.4587C237.106 22.4832 255.075 35.7327 269.65 52.3092C284.226 68.8858 295.068 88.4021 301.441 109.535L227.721 131.768C224.534 121.201 219.113 111.443 211.825 103.155C204.537 94.8663 195.553 88.2416 185.481 83.7293C175.409 79.2171 164.484 76.9228 153.448 77.002C142.411 77.0812 131.521 79.5319 121.514 84.1882L89.0288 14.3764Z" fill="#FFD600"/>
<path d="M255.8 269.554C239.237 284.145 219.731 295.006 198.604 301.399C177.477 307.792 155.222 309.569 133.348 306.609C111.474 303.649 90.4921 296.021 71.8239 284.242C53.1558 272.464 37.2379 256.81 25.149 238.341L89.5745 196.171C95.6189 205.405 103.578 213.232 112.912 219.121C122.246 225.011 132.737 228.824 143.674 230.304C154.611 231.785 165.738 230.896 176.302 227.7C186.866 224.503 196.619 219.073 204.9 211.777L255.8 269.554Z" fill="#E0362C"/>
<path d="M301.403 109.408C309.95 137.663 310.197 167.779 302.114 196.17C294.03 224.561 277.957 250.031 255.809 269.546L204.904 211.773C215.979 202.016 224.015 189.281 228.057 175.085C232.099 160.89 231.975 145.832 227.701 131.704L301.403 109.408Z" fill="#FF9831"/>
<path d="M43.7219 116.455V131H40.6467V119.374H40.5614L37.2305 121.462V118.734L40.8313 116.455H43.7219Z" fill="white"/>
<path d="M266.558 166.199C265.81 166.194 265.088 166.069 264.392 165.822C263.701 165.576 263.08 165.176 262.531 164.622C261.982 164.068 261.546 163.334 261.224 162.42C260.907 161.507 260.749 160.384 260.749 159.054C260.753 157.832 260.893 156.741 261.168 155.78C261.447 154.814 261.845 153.995 262.361 153.322C262.882 152.65 263.504 152.139 264.229 151.788C264.953 151.433 265.765 151.256 266.665 151.256C267.635 151.256 268.492 151.445 269.236 151.824C269.979 152.198 270.576 152.707 271.026 153.351C271.48 153.995 271.755 154.717 271.849 155.517H268.817C268.698 155.01 268.45 154.613 268.071 154.324C267.692 154.035 267.223 153.891 266.665 153.891C265.718 153.891 264.998 154.303 264.506 155.126C264.018 155.95 263.769 157.07 263.76 158.486H263.859C264.077 158.055 264.371 157.688 264.74 157.385C265.114 157.077 265.538 156.843 266.011 156.682C266.49 156.516 266.994 156.433 267.524 156.433C268.386 156.433 269.153 156.637 269.825 157.044C270.498 157.446 271.028 158 271.416 158.706C271.804 159.411 271.999 160.219 271.999 161.128C271.999 162.113 271.769 162.989 271.31 163.756C270.855 164.523 270.218 165.124 269.399 165.56C268.585 165.991 267.638 166.204 266.558 166.199ZM266.544 163.784C267.018 163.784 267.441 163.67 267.815 163.443C268.189 163.216 268.483 162.908 268.696 162.52C268.909 162.132 269.016 161.696 269.016 161.213C269.016 160.73 268.909 160.297 268.696 159.913C268.488 159.53 268.199 159.224 267.83 158.997C267.46 158.77 267.039 158.656 266.565 158.656C266.21 158.656 265.881 158.723 265.578 158.855C265.28 158.988 265.017 159.172 264.79 159.409C264.567 159.646 264.392 159.92 264.264 160.233C264.136 160.541 264.072 160.87 264.072 161.22C264.072 161.689 264.179 162.117 264.392 162.506C264.61 162.894 264.903 163.204 265.273 163.436C265.647 163.668 266.071 163.784 266.544 163.784Z" fill="white"/>
<path d="M247.86 220L253.89 208.068V207.969H246.865V205.455H257.071V208.004L251.034 220H247.86Z" fill="white"/>
<path d="M202.382 268.199C201.289 268.199 200.316 268.021 199.463 267.666C198.616 267.306 197.951 266.816 197.468 266.196C196.985 265.576 196.743 264.873 196.743 264.087C196.743 263.481 196.881 262.924 197.155 262.418C197.435 261.906 197.813 261.482 198.292 261.146C198.77 260.805 199.305 260.588 199.897 260.493V260.393C199.12 260.237 198.49 259.861 198.007 259.264C197.525 258.663 197.283 257.964 197.283 257.169C197.283 256.416 197.503 255.746 197.944 255.159C198.384 254.567 198.988 254.103 199.755 253.767C200.526 253.426 201.402 253.256 202.382 253.256C203.363 253.256 204.236 253.426 205.003 253.767C205.775 254.108 206.381 254.574 206.821 255.166C207.262 255.753 207.484 256.421 207.489 257.169C207.484 257.969 207.238 258.668 206.75 259.264C206.263 259.861 205.638 260.237 204.875 260.393V260.493C205.458 260.588 205.986 260.805 206.459 261.146C206.937 261.482 207.316 261.906 207.596 262.418C207.88 262.924 208.024 263.481 208.029 264.087C208.024 264.873 207.78 265.576 207.297 266.196C206.814 266.816 206.147 267.306 205.294 267.666C204.447 268.021 203.476 268.199 202.382 268.199ZM202.382 265.94C202.87 265.94 203.296 265.853 203.661 265.678C204.025 265.498 204.31 265.251 204.513 264.939C204.721 264.622 204.826 264.257 204.826 263.845C204.826 263.424 204.719 263.052 204.506 262.73C204.293 262.403 204.004 262.148 203.64 261.963C203.275 261.774 202.856 261.679 202.382 261.679C201.914 261.679 201.495 261.774 201.125 261.963C200.756 262.148 200.465 262.403 200.252 262.73C200.043 263.052 199.939 263.424 199.939 263.845C199.939 264.257 200.041 264.622 200.245 264.939C200.448 265.251 200.735 265.498 201.104 265.678C201.473 265.853 201.9 265.94 202.382 265.94ZM202.382 259.442C202.79 259.442 203.152 259.359 203.469 259.193C203.786 259.027 204.035 258.798 204.215 258.504C204.395 258.211 204.485 257.872 204.485 257.489C204.485 257.11 204.395 256.778 204.215 256.494C204.035 256.205 203.789 255.981 203.476 255.82C203.164 255.654 202.799 255.571 202.382 255.571C201.971 255.571 201.606 255.654 201.289 255.82C200.971 255.981 200.723 256.205 200.543 256.494C200.368 256.778 200.28 257.11 200.28 257.489C200.28 257.872 200.37 258.211 200.55 258.504C200.73 258.798 200.979 259.027 201.296 259.193C201.613 259.359 201.975 259.442 202.382 259.442Z" fill="white"/>
<path d="M142.239 263.256C142.987 263.256 143.706 263.381 144.398 263.632C145.094 263.883 145.714 264.283 146.259 264.832C146.808 265.382 147.241 266.111 147.558 267.02C147.88 267.924 148.044 269.035 148.048 270.351C148.048 271.587 147.909 272.69 147.629 273.661C147.355 274.626 146.959 275.448 146.443 276.125C145.927 276.802 145.304 277.318 144.575 277.673C143.846 278.024 143.032 278.199 142.132 278.199C141.161 278.199 140.304 278.012 139.561 277.638C138.818 277.259 138.219 276.745 137.764 276.097C137.314 275.443 137.042 274.709 136.947 273.895H139.98C140.098 274.425 140.347 274.837 140.726 275.131C141.105 275.42 141.573 275.564 142.132 275.564C143.079 275.564 143.799 275.152 144.291 274.328C144.784 273.5 145.032 272.366 145.037 270.926H144.938C144.72 271.352 144.426 271.719 144.057 272.027C143.688 272.33 143.264 272.564 142.786 272.73C142.312 272.896 141.808 272.979 141.273 272.979C140.416 272.979 139.651 272.777 138.979 272.375C138.306 271.973 137.776 271.419 137.388 270.713C137 270.008 136.805 269.203 136.805 268.298C136.801 267.323 137.026 266.454 137.48 265.692C137.935 264.929 138.569 264.333 139.384 263.902C140.203 263.466 141.154 263.251 142.239 263.256ZM142.26 265.67C141.782 265.67 141.356 265.784 140.982 266.011C140.612 266.239 140.319 266.544 140.101 266.928C139.888 267.311 139.784 267.74 139.788 268.213C139.788 268.691 139.893 269.122 140.101 269.506C140.314 269.884 140.603 270.187 140.967 270.415C141.337 270.637 141.758 270.749 142.232 270.749C142.587 270.749 142.916 270.682 143.219 270.55C143.522 270.417 143.785 270.235 144.007 270.003C144.234 269.766 144.412 269.494 144.54 269.186C144.668 268.878 144.732 268.552 144.732 268.206C144.727 267.747 144.618 267.325 144.405 266.942C144.192 266.558 143.898 266.25 143.524 266.018C143.15 265.786 142.729 265.67 142.26 265.67Z" fill="white"/>
<path d="M77.9524 238.455V253H74.8771V241.374H74.7919L71.4609 243.462V240.734L75.0618 238.455H77.9524ZM87.1126 253.32C85.891 253.315 84.8398 253.014 83.9592 252.418C83.0832 251.821 82.4085 250.957 81.935 249.825C81.4663 248.694 81.2343 247.332 81.239 245.741C81.239 244.155 81.4734 242.804 81.9421 241.686C82.4156 240.569 83.0903 239.719 83.9663 239.136C84.8469 238.549 85.8957 238.256 87.1126 238.256C88.3294 238.256 89.3758 238.549 90.2518 239.136C91.1325 239.723 91.8095 240.576 92.283 241.693C92.7565 242.806 92.9909 244.155 92.9862 245.741C92.9862 247.337 92.7494 248.701 92.2759 249.832C91.8072 250.964 91.1348 251.828 90.2589 252.425C89.3829 253.021 88.3342 253.32 87.1126 253.32ZM87.1126 250.77C87.9459 250.77 88.6112 250.351 89.1083 249.513C89.6055 248.675 89.8517 247.418 89.8469 245.741C89.8469 244.638 89.7333 243.72 89.506 242.986C89.2835 242.252 88.9663 241.7 88.5543 241.331C88.1471 240.962 87.6665 240.777 87.1126 240.777C86.284 240.777 85.6211 241.191 85.1239 242.02C84.6268 242.848 84.3758 244.089 84.3711 245.741C84.3711 246.859 84.4824 247.792 84.7049 248.54C84.9322 249.283 85.2518 249.842 85.6637 250.216C86.0756 250.585 86.5586 250.77 87.1126 250.77Z" fill="white"/>
<path d="M40.9368 181.455V196H37.8615V184.374H37.7763L34.4453 186.462V183.734L38.0462 181.455H40.9368ZM50.7219 181.455V196H47.6467V184.374H47.5614L44.2305 186.462V183.734L47.8313 181.455H50.7219Z" fill="white"/>
<path d="M114.056 163.364H116.635L120.09 171.795H120.226L123.681 163.364H126.26V175H124.238V167.006H124.13L120.914 174.966H119.402L116.187 166.989H116.079V175H114.056V163.364ZM139.594 169.182C139.594 170.436 139.359 171.509 138.889 172.403C138.423 173.294 137.787 173.975 136.98 174.449C136.177 174.922 135.266 175.159 134.247 175.159C133.228 175.159 132.315 174.922 131.508 174.449C130.705 173.972 130.069 173.288 129.599 172.398C129.133 171.504 128.9 170.432 128.9 169.182C128.9 167.928 129.133 166.856 129.599 165.966C130.069 165.072 130.705 164.388 131.508 163.915C132.315 163.441 133.228 163.205 134.247 163.205C135.266 163.205 136.177 163.441 136.98 163.915C137.787 164.388 138.423 165.072 138.889 165.966C139.359 166.856 139.594 167.928 139.594 169.182ZM137.474 169.182C137.474 168.299 137.336 167.555 137.059 166.949C136.787 166.339 136.408 165.879 135.923 165.568C135.438 165.254 134.88 165.097 134.247 165.097C133.614 165.097 133.056 165.254 132.571 165.568C132.086 165.879 131.705 166.339 131.429 166.949C131.156 167.555 131.02 168.299 131.02 169.182C131.02 170.064 131.156 170.811 131.429 171.42C131.705 172.027 132.086 172.487 132.571 172.801C133.056 173.112 133.614 173.267 134.247 173.267C134.88 173.267 135.438 173.112 135.923 172.801C136.408 172.487 136.787 172.027 137.059 171.42C137.336 170.811 137.474 170.064 137.474 169.182ZM146.17 175H142.226V163.364H146.249C147.405 163.364 148.397 163.597 149.226 164.062C150.06 164.525 150.7 165.189 151.147 166.057C151.594 166.924 151.817 167.962 151.817 169.17C151.817 170.383 151.592 171.424 151.141 172.295C150.694 173.167 150.048 173.835 149.204 174.301C148.363 174.767 147.351 175 146.17 175ZM144.334 173.176H146.067C146.878 173.176 147.554 173.028 148.096 172.733C148.637 172.434 149.045 171.989 149.317 171.398C149.59 170.803 149.726 170.061 149.726 169.17C149.726 168.28 149.59 167.542 149.317 166.955C149.045 166.364 148.641 165.922 148.107 165.631C147.577 165.335 146.918 165.188 146.13 165.188H144.334V173.176ZM154.46 175V163.364H162.028V165.131H156.568V168.29H161.636V170.057H156.568V173.233H162.074V175H154.46ZM164.819 175V163.364H169.183C170.077 163.364 170.827 163.519 171.433 163.83C172.042 164.14 172.503 164.576 172.813 165.136C173.128 165.693 173.285 166.343 173.285 167.085C173.285 167.831 173.126 168.479 172.808 169.028C172.493 169.574 172.029 169.996 171.416 170.295C170.802 170.591 170.048 170.739 169.154 170.739H166.046V168.989H168.87C169.393 168.989 169.821 168.917 170.154 168.773C170.488 168.625 170.734 168.411 170.893 168.131C171.056 167.847 171.137 167.498 171.137 167.085C171.137 166.672 171.056 166.32 170.893 166.028C170.73 165.733 170.482 165.509 170.149 165.358C169.815 165.203 169.385 165.125 168.859 165.125H166.927V175H164.819ZM170.83 169.727L173.711 175H171.359L168.529 169.727H170.83ZM177.36 175H175.11L179.206 163.364H181.808L185.911 175H183.661L180.553 165.75H180.462L177.36 175ZM177.433 170.438H183.57V172.131H177.433V170.438ZM186.166 165.131V163.364H195.45V165.131H191.853V175H189.762V165.131H186.166Z" fill="black"/>
<path d="M125.545 180.727H126.209V185.543C126.209 186.037 126.093 186.48 125.861 186.871C125.629 187.259 125.306 187.566 124.891 187.79C124.479 188.013 124 188.124 123.453 188.124C122.909 188.124 122.429 188.012 122.015 187.787C121.601 187.562 121.277 187.255 121.045 186.867C120.813 186.479 120.697 186.037 120.697 185.543V180.727H121.361V185.496C121.361 185.882 121.448 186.227 121.621 186.53C121.793 186.83 122.036 187.067 122.349 187.24C122.664 187.413 123.032 187.499 123.453 187.499C123.874 187.499 124.243 187.413 124.557 187.24C124.872 187.067 125.115 186.83 125.285 186.53C125.458 186.227 125.545 185.882 125.545 185.496V180.727ZM128.549 180.727L130.822 187.137H130.886L133.159 180.727H133.855L131.209 188H130.499L127.853 180.727H128.549ZM142.663 182.545C142.622 182.141 142.444 181.819 142.126 181.58C141.809 181.34 141.41 181.221 140.93 181.221C140.591 181.221 140.293 181.279 140.035 181.395C139.779 181.511 139.578 181.672 139.431 181.878C139.287 182.081 139.214 182.313 139.214 182.574C139.214 182.766 139.256 182.934 139.339 183.078C139.422 183.223 139.533 183.347 139.673 183.451C139.815 183.553 139.971 183.64 140.141 183.714C140.314 183.787 140.488 183.849 140.663 183.898L141.43 184.119C141.662 184.183 141.894 184.264 142.126 184.364C142.358 184.463 142.57 184.589 142.762 184.74C142.956 184.889 143.111 185.073 143.227 185.29C143.346 185.506 143.405 185.765 143.405 186.068C143.405 186.456 143.304 186.806 143.103 187.116C142.902 187.426 142.613 187.672 142.236 187.854C141.86 188.034 141.409 188.124 140.884 188.124C140.389 188.124 139.959 188.043 139.594 187.879C139.23 187.714 138.943 187.485 138.735 187.194C138.527 186.903 138.41 186.565 138.384 186.182H139.065C139.089 186.468 139.184 186.711 139.349 186.91C139.515 187.109 139.731 187.26 139.996 187.364C140.261 187.466 140.557 187.517 140.884 187.517C141.246 187.517 141.568 187.457 141.849 187.336C142.134 187.213 142.356 187.042 142.517 186.825C142.68 186.604 142.762 186.349 142.762 186.058C142.762 185.811 142.698 185.605 142.57 185.44C142.442 185.272 142.264 185.131 142.034 185.017C141.807 184.903 141.543 184.803 141.242 184.715L140.372 184.46C139.802 184.289 139.359 184.054 139.044 183.753C138.729 183.452 138.572 183.069 138.572 182.602C138.572 182.212 138.676 181.868 138.884 181.572C139.095 181.274 139.379 181.042 139.736 180.876C140.096 180.708 140.5 180.624 140.947 180.624C141.4 180.624 141.8 180.707 142.148 180.873C142.496 181.039 142.772 181.267 142.975 181.558C143.181 181.847 143.291 182.176 143.305 182.545H142.663ZM144.962 181.324V180.727H150.236V181.324H147.931V188H147.267V181.324H144.962ZM152.131 188V180.727H154.478C154.994 180.727 155.425 180.821 155.771 181.008C156.119 181.192 156.38 181.449 156.556 181.778C156.733 182.105 156.822 182.48 156.822 182.904C156.822 183.328 156.733 183.702 156.556 184.026C156.38 184.351 156.12 184.604 155.774 184.786C155.429 184.969 155 185.06 154.489 185.06H152.49V184.452H154.471C154.85 184.452 155.165 184.39 155.416 184.264C155.669 184.139 155.857 183.96 155.98 183.728C156.106 183.496 156.169 183.221 156.169 182.904C156.169 182.587 156.106 182.31 155.98 182.073C155.855 181.834 155.666 181.649 155.412 181.519C155.161 181.389 154.844 181.324 154.46 181.324H152.795V188H152.131ZM155.338 184.719L157.127 188H156.36L154.588 184.719H155.338ZM158.85 188H158.154L160.8 180.727H161.51L164.156 188H163.46L161.18 181.59H161.13L158.85 188ZM159.351 185.212H162.959V185.809H159.351V185.212ZM161.155 180.276C160.89 180.276 160.664 180.184 160.477 179.999C160.292 179.812 160.2 179.586 160.2 179.321C160.2 179.143 160.242 178.982 160.327 178.838C160.413 178.694 160.528 178.579 160.672 178.494C160.819 178.408 160.98 178.366 161.155 178.366C161.332 178.366 161.493 178.408 161.638 178.494C161.782 178.579 161.897 178.694 161.982 178.838C162.068 178.982 162.11 179.143 162.11 179.321C162.11 179.496 162.068 179.657 161.982 179.804C161.897 179.948 161.782 180.063 161.638 180.148C161.493 180.234 161.332 180.276 161.155 180.276ZM161.155 179.861C161.306 179.861 161.433 179.809 161.535 179.705C161.639 179.598 161.691 179.47 161.691 179.321C161.691 179.17 161.639 179.042 161.535 178.938C161.433 178.833 161.306 178.781 161.155 178.781C161.003 178.781 160.876 178.835 160.771 178.941C160.67 179.045 160.619 179.172 160.619 179.321C160.619 179.473 160.67 179.6 160.771 179.705C160.876 179.809 161.003 179.861 161.155 179.861ZM165.802 188V180.727H166.466V187.403H169.932V188H165.802ZM172.491 180.727V188H171.827V180.727H172.491ZM180.489 180.727V188H179.842L175.546 181.91H175.489V188H174.825V180.727H175.467L179.779 186.825H179.835V180.727H180.489ZM187.854 183C187.788 182.759 187.691 182.532 187.563 182.322C187.435 182.109 187.277 181.923 187.087 181.764C186.9 181.603 186.684 181.478 186.437 181.388C186.194 181.298 185.921 181.253 185.621 181.253C185.147 181.253 184.723 181.376 184.349 181.622C183.975 181.868 183.679 182.223 183.462 182.688C183.246 183.152 183.138 183.71 183.138 184.364C183.138 185.015 183.247 185.572 183.465 186.036C183.683 186.5 183.981 186.857 184.36 187.105C184.741 187.351 185.177 187.474 185.667 187.474C186.114 187.474 186.51 187.375 186.853 187.176C187.196 186.977 187.464 186.693 187.655 186.324C187.85 185.955 187.944 185.515 187.94 185.006L188.153 185.074H185.823V184.477H188.586V185.074C188.586 185.694 188.46 186.23 188.209 186.683C187.958 187.135 187.614 187.484 187.176 187.73C186.738 187.976 186.235 188.099 185.667 188.099C185.032 188.099 184.477 187.947 184.001 187.641C183.525 187.334 183.155 186.9 182.89 186.342C182.627 185.781 182.496 185.121 182.496 184.364C182.496 183.793 182.571 183.278 182.723 182.819C182.874 182.36 183.089 181.967 183.366 181.64C183.645 181.313 183.975 181.063 184.356 180.891C184.738 180.715 185.159 180.628 185.621 180.628C186.018 180.628 186.382 180.691 186.711 180.816C187.042 180.942 187.333 181.114 187.584 181.335C187.838 181.552 188.045 181.804 188.206 182.091C188.369 182.375 188.479 182.678 188.536 183H187.854Z" fill="#747480"/>
<path d="M151.472 199.063C151.279 199.063 151.114 198.993 150.976 198.855C150.838 198.717 150.769 198.552 150.769 198.359C150.769 198.167 150.838 198.001 150.976 197.863C151.114 197.725 151.279 197.656 151.472 197.656C151.664 197.656 151.83 197.725 151.968 197.863C152.106 198.001 152.175 198.167 152.175 198.359C152.175 198.487 152.142 198.604 152.077 198.711C152.015 198.818 151.93 198.904 151.823 198.969C151.719 199.031 151.602 199.063 151.472 199.063ZM154.501 199.063C154.308 199.063 154.143 198.993 154.005 198.855C153.867 198.717 153.798 198.552 153.798 198.359C153.798 198.167 153.867 198.001 154.005 197.863C154.143 197.725 154.308 197.656 154.501 197.656C154.694 197.656 154.859 197.725 154.997 197.863C155.135 198.001 155.204 198.167 155.204 198.359C155.204 198.487 155.172 198.604 155.106 198.711C155.044 198.818 154.959 198.904 154.853 198.969C154.748 199.031 154.631 199.063 154.501 199.063ZM157.53 199.063C157.338 199.063 157.172 198.993 157.034 198.855C156.896 198.717 156.827 198.552 156.827 198.359C156.827 198.167 156.896 198.001 157.034 197.863C157.172 197.725 157.338 197.656 157.53 197.656C157.723 197.656 157.888 197.725 158.026 197.863C158.164 198.001 158.233 198.167 158.233 198.359C158.233 198.487 158.201 198.604 158.136 198.711C158.073 198.818 157.989 198.904 157.882 198.969C157.778 199.031 157.66 199.063 157.53 199.063Z" fill="#E4E4E4"/>
<path d="M136.372 49.1989C135.311 49.1989 134.367 49.0166 133.538 48.652C132.714 48.2827 132.063 47.776 131.585 47.1321C131.111 46.4834 130.868 45.7353 130.853 44.8878H133.95C133.969 45.2429 134.085 45.5554 134.298 45.8253C134.516 46.0904 134.805 46.2964 135.164 46.4432C135.524 46.59 135.929 46.6634 136.379 46.6634C136.848 46.6634 137.262 46.5805 137.622 46.4148C137.982 46.2491 138.263 46.0194 138.467 45.7259C138.671 45.4323 138.772 45.0937 138.772 44.7102C138.772 44.322 138.663 43.9787 138.446 43.6804C138.233 43.3774 137.925 43.1406 137.522 42.9702C137.125 42.7997 136.651 42.7145 136.102 42.7145H134.745V40.456H136.102C136.566 40.456 136.975 40.3755 137.331 40.2145C137.69 40.0535 137.97 39.831 138.169 39.5469C138.368 39.258 138.467 38.9219 138.467 38.5384C138.467 38.1738 138.379 37.8542 138.204 37.5795C138.034 37.3002 137.792 37.0824 137.48 36.9261C137.172 36.7699 136.812 36.6918 136.4 36.6918C135.984 36.6918 135.602 36.7675 135.257 36.919C134.911 37.0658 134.634 37.2765 134.426 37.5511C134.217 37.8258 134.106 38.1477 134.092 38.517H131.145C131.159 37.679 131.398 36.9403 131.862 36.3011C132.326 35.6619 132.951 35.1624 133.737 34.8026C134.528 34.438 135.42 34.2557 136.414 34.2557C137.418 34.2557 138.297 34.438 139.049 34.8026C139.802 35.1671 140.387 35.6596 140.804 36.2798C141.225 36.8954 141.433 37.5866 141.429 38.3537C141.433 39.1681 141.18 39.8475 140.669 40.392C140.162 40.9366 139.502 41.2822 138.687 41.429V41.5426C139.757 41.6799 140.572 42.0516 141.13 42.6577C141.694 43.259 141.973 44.0118 141.968 44.9162C141.973 45.7448 141.734 46.4811 141.251 47.125C140.773 47.7689 140.112 48.2756 139.27 48.6449C138.427 49.0142 137.461 49.1989 136.372 49.1989Z" fill="white"/>
<path d="M197.404 55.4432V53.0213L203.477 43.4545H205.565V46.8068H204.329L200.501 52.8651V52.9787H209.13V55.4432H197.404ZM204.386 58V54.7045L204.442 53.6321V43.4545H207.326V58H204.386Z" fill="white"/>
<path d="M147.14 117.26L144.44 114.575L142.325 116.69L145.01 119.375L147.14 117.26ZM143 125.75H138.5V128.75H143V125.75ZM156.5 110.825H153.5V115.25H156.5V110.825V110.825ZM167.675 116.69L165.56 114.575L162.875 117.26L164.99 119.375L167.675 116.69ZM162.86 137.24L165.545 139.94L167.66 137.825L164.96 135.14L162.86 137.24ZM167 125.75V128.75H171.5V125.75H167ZM155 118.25C150.035 118.25 146 122.285 146 127.25C146 132.215 150.035 136.25 155 136.25C159.965 136.25 164 132.215 164 127.25C164 122.285 159.965 118.25 155 118.25ZM153.5 143.675H156.5V139.25H153.5V143.675ZM142.325 137.81L144.44 139.925L147.125 137.225L145.01 135.11L142.325 137.81Z" fill="#FFD600"/>
<path d="M256.808 25.7488C256.213 25.2136 255.429 24.9381 254.63 24.9837C253.831 25.0292 253.084 25.392 252.554 25.9913L194.33 91.8216C193.239 93.0552 193.347 94.9376 194.571 96.0392C206.91 107.143 215.807 121.6 220.176 137.649C220.61 139.244 222.253 140.187 223.849 139.758L308.566 116.98C309.335 116.773 309.991 116.268 310.388 115.576C310.785 114.885 310.891 114.064 310.681 113.295C301.492 79.5327 282.774 49.1144 256.808 25.7488Z" fill="#E7B918" stroke="#C18B00" stroke-width="6" stroke-linejoin="round"/>
<path d="M247.761 102.318C246.155 102.318 244.723 102.023 243.466 101.432C242.216 100.841 241.223 100.027 240.489 98.9886C239.754 97.9508 239.371 96.7614 239.341 95.4205H244.114C244.167 96.322 244.545 97.053 245.25 97.6136C245.955 98.1742 246.792 98.4545 247.761 98.4545C248.534 98.4545 249.216 98.2841 249.807 97.9432C250.405 97.5947 250.871 97.1136 251.205 96.5C251.545 95.8788 251.716 95.1667 251.716 94.3636C251.716 93.5455 251.542 92.8258 251.193 92.2045C250.852 91.5833 250.379 91.0985 249.773 90.75C249.167 90.4015 248.473 90.2235 247.693 90.2159C247.011 90.2159 246.348 90.3561 245.705 90.6364C245.068 90.9167 244.572 91.2992 244.216 91.7841L239.841 91L240.943 78.7273H255.17V82.75H245L244.398 88.5795H244.534C244.943 88.0038 245.561 87.5265 246.386 87.1477C247.212 86.7689 248.136 86.5795 249.159 86.5795C250.561 86.5795 251.811 86.9091 252.909 87.5682C254.008 88.2273 254.875 89.1326 255.511 90.2841C256.148 91.428 256.462 92.7462 256.455 94.2386C256.462 95.8068 256.098 97.2008 255.364 98.4205C254.636 99.6326 253.617 100.587 252.307 101.284C251.004 101.973 249.489 102.318 247.761 102.318Z" fill="white"/>
</svg>
