<svg width="320" height="308" viewBox="0 0 320 308" fill="none" xmlns="http://www.w3.org/2000/svg">
<path d="M12 154C12 124.48 20.4842 95.583 36.4422 70.7487C52.4002 45.9144 75.1596 26.1899 102.01 13.924L134.005 83.962C120.58 90.0949 109.2 99.9572 101.221 112.374C93.2421 124.791 89 139.24 89 154L12 154Z" fill="#AAE47C"/>
<path d="M37.1643 238.364C20.7924 213.362 12.049 184.137 12.0002 154.251L89.0001 154.126C89.0245 169.068 93.3962 183.681 101.582 196.182L37.1643 238.364Z" fill="#724BC3"/>
<path d="M3 160C3 160.796 3.31607 161.559 3.87868 162.121C4.44129 162.684 5.20435 163 6 163H93.741C95.3979 163 96.741 161.657 96.741 160C96.741 143.351 101.53 127.064 110.521 113.126C111.412 111.744 111.025 109.902 109.653 108.996L36.1705 60.4962C35.5019 60.0549 34.6846 59.8994 33.9006 60.0642C33.1166 60.2291 32.4312 60.7006 31.9969 61.3738C13.0739 90.7096 3 124.978 3 160Z" fill="#90CA62" stroke="#60A32C" stroke-width="6" stroke-linejoin="round"/>
<path d="M101.029 14.3764C121.042 5.06385 142.822 0.162305 164.895 0.00396236C186.968 -0.15438 208.817 4.43418 228.961 13.4587C249.106 22.4832 267.075 35.7327 281.65 52.3092C296.226 68.8858 307.068 88.4021 313.441 109.535L239.721 131.768C236.534 121.201 231.113 111.443 223.825 103.155C216.537 94.8663 207.553 88.2416 197.481 83.7293C187.409 79.2171 176.484 76.9228 165.448 77.002C154.411 77.0812 143.521 79.5319 133.514 84.1882L101.029 14.3764Z" fill="#FFD600"/>
<path d="M267.8 269.554C251.237 284.145 231.731 295.006 210.604 301.399C189.477 307.792 167.222 309.569 145.348 306.609C123.474 303.649 102.492 296.021 83.8239 284.242C65.1558 272.464 49.2379 256.81 37.149 238.341L101.574 196.171C107.619 205.405 115.578 213.232 124.912 219.121C134.246 225.011 144.737 228.824 155.674 230.304C166.611 231.785 177.738 230.896 188.302 227.7C198.866 224.503 208.619 219.073 216.9 211.777L267.8 269.554Z" fill="#E0362C"/>
<path d="M313.403 109.408C321.95 137.663 322.197 167.779 314.114 196.17C306.03 224.561 289.957 250.031 267.809 269.546L216.904 211.773C227.979 202.016 236.015 189.281 240.057 175.085C244.099 160.89 243.975 145.832 239.701 131.704L313.403 109.408Z" fill="#FF9831"/>
<path d="M56.3551 110.727V134H51.4347V115.398H51.2983L45.9688 118.739V114.375L51.7301 110.727H56.3551Z" fill="white"/>
<path d="M85.5813 70V67.7841L90.7589 62.9901C91.1992 62.5639 91.5685 62.1804 91.8668 61.8395C92.1699 61.4986 92.3995 61.1648 92.5558 60.8381C92.712 60.5066 92.7901 60.1491 92.7901 59.7656C92.7901 59.3395 92.6931 58.9725 92.4989 58.6648C92.3048 58.3523 92.0397 58.1132 91.7035 57.9474C91.3673 57.777 90.9862 57.6918 90.56 57.6918C90.1149 57.6918 89.7267 57.7817 89.3952 57.9616C89.0638 58.1416 88.8081 58.3996 88.6282 58.7358C88.4483 59.072 88.3583 59.4721 88.3583 59.9361H85.4393C85.4393 58.9844 85.6547 58.1581 86.0856 57.4574C86.5165 56.7566 87.1201 56.2145 87.8967 55.831C88.6732 55.4474 89.5681 55.2557 90.5813 55.2557C91.623 55.2557 92.5297 55.4403 93.3015 55.8097C94.078 56.1742 94.6817 56.6809 95.1126 57.3295C95.5434 57.9782 95.7589 58.7216 95.7589 59.5597C95.7589 60.1089 95.65 60.651 95.4322 61.1861C95.2191 61.7211 94.8379 62.3153 94.2887 62.9688C93.7395 63.6174 92.9653 64.3963 91.9663 65.3054L89.8427 67.3864V67.4858H95.9506V70H85.5813Z" fill="white"/>
<path d="M151.372 49.1989C150.311 49.1989 149.367 49.0166 148.538 48.652C147.714 48.2827 147.063 47.776 146.585 47.1321C146.111 46.4834 145.868 45.7353 145.853 44.8878H148.95C148.969 45.2429 149.085 45.5554 149.298 45.8253C149.516 46.0904 149.805 46.2964 150.164 46.4432C150.524 46.59 150.929 46.6634 151.379 46.6634C151.848 46.6634 152.262 46.5805 152.622 46.4148C152.982 46.2491 153.263 46.0194 153.467 45.7259C153.671 45.4323 153.772 45.0937 153.772 44.7102C153.772 44.322 153.663 43.9787 153.446 43.6804C153.233 43.3774 152.925 43.1406 152.522 42.9702C152.125 42.7997 151.651 42.7145 151.102 42.7145H149.745V40.456H151.102C151.566 40.456 151.975 40.3755 152.331 40.2145C152.69 40.0535 152.97 39.831 153.169 39.5469C153.368 39.258 153.467 38.9219 153.467 38.5384C153.467 38.1738 153.379 37.8542 153.204 37.5795C153.034 37.3002 152.792 37.0824 152.48 36.9261C152.172 36.7699 151.812 36.6918 151.4 36.6918C150.984 36.6918 150.602 36.7675 150.257 36.919C149.911 37.0658 149.634 37.2765 149.426 37.5511C149.217 37.8258 149.106 38.1477 149.092 38.517H146.145C146.159 37.679 146.398 36.9403 146.862 36.3011C147.326 35.6619 147.951 35.1624 148.737 34.8026C149.528 34.438 150.42 34.2557 151.414 34.2557C152.418 34.2557 153.297 34.438 154.049 34.8026C154.802 35.1671 155.387 35.6596 155.804 36.2798C156.225 36.8954 156.433 37.5866 156.429 38.3537C156.433 39.1681 156.18 39.8475 155.669 40.392C155.162 40.9366 154.502 41.2822 153.687 41.429V41.5426C154.757 41.6799 155.572 42.0516 156.13 42.6577C156.694 43.259 156.973 44.0118 156.968 44.9162C156.973 45.7448 156.734 46.4811 156.251 47.125C155.773 47.7689 155.112 48.2756 154.27 48.6449C153.427 49.0142 152.461 49.1989 151.372 49.1989Z" fill="white"/>
<path d="M207.404 53.4432V51.0213L213.477 41.4545H215.565V44.8068H214.329L210.501 50.8651V50.9787H219.13V53.4432H207.404ZM214.386 56V52.7045L214.442 51.6321V41.4545H217.326V56H214.386Z" fill="white"/>
<path d="M261.601 93.1989C260.597 93.1989 259.702 93.0142 258.916 92.6449C258.135 92.2756 257.515 91.7666 257.055 91.1179C256.596 90.4692 256.357 89.7259 256.338 88.8878H259.321C259.354 89.4512 259.591 89.9081 260.031 90.2585C260.472 90.6089 260.995 90.7841 261.601 90.7841C262.084 90.7841 262.51 90.6776 262.879 90.4645C263.253 90.2467 263.545 89.946 263.753 89.5625C263.966 89.1742 264.072 88.7292 264.072 88.2273C264.072 87.7159 263.964 87.2661 263.746 86.8778C263.533 86.4896 263.237 86.1866 262.858 85.9688C262.479 85.7509 262.046 85.6397 261.558 85.6349C261.132 85.6349 260.718 85.7225 260.315 85.8977C259.918 86.0729 259.607 86.312 259.385 86.6151L256.651 86.125L257.339 78.4545H266.232V80.9688H259.875L259.499 84.6122H259.584C259.839 84.2524 260.225 83.9541 260.741 83.7173C261.258 83.4806 261.835 83.3622 262.474 83.3622C263.35 83.3622 264.132 83.5682 264.818 83.9801C265.505 84.392 266.047 84.9579 266.445 85.6776C266.842 86.3925 267.039 87.2164 267.034 88.1491C267.039 89.1293 266.812 90.0005 266.352 90.7628C265.898 91.5204 265.261 92.117 264.442 92.5526C263.627 92.9834 262.68 93.1989 261.601 93.1989Z" fill="white"/>
<path d="M278.558 166.199C277.81 166.194 277.088 166.069 276.392 165.822C275.701 165.576 275.08 165.176 274.531 164.622C273.982 164.068 273.546 163.334 273.224 162.42C272.907 161.507 272.749 160.384 272.749 159.054C272.753 157.832 272.893 156.741 273.168 155.78C273.447 154.814 273.845 153.995 274.361 153.322C274.882 152.65 275.504 152.139 276.229 151.788C276.953 151.433 277.765 151.256 278.665 151.256C279.635 151.256 280.492 151.445 281.236 151.824C281.979 152.198 282.576 152.707 283.026 153.351C283.48 153.995 283.755 154.717 283.849 155.517H280.817C280.698 155.01 280.45 154.613 280.071 154.324C279.692 154.035 279.223 153.891 278.665 153.891C277.718 153.891 276.998 154.303 276.506 155.126C276.018 155.95 275.769 157.07 275.76 158.486H275.859C276.077 158.055 276.371 157.688 276.74 157.385C277.114 157.077 277.538 156.843 278.011 156.682C278.49 156.516 278.994 156.433 279.524 156.433C280.386 156.433 281.153 156.637 281.825 157.044C282.498 157.446 283.028 158 283.416 158.706C283.804 159.411 283.999 160.219 283.999 161.128C283.999 162.113 283.769 162.989 283.31 163.756C282.855 164.523 282.218 165.124 281.399 165.56C280.585 165.991 279.638 166.204 278.558 166.199ZM278.544 163.784C279.018 163.784 279.441 163.67 279.815 163.443C280.189 163.216 280.483 162.908 280.696 162.52C280.909 162.132 281.016 161.696 281.016 161.213C281.016 160.73 280.909 160.297 280.696 159.913C280.488 159.53 280.199 159.224 279.83 158.997C279.46 158.77 279.039 158.656 278.565 158.656C278.21 158.656 277.881 158.723 277.578 158.855C277.28 158.988 277.017 159.172 276.79 159.409C276.567 159.646 276.392 159.92 276.264 160.233C276.136 160.541 276.072 160.87 276.072 161.22C276.072 161.689 276.179 162.117 276.392 162.506C276.61 162.894 276.903 163.204 277.273 163.436C277.647 163.668 278.071 163.784 278.544 163.784Z" fill="white"/>
<path d="M259.86 220L265.89 208.068V207.969H258.865V205.455H269.071V208.004L263.034 220H259.86Z" fill="white"/>
<path d="M214.382 268.199C213.289 268.199 212.316 268.021 211.463 267.666C210.616 267.306 209.951 266.816 209.468 266.196C208.985 265.576 208.743 264.873 208.743 264.087C208.743 263.481 208.881 262.924 209.155 262.418C209.435 261.906 209.813 261.482 210.292 261.146C210.77 260.805 211.305 260.588 211.897 260.493V260.393C211.12 260.237 210.49 259.861 210.007 259.264C209.525 258.663 209.283 257.964 209.283 257.169C209.283 256.416 209.503 255.746 209.944 255.159C210.384 254.567 210.988 254.103 211.755 253.767C212.526 253.426 213.402 253.256 214.382 253.256C215.363 253.256 216.236 253.426 217.003 253.767C217.775 254.108 218.381 254.574 218.821 255.166C219.262 255.753 219.484 256.421 219.489 257.169C219.484 257.969 219.238 258.668 218.75 259.264C218.263 259.861 217.638 260.237 216.875 260.393V260.493C217.458 260.588 217.986 260.805 218.459 261.146C218.937 261.482 219.316 261.906 219.596 262.418C219.88 262.924 220.024 263.481 220.029 264.087C220.024 264.873 219.78 265.576 219.297 266.196C218.814 266.816 218.147 267.306 217.294 267.666C216.447 268.021 215.476 268.199 214.382 268.199ZM214.382 265.94C214.87 265.94 215.296 265.853 215.661 265.678C216.025 265.498 216.31 265.251 216.513 264.939C216.721 264.622 216.826 264.257 216.826 263.845C216.826 263.424 216.719 263.052 216.506 262.73C216.293 262.403 216.004 262.148 215.64 261.963C215.275 261.774 214.856 261.679 214.382 261.679C213.914 261.679 213.495 261.774 213.125 261.963C212.756 262.148 212.465 262.403 212.252 262.73C212.043 263.052 211.939 263.424 211.939 263.845C211.939 264.257 212.041 264.622 212.245 264.939C212.448 265.251 212.735 265.498 213.104 265.678C213.473 265.853 213.9 265.94 214.382 265.94ZM214.382 259.442C214.79 259.442 215.152 259.359 215.469 259.193C215.786 259.027 216.035 258.798 216.215 258.504C216.395 258.211 216.485 257.872 216.485 257.489C216.485 257.11 216.395 256.778 216.215 256.494C216.035 256.205 215.789 255.981 215.476 255.82C215.164 255.654 214.799 255.571 214.382 255.571C213.971 255.571 213.606 255.654 213.289 255.82C212.971 255.981 212.723 256.205 212.543 256.494C212.368 256.778 212.28 257.11 212.28 257.489C212.28 257.872 212.37 258.211 212.55 258.504C212.73 258.798 212.979 259.027 213.296 259.193C213.613 259.359 213.975 259.442 214.382 259.442Z" fill="white"/>
<path d="M156.239 263.256C156.987 263.256 157.706 263.381 158.398 263.632C159.094 263.883 159.714 264.283 160.259 264.832C160.808 265.382 161.241 266.111 161.558 267.02C161.88 267.924 162.044 269.035 162.048 270.351C162.048 271.587 161.909 272.69 161.629 273.661C161.355 274.626 160.959 275.448 160.443 276.125C159.927 276.802 159.304 277.318 158.575 277.673C157.846 278.024 157.032 278.199 156.132 278.199C155.161 278.199 154.304 278.012 153.561 277.638C152.818 277.259 152.219 276.745 151.764 276.097C151.314 275.443 151.042 274.709 150.947 273.895H153.98C154.098 274.425 154.347 274.837 154.726 275.131C155.105 275.42 155.573 275.564 156.132 275.564C157.079 275.564 157.799 275.152 158.291 274.328C158.784 273.5 159.032 272.366 159.037 270.926H158.938C158.72 271.352 158.426 271.719 158.057 272.027C157.688 272.33 157.264 272.564 156.786 272.73C156.312 272.896 155.808 272.979 155.273 272.979C154.416 272.979 153.651 272.777 152.979 272.375C152.306 271.973 151.776 271.419 151.388 270.713C151 270.008 150.805 269.203 150.805 268.298C150.801 267.323 151.026 266.454 151.48 265.692C151.935 264.929 152.569 264.333 153.384 263.902C154.203 263.466 155.154 263.251 156.239 263.256ZM156.26 265.67C155.782 265.67 155.356 265.784 154.982 266.011C154.612 266.239 154.319 266.544 154.101 266.928C153.888 267.311 153.784 267.74 153.788 268.213C153.788 268.691 153.893 269.122 154.101 269.506C154.314 269.884 154.603 270.187 154.967 270.415C155.337 270.637 155.758 270.749 156.232 270.749C156.587 270.749 156.916 270.682 157.219 270.55C157.522 270.417 157.785 270.235 158.007 270.003C158.234 269.766 158.412 269.494 158.54 269.186C158.668 268.878 158.732 268.552 158.732 268.206C158.727 267.747 158.618 267.325 158.405 266.942C158.192 266.558 157.898 266.25 157.524 266.018C157.15 265.786 156.729 265.67 156.26 265.67Z" fill="white"/>
<path d="M91.9524 239.455V254H88.8771V242.374H88.7919L85.4609 244.462V241.734L89.0618 239.455H91.9524ZM101.113 254.32C99.891 254.315 98.8398 254.014 97.9592 253.418C97.0832 252.821 96.4085 251.957 95.935 250.825C95.4663 249.694 95.2343 248.332 95.239 246.741C95.239 245.155 95.4734 243.804 95.9421 242.686C96.4156 241.569 97.0903 240.719 97.9663 240.136C98.8469 239.549 99.8957 239.256 101.113 239.256C102.329 239.256 103.376 239.549 104.252 240.136C105.132 240.723 105.81 241.576 106.283 242.693C106.757 243.806 106.991 245.155 106.986 246.741C106.986 248.337 106.749 249.701 106.276 250.832C105.807 251.964 105.135 252.828 104.259 253.425C103.383 254.021 102.334 254.32 101.113 254.32ZM101.113 251.77C101.946 251.77 102.611 251.351 103.108 250.513C103.605 249.675 103.852 248.418 103.847 246.741C103.847 245.638 103.733 244.72 103.506 243.986C103.283 243.252 102.966 242.7 102.554 242.331C102.147 241.962 101.667 241.777 101.113 241.777C100.284 241.777 99.6211 242.191 99.1239 243.02C98.6268 243.848 98.3758 245.089 98.3711 246.741C98.3711 247.859 98.4824 248.792 98.7049 249.54C98.9322 250.283 99.2518 250.842 99.6637 251.216C100.076 251.585 100.559 251.77 101.113 251.77Z" fill="white"/>
<path d="M54.9368 184.455V199H51.8615V187.374H51.7763L48.4453 189.462V186.734L52.0462 184.455H54.9368ZM64.7219 184.455V199H61.6467V187.374H61.5614L58.2305 189.462V186.734L61.8313 184.455H64.7219Z" fill="white"/>
<g style="mix-blend-mode:multiply">
<path d="M151.703 172V160.364H153.811V170.233H158.936V172H151.703ZM163.337 172H161.087L165.184 160.364H167.786L171.888 172H169.638L166.531 162.75H166.44L163.337 172ZM163.411 167.438H169.548V169.131H163.411V167.438ZM166.485 159.648C166.012 159.648 165.606 159.483 165.269 159.153C164.936 158.824 164.769 158.426 164.769 157.96C164.769 157.65 164.845 157.367 164.996 157.114C165.152 156.856 165.36 156.652 165.621 156.5C165.883 156.348 166.171 156.273 166.485 156.273C166.803 156.273 167.091 156.348 167.349 156.5C167.61 156.652 167.817 156.856 167.968 157.114C168.123 157.367 168.201 157.65 168.201 157.96C168.201 158.271 168.123 158.555 167.968 158.812C167.817 159.066 167.61 159.269 167.349 159.42C167.091 159.572 166.803 159.648 166.485 159.648ZM166.485 158.733C166.705 158.729 166.89 158.653 167.042 158.506C167.193 158.354 167.269 158.172 167.269 157.96C167.269 157.748 167.193 157.566 167.042 157.415C166.894 157.263 166.709 157.189 166.485 157.193C166.265 157.193 166.08 157.269 165.928 157.42C165.781 157.568 165.707 157.748 165.707 157.96C165.707 158.172 165.781 158.354 165.928 158.506C166.08 158.657 166.265 158.733 166.485 158.733ZM181.31 164.08C181.215 163.773 181.084 163.498 180.918 163.256C180.755 163.009 180.558 162.799 180.327 162.625C180.1 162.451 179.838 162.32 179.543 162.233C179.247 162.142 178.925 162.097 178.577 162.097C177.952 162.097 177.395 162.254 176.906 162.568C176.418 162.883 176.033 163.345 175.753 163.955C175.476 164.561 175.338 165.299 175.338 166.17C175.338 167.049 175.476 167.794 175.753 168.403C176.029 169.013 176.414 169.477 176.906 169.795C177.399 170.11 177.971 170.267 178.622 170.267C179.213 170.267 179.725 170.153 180.156 169.926C180.592 169.699 180.927 169.377 181.162 168.96C181.397 168.54 181.514 168.047 181.514 167.483L181.992 167.557H178.832V165.909H183.554V167.307C183.554 168.303 183.342 169.165 182.918 169.892C182.493 170.619 181.91 171.18 181.168 171.574C180.425 171.964 179.573 172.159 178.611 172.159C177.539 172.159 176.598 171.919 175.787 171.438C174.98 170.953 174.35 170.265 173.895 169.375C173.444 168.481 173.219 167.42 173.219 166.193C173.219 165.254 173.351 164.415 173.617 163.676C173.886 162.938 174.261 162.311 174.742 161.795C175.223 161.277 175.787 160.883 176.435 160.614C177.082 160.341 177.787 160.205 178.548 160.205C179.192 160.205 179.793 160.299 180.35 160.489C180.906 160.674 181.401 160.939 181.832 161.284C182.268 161.629 182.626 162.038 182.906 162.511C183.187 162.985 183.37 163.508 183.457 164.08H181.31Z" fill="black"/>
<path d="M138.545 177.727H139.209V182.543C139.209 183.037 139.093 183.48 138.861 183.871C138.629 184.259 138.306 184.566 137.891 184.79C137.479 185.013 137 185.124 136.453 185.124C135.909 185.124 135.429 185.012 135.015 184.787C134.601 184.562 134.277 184.255 134.045 183.867C133.813 183.479 133.697 183.037 133.697 182.543V177.727H134.361V182.496C134.361 182.882 134.448 183.227 134.621 183.53C134.793 183.83 135.036 184.067 135.349 184.24C135.664 184.413 136.032 184.499 136.453 184.499C136.874 184.499 137.243 184.413 137.557 184.24C137.872 184.067 138.115 183.83 138.285 183.53C138.458 183.227 138.545 182.882 138.545 182.496V177.727ZM141.549 177.727L143.822 184.137H143.886L146.159 177.727H146.855L144.209 185H143.499L140.853 177.727H141.549ZM155.663 179.545C155.622 179.141 155.444 178.819 155.126 178.58C154.809 178.34 154.41 178.221 153.93 178.221C153.591 178.221 153.293 178.279 153.035 178.395C152.779 178.511 152.578 178.672 152.431 178.878C152.287 179.081 152.214 179.313 152.214 179.574C152.214 179.766 152.256 179.934 152.339 180.078C152.422 180.223 152.533 180.347 152.673 180.451C152.815 180.553 152.971 180.64 153.141 180.714C153.314 180.787 153.488 180.849 153.663 180.898L154.43 181.119C154.662 181.183 154.894 181.264 155.126 181.364C155.358 181.463 155.57 181.589 155.762 181.74C155.956 181.889 156.111 182.073 156.227 182.29C156.346 182.506 156.405 182.765 156.405 183.068C156.405 183.456 156.304 183.806 156.103 184.116C155.902 184.426 155.613 184.672 155.236 184.854C154.86 185.034 154.409 185.124 153.884 185.124C153.389 185.124 152.959 185.043 152.594 184.879C152.23 184.714 151.943 184.485 151.735 184.194C151.527 183.903 151.41 183.565 151.384 183.182H152.065C152.089 183.468 152.184 183.711 152.349 183.91C152.515 184.109 152.731 184.26 152.996 184.364C153.261 184.466 153.557 184.517 153.884 184.517C154.246 184.517 154.568 184.457 154.849 184.336C155.134 184.213 155.356 184.042 155.517 183.825C155.68 183.604 155.762 183.349 155.762 183.058C155.762 182.811 155.698 182.605 155.57 182.44C155.442 182.272 155.264 182.131 155.034 182.017C154.807 181.903 154.543 181.803 154.242 181.715L153.372 181.46C152.802 181.289 152.359 181.054 152.044 180.753C151.729 180.452 151.572 180.069 151.572 179.602C151.572 179.212 151.676 178.868 151.884 178.572C152.095 178.274 152.379 178.042 152.736 177.876C153.096 177.708 153.5 177.624 153.947 177.624C154.4 177.624 154.8 177.707 155.148 177.873C155.496 178.039 155.772 178.267 155.975 178.558C156.181 178.847 156.291 179.176 156.305 179.545H155.663ZM157.962 178.324V177.727H163.236V178.324H160.931V185H160.267V178.324H157.962ZM165.131 185V177.727H167.478C167.994 177.727 168.425 177.821 168.771 178.008C169.119 178.192 169.38 178.449 169.556 178.778C169.733 179.105 169.822 179.48 169.822 179.904C169.822 180.328 169.733 180.702 169.556 181.026C169.38 181.351 169.12 181.604 168.774 181.786C168.429 181.969 168 182.06 167.489 182.06H165.49V181.452H167.471C167.85 181.452 168.165 181.39 168.416 181.264C168.669 181.139 168.857 180.96 168.98 180.728C169.106 180.496 169.169 180.221 169.169 179.904C169.169 179.587 169.106 179.31 168.98 179.073C168.855 178.834 168.666 178.649 168.412 178.519C168.161 178.389 167.844 178.324 167.46 178.324H165.795V185H165.131ZM168.338 181.719L170.127 185H169.36L167.588 181.719H168.338ZM171.85 185H171.154L173.8 177.727H174.51L177.156 185H176.46L174.18 178.59H174.13L171.85 185ZM172.351 182.212H175.959V182.809H172.351V182.212ZM174.155 177.276C173.89 177.276 173.664 177.184 173.477 176.999C173.292 176.812 173.2 176.586 173.2 176.321C173.2 176.143 173.242 175.982 173.327 175.838C173.413 175.694 173.528 175.579 173.672 175.494C173.819 175.408 173.98 175.366 174.155 175.366C174.332 175.366 174.493 175.408 174.638 175.494C174.782 175.579 174.897 175.694 174.982 175.838C175.068 175.982 175.11 176.143 175.11 176.321C175.11 176.496 175.068 176.657 174.982 176.804C174.897 176.948 174.782 177.063 174.638 177.148C174.493 177.234 174.332 177.276 174.155 177.276ZM174.155 176.861C174.306 176.861 174.433 176.809 174.535 176.705C174.639 176.598 174.691 176.47 174.691 176.321C174.691 176.17 174.639 176.042 174.535 175.938C174.433 175.833 174.306 175.781 174.155 175.781C174.003 175.781 173.876 175.835 173.771 175.941C173.67 176.045 173.619 176.172 173.619 176.321C173.619 176.473 173.67 176.6 173.771 176.705C173.876 176.809 174.003 176.861 174.155 176.861ZM178.802 185V177.727H179.466V184.403H182.932V185H178.802ZM185.491 177.727V185H184.827V177.727H185.491ZM193.489 177.727V185H192.842L188.546 178.91H188.489V185H187.825V177.727H188.467L192.779 183.825H192.835V177.727H193.489ZM200.854 180C200.788 179.759 200.691 179.532 200.563 179.322C200.435 179.109 200.277 178.923 200.087 178.764C199.9 178.603 199.684 178.478 199.437 178.388C199.194 178.298 198.921 178.253 198.621 178.253C198.147 178.253 197.723 178.376 197.349 178.622C196.975 178.868 196.679 179.223 196.462 179.688C196.246 180.152 196.138 180.71 196.138 181.364C196.138 182.015 196.247 182.572 196.465 183.036C196.683 183.5 196.981 183.857 197.36 184.105C197.741 184.351 198.177 184.474 198.667 184.474C199.114 184.474 199.51 184.375 199.853 184.176C200.196 183.977 200.464 183.693 200.655 183.324C200.85 182.955 200.944 182.515 200.94 182.006L201.153 182.074H198.823V181.477H201.586V182.074C201.586 182.694 201.46 183.23 201.209 183.683C200.958 184.135 200.614 184.484 200.176 184.73C199.738 184.976 199.235 185.099 198.667 185.099C198.032 185.099 197.477 184.947 197.001 184.641C196.525 184.334 196.155 183.9 195.89 183.342C195.627 182.781 195.496 182.121 195.496 181.364C195.496 180.793 195.571 180.278 195.723 179.819C195.874 179.36 196.089 178.967 196.366 178.64C196.645 178.313 196.975 178.063 197.356 177.891C197.738 177.715 198.159 177.628 198.621 177.628C199.018 177.628 199.382 177.691 199.711 177.816C200.042 177.942 200.333 178.114 200.584 178.335C200.838 178.552 201.045 178.804 201.206 179.091C201.369 179.375 201.479 179.678 201.536 180H200.854Z" fill="#747480"/>
<path d="M164.472 196.063C164.279 196.063 164.114 195.993 163.976 195.855C163.838 195.717 163.769 195.552 163.769 195.359C163.769 195.167 163.838 195.001 163.976 194.863C164.114 194.725 164.279 194.656 164.472 194.656C164.664 194.656 164.83 194.725 164.968 194.863C165.106 195.001 165.175 195.167 165.175 195.359C165.175 195.487 165.142 195.604 165.077 195.711C165.015 195.818 164.93 195.904 164.823 195.969C164.719 196.031 164.602 196.063 164.472 196.063ZM167.501 196.063C167.308 196.063 167.143 195.993 167.005 195.855C166.867 195.717 166.798 195.552 166.798 195.359C166.798 195.167 166.867 195.001 167.005 194.863C167.143 194.725 167.308 194.656 167.501 194.656C167.694 194.656 167.859 194.725 167.997 194.863C168.135 195.001 168.204 195.167 168.204 195.359C168.204 195.487 168.172 195.604 168.106 195.711C168.044 195.818 167.959 195.904 167.853 195.969C167.748 196.031 167.631 196.063 167.501 196.063ZM170.53 196.063C170.338 196.063 170.172 195.993 170.034 195.855C169.896 195.717 169.827 195.552 169.827 195.359C169.827 195.167 169.896 195.001 170.034 194.863C170.172 194.725 170.338 194.656 170.53 194.656C170.723 194.656 170.888 194.725 171.026 194.863C171.164 195.001 171.233 195.167 171.233 195.359C171.233 195.487 171.201 195.604 171.136 195.711C171.073 195.818 170.989 195.904 170.882 195.969C170.778 196.031 170.66 196.063 170.53 196.063Z" fill="white"/>
</g>
<path d="M160.14 117.26L157.44 114.575L155.325 116.69L158.01 119.375L160.14 117.26ZM151.5 125.75H156V128.75H151.5V125.75ZM166.5 110.825H169.5V115.25H166.5V110.825ZM178.56 114.568L180.672 116.678L177.987 119.363L175.876 117.251L178.56 114.568ZM175.86 137.24L178.545 139.94L180.66 137.825L177.96 135.14L175.86 137.24ZM180 125.75H184.5V128.75H180V125.75ZM168 118.25C163.035 118.25 159 122.285 159 127.25C159 132.215 163.035 136.25 168 136.25C172.965 136.25 177 132.215 177 127.25C177 122.285 172.965 118.25 168 118.25ZM168 133.25C164.685 133.25 162 130.565 162 127.25C162 123.935 164.685 121.25 168 121.25C171.315 121.25 174 123.935 174 127.25C174 130.565 171.315 133.25 168 133.25ZM166.5 139.25H169.5V143.675H166.5V139.25ZM155.325 137.81L157.44 139.925L160.125 137.225L158.01 135.11L155.325 137.81Z" fill="#90CA62"/>
</svg>
