<svg width="368" height="368" viewBox="0 0 368 368" fill="none" xmlns="http://www.w3.org/2000/svg">
<path d="M45 198C45 168.48 53.4842 139.583 69.4422 114.749C85.4002 89.9144 108.16 70.1899 135.01 57.924L167.005 127.962C153.58 134.095 142.2 143.957 134.221 156.374C126.242 168.791 122 183.24 122 198L45 198Z" fill="#AAE47C"/>
<path d="M108.581 124V121.784L113.759 116.99C114.199 116.564 114.569 116.18 114.867 115.839C115.17 115.499 115.4 115.165 115.556 114.838C115.712 114.507 115.79 114.149 115.79 113.766C115.79 113.339 115.693 112.973 115.499 112.665C115.305 112.352 115.04 112.113 114.703 111.947C114.367 111.777 113.986 111.692 113.56 111.692C113.115 111.692 112.727 111.782 112.395 111.962C112.064 112.142 111.808 112.4 111.628 112.736C111.448 113.072 111.358 113.472 111.358 113.936H108.439C108.439 112.984 108.655 112.158 109.086 111.457C109.516 110.757 110.12 110.214 110.897 109.831C111.673 109.447 112.568 109.256 113.581 109.256C114.623 109.256 115.53 109.44 116.301 109.81C117.078 110.174 117.682 110.681 118.113 111.33C118.543 111.978 118.759 112.722 118.759 113.56C118.759 114.109 118.65 114.651 118.432 115.186C118.219 115.721 117.838 116.315 117.289 116.969C116.739 117.617 115.965 118.396 114.966 119.305L112.843 121.386V121.486H118.951V124H108.581Z" fill="white"/>
<path d="M70.1643 282.364C53.7924 257.362 45.049 228.137 45.0002 198.251L122 198.126C122.024 213.068 126.396 227.681 134.582 240.182L70.1643 282.364Z" fill="#724BC3"/>
<path d="M134.029 58.3764C154.042 49.0638 175.822 44.1623 197.895 44.004C219.968 43.8456 241.817 48.4342 261.961 57.4587C282.106 66.4832 300.075 79.7327 314.65 96.3092C329.226 112.886 340.068 132.402 346.441 153.535L272.721 175.768C269.534 165.201 264.113 155.443 256.825 147.155C249.537 138.866 240.553 132.242 230.481 127.729C220.409 123.217 209.484 120.923 198.448 121.002C187.411 121.081 176.521 123.532 166.514 128.188L134.029 58.3764Z" fill="#FFD600"/>
<path d="M300.8 313.554C284.237 328.145 264.731 339.006 243.604 345.399C222.477 351.792 200.222 353.569 178.348 350.609C156.474 347.649 135.492 340.021 116.824 328.242C98.1558 316.464 82.2379 300.81 70.149 282.341L134.574 240.171C140.619 249.405 148.578 257.232 157.912 263.121C167.246 269.011 177.737 272.824 188.674 274.304C199.611 275.785 210.738 274.896 221.302 271.7C231.866 268.503 241.619 263.073 249.9 255.777L300.8 313.554Z" fill="#E0362C"/>
<path d="M346.403 153.408C354.95 181.663 355.197 211.779 347.114 240.17C339.03 268.561 322.957 294.031 300.809 313.546L249.904 255.773C260.979 246.016 269.015 233.281 273.057 219.085C277.099 204.89 276.975 189.832 272.701 175.704L346.403 153.408Z" fill="#FF9831"/>
<path d="M88.7219 160.455V175H85.6467V163.374H85.5614L82.2305 165.462V162.734L85.8313 160.455H88.7219Z" fill="white"/>
<path d="M247.382 312.199C246.289 312.199 245.316 312.021 244.463 311.666C243.616 311.306 242.951 310.816 242.468 310.196C241.985 309.576 241.743 308.873 241.743 308.087C241.743 307.481 241.881 306.924 242.155 306.418C242.435 305.906 242.813 305.482 243.292 305.146C243.77 304.805 244.305 304.588 244.897 304.493V304.393C244.12 304.237 243.49 303.861 243.007 303.264C242.525 302.663 242.283 301.964 242.283 301.169C242.283 300.416 242.503 299.746 242.944 299.159C243.384 298.567 243.988 298.103 244.755 297.767C245.526 297.426 246.402 297.256 247.382 297.256C248.363 297.256 249.236 297.426 250.003 297.767C250.775 298.108 251.381 298.574 251.821 299.166C252.262 299.753 252.484 300.421 252.489 301.169C252.484 301.969 252.238 302.668 251.75 303.264C251.263 303.861 250.638 304.237 249.875 304.393V304.493C250.458 304.588 250.986 304.805 251.459 305.146C251.937 305.482 252.316 305.906 252.596 306.418C252.88 306.924 253.024 307.481 253.029 308.087C253.024 308.873 252.78 309.576 252.297 310.196C251.814 310.816 251.147 311.306 250.294 311.666C249.447 312.021 248.476 312.199 247.382 312.199ZM247.382 309.94C247.87 309.94 248.296 309.853 248.661 309.678C249.025 309.498 249.31 309.251 249.513 308.939C249.721 308.622 249.826 308.257 249.826 307.845C249.826 307.424 249.719 307.052 249.506 306.73C249.293 306.403 249.004 306.148 248.64 305.963C248.275 305.774 247.856 305.679 247.382 305.679C246.914 305.679 246.495 305.774 246.125 305.963C245.756 306.148 245.465 306.403 245.252 306.73C245.043 307.052 244.939 307.424 244.939 307.845C244.939 308.257 245.041 308.622 245.245 308.939C245.448 309.251 245.735 309.498 246.104 309.678C246.473 309.853 246.9 309.94 247.382 309.94ZM247.382 303.442C247.79 303.442 248.152 303.359 248.469 303.193C248.786 303.027 249.035 302.798 249.215 302.504C249.395 302.211 249.485 301.872 249.485 301.489C249.485 301.11 249.395 300.778 249.215 300.494C249.035 300.205 248.789 299.981 248.476 299.82C248.164 299.654 247.799 299.571 247.382 299.571C246.971 299.571 246.606 299.654 246.289 299.82C245.971 299.981 245.723 300.205 245.543 300.494C245.368 300.778 245.28 301.11 245.28 301.489C245.28 301.872 245.37 302.211 245.55 302.504C245.73 302.798 245.979 303.027 246.296 303.193C246.613 303.359 246.975 303.442 247.382 303.442Z" fill="white"/>
<path d="M187.239 307.256C187.987 307.256 188.706 307.381 189.398 307.632C190.094 307.883 190.714 308.283 191.259 308.832C191.808 309.382 192.241 310.111 192.558 311.02C192.88 311.924 193.044 313.035 193.048 314.351C193.048 315.587 192.909 316.69 192.629 317.661C192.355 318.626 191.959 319.448 191.443 320.125C190.927 320.802 190.304 321.318 189.575 321.673C188.846 322.024 188.032 322.199 187.132 322.199C186.161 322.199 185.304 322.012 184.561 321.638C183.818 321.259 183.219 320.745 182.764 320.097C182.314 319.443 182.042 318.709 181.947 317.895H184.98C185.098 318.425 185.347 318.837 185.726 319.131C186.105 319.42 186.573 319.564 187.132 319.564C188.079 319.564 188.799 319.152 189.291 318.328C189.784 317.5 190.032 316.366 190.037 314.926H189.938C189.72 315.352 189.426 315.719 189.057 316.027C188.688 316.33 188.264 316.564 187.786 316.73C187.312 316.896 186.808 316.979 186.273 316.979C185.416 316.979 184.651 316.777 183.979 316.375C183.306 315.973 182.776 315.419 182.388 314.713C182 314.008 181.805 313.203 181.805 312.298C181.801 311.323 182.026 310.454 182.48 309.692C182.935 308.929 183.569 308.333 184.384 307.902C185.203 307.466 186.154 307.251 187.239 307.256ZM187.26 309.67C186.782 309.67 186.356 309.784 185.982 310.011C185.612 310.239 185.319 310.544 185.101 310.928C184.888 311.311 184.784 311.74 184.788 312.213C184.788 312.691 184.893 313.122 185.101 313.506C185.314 313.884 185.603 314.187 185.967 314.415C186.337 314.637 186.758 314.749 187.232 314.749C187.587 314.749 187.916 314.682 188.219 314.55C188.522 314.417 188.785 314.235 189.007 314.003C189.234 313.766 189.412 313.494 189.54 313.186C189.668 312.878 189.732 312.552 189.732 312.206C189.727 311.747 189.618 311.325 189.405 310.942C189.192 310.558 188.898 310.25 188.524 310.018C188.15 309.786 187.729 309.67 187.26 309.67Z" fill="white"/>
<path d="M122.952 282.455V297H119.877V285.374H119.792L116.461 287.462V284.734L120.062 282.455H122.952ZM132.113 297.32C130.891 297.315 129.84 297.014 128.959 296.418C128.083 295.821 127.408 294.957 126.935 293.825C126.466 292.694 126.234 291.332 126.239 289.741C126.239 288.155 126.473 286.804 126.942 285.686C127.416 284.569 128.09 283.719 128.966 283.136C129.847 282.549 130.896 282.256 132.113 282.256C133.329 282.256 134.376 282.549 135.252 283.136C136.132 283.723 136.81 284.576 137.283 285.693C137.757 286.806 137.991 288.155 137.986 289.741C137.986 291.337 137.749 292.701 137.276 293.832C136.807 294.964 136.135 295.828 135.259 296.425C134.383 297.021 133.334 297.32 132.113 297.32ZM132.113 294.77C132.946 294.77 133.611 294.351 134.108 293.513C134.605 292.675 134.852 291.418 134.847 289.741C134.847 288.638 134.733 287.72 134.506 286.986C134.283 286.252 133.966 285.7 133.554 285.331C133.147 284.962 132.667 284.777 132.113 284.777C131.284 284.777 130.621 285.191 130.124 286.02C129.627 286.848 129.376 288.089 129.371 289.741C129.371 290.859 129.482 291.792 129.705 292.54C129.932 293.283 130.252 293.842 130.664 294.216C131.076 294.585 131.559 294.77 132.113 294.77Z" fill="white"/>
<path d="M85.9368 225.455V240H82.8615V228.374H82.7763L79.4453 230.462V227.734L83.0462 225.455H85.9368ZM95.7219 225.455V240H92.6467V228.374H92.5614L89.2305 230.462V227.734L92.8313 225.455H95.7219Z" fill="white"/>
<path d="M181.82 214V202.364H183.928V207.29H189.32V202.364H191.434V214H189.32V209.057H183.928V214H181.82ZM195.793 214.534L194.764 213.83L203.02 201.852L204.048 202.557L195.793 214.534ZM204.764 208.182C204.764 209.436 204.529 210.509 204.06 211.403C203.594 212.294 202.957 212.975 202.151 213.449C201.348 213.922 200.437 214.159 199.418 214.159C198.399 214.159 197.486 213.922 196.679 213.449C195.876 212.972 195.24 212.288 194.77 211.398C194.304 210.504 194.071 209.432 194.071 208.182C194.071 206.928 194.304 205.856 194.77 204.966C195.24 204.072 195.876 203.388 196.679 202.915C197.486 202.441 198.399 202.205 199.418 202.205C200.437 202.205 201.348 202.441 202.151 202.915C202.957 203.388 203.594 204.072 204.06 204.966C204.529 205.856 204.764 206.928 204.764 208.182ZM202.645 208.182C202.645 207.299 202.507 206.555 202.23 205.949C201.957 205.339 201.579 204.879 201.094 204.568C200.609 204.254 200.05 204.097 199.418 204.097C198.785 204.097 198.226 204.254 197.741 204.568C197.257 204.879 196.876 205.339 196.599 205.949C196.327 206.555 196.19 207.299 196.19 208.182C196.19 209.064 196.327 209.811 196.599 210.42C196.876 211.027 197.257 211.487 197.741 211.801C198.226 212.112 198.785 212.267 199.418 212.267C200.05 212.267 200.609 212.112 201.094 211.801C201.579 211.487 201.957 211.027 202.23 210.42C202.507 209.811 202.645 209.064 202.645 208.182ZM215.193 206.08C215.098 205.773 214.967 205.498 214.801 205.256C214.638 205.009 214.441 204.799 214.21 204.625C213.982 204.451 213.721 204.32 213.426 204.233C213.13 204.142 212.808 204.097 212.46 204.097C211.835 204.097 211.278 204.254 210.789 204.568C210.301 204.883 209.916 205.345 209.636 205.955C209.359 206.561 209.221 207.299 209.221 208.17C209.221 209.049 209.359 209.794 209.636 210.403C209.912 211.013 210.297 211.477 210.789 211.795C211.282 212.11 211.854 212.267 212.505 212.267C213.096 212.267 213.607 212.153 214.039 211.926C214.475 211.699 214.81 211.377 215.045 210.96C215.28 210.54 215.397 210.047 215.397 209.483L215.874 209.557H212.715V207.909H217.437V209.307C217.437 210.303 217.225 211.165 216.801 211.892C216.376 212.619 215.793 213.18 215.051 213.574C214.308 213.964 213.456 214.159 212.494 214.159C211.422 214.159 210.48 213.919 209.67 213.438C208.863 212.953 208.232 212.265 207.778 211.375C207.327 210.481 207.102 209.42 207.102 208.193C207.102 207.254 207.234 206.415 207.499 205.676C207.768 204.938 208.143 204.311 208.624 203.795C209.105 203.277 209.67 202.883 210.318 202.614C210.965 202.341 211.67 202.205 212.431 202.205C213.075 202.205 213.676 202.299 214.232 202.489C214.789 202.674 215.283 202.939 215.715 203.284C216.151 203.629 216.509 204.038 216.789 204.511C217.069 204.985 217.253 205.508 217.34 206.08H215.193Z" fill="black"/>
<path d="M170.545 219.727H171.209V224.543C171.209 225.037 171.093 225.48 170.861 225.871C170.629 226.259 170.306 226.566 169.891 226.79C169.479 227.013 169 227.124 168.453 227.124C167.909 227.124 167.429 227.012 167.015 226.787C166.601 226.562 166.277 226.255 166.045 225.867C165.813 225.479 165.697 225.037 165.697 224.543V219.727H166.361V224.496C166.361 224.882 166.448 225.227 166.621 225.53C166.793 225.83 167.036 226.067 167.349 226.24C167.664 226.413 168.032 226.499 168.453 226.499C168.874 226.499 169.243 226.413 169.557 226.24C169.872 226.067 170.115 225.83 170.285 225.53C170.458 225.227 170.545 224.882 170.545 224.496V219.727ZM173.549 219.727L175.822 226.137H175.886L178.159 219.727H178.855L176.209 227H175.499L172.853 219.727H173.549ZM187.663 221.545C187.622 221.141 187.444 220.819 187.126 220.58C186.809 220.34 186.41 220.221 185.93 220.221C185.591 220.221 185.293 220.279 185.035 220.395C184.779 220.511 184.578 220.672 184.431 220.878C184.287 221.081 184.214 221.313 184.214 221.574C184.214 221.766 184.256 221.934 184.339 222.078C184.422 222.223 184.533 222.347 184.673 222.451C184.815 222.553 184.971 222.64 185.141 222.714C185.314 222.787 185.488 222.849 185.663 222.898L186.43 223.119C186.662 223.183 186.894 223.264 187.126 223.364C187.358 223.463 187.57 223.589 187.762 223.74C187.956 223.889 188.111 224.073 188.227 224.29C188.346 224.506 188.405 224.765 188.405 225.068C188.405 225.456 188.304 225.806 188.103 226.116C187.902 226.426 187.613 226.672 187.236 226.854C186.86 227.034 186.409 227.124 185.884 227.124C185.389 227.124 184.959 227.043 184.594 226.879C184.23 226.714 183.943 226.485 183.735 226.194C183.527 225.903 183.41 225.565 183.384 225.182H184.065C184.089 225.468 184.184 225.711 184.349 225.91C184.515 226.109 184.731 226.26 184.996 226.364C185.261 226.466 185.557 226.517 185.884 226.517C186.246 226.517 186.568 226.457 186.849 226.336C187.134 226.213 187.356 226.042 187.517 225.825C187.68 225.604 187.762 225.349 187.762 225.058C187.762 224.811 187.698 224.605 187.57 224.44C187.442 224.272 187.264 224.131 187.034 224.017C186.807 223.903 186.543 223.803 186.242 223.715L185.372 223.46C184.802 223.289 184.359 223.054 184.044 222.753C183.729 222.452 183.572 222.069 183.572 221.602C183.572 221.212 183.676 220.868 183.884 220.572C184.095 220.274 184.379 220.042 184.736 219.876C185.096 219.708 185.5 219.624 185.947 219.624C186.4 219.624 186.8 219.707 187.148 219.873C187.496 220.039 187.772 220.267 187.975 220.558C188.181 220.847 188.291 221.176 188.305 221.545H187.663ZM189.962 220.324V219.727H195.236V220.324H192.931V227H192.267V220.324H189.962ZM197.131 227V219.727H199.478C199.994 219.727 200.425 219.821 200.771 220.008C201.119 220.192 201.38 220.449 201.556 220.778C201.733 221.105 201.822 221.48 201.822 221.904C201.822 222.328 201.733 222.702 201.556 223.026C201.38 223.351 201.12 223.604 200.774 223.786C200.429 223.969 200 224.06 199.489 224.06H197.49V223.452H199.471C199.85 223.452 200.165 223.39 200.416 223.264C200.669 223.139 200.857 222.96 200.98 222.728C201.106 222.496 201.169 222.221 201.169 221.904C201.169 221.587 201.106 221.31 200.98 221.073C200.855 220.834 200.666 220.649 200.412 220.519C200.161 220.389 199.844 220.324 199.46 220.324H197.795V227H197.131ZM200.338 223.719L202.127 227H201.36L199.588 223.719H200.338ZM203.85 227H203.154L205.8 219.727H206.51L209.156 227H208.46L206.18 220.59H206.13L203.85 227ZM204.351 224.212H207.959V224.809H204.351V224.212ZM206.155 219.276C205.89 219.276 205.664 219.184 205.477 218.999C205.292 218.812 205.2 218.586 205.2 218.321C205.2 218.143 205.242 217.982 205.327 217.838C205.413 217.694 205.528 217.579 205.672 217.494C205.819 217.408 205.98 217.366 206.155 217.366C206.332 217.366 206.493 217.408 206.638 217.494C206.782 217.579 206.897 217.694 206.982 217.838C207.068 217.982 207.11 218.143 207.11 218.321C207.11 218.496 207.068 218.657 206.982 218.804C206.897 218.948 206.782 219.063 206.638 219.148C206.493 219.234 206.332 219.276 206.155 219.276ZM206.155 218.861C206.306 218.861 206.433 218.809 206.535 218.705C206.639 218.598 206.691 218.47 206.691 218.321C206.691 218.17 206.639 218.042 206.535 217.938C206.433 217.833 206.306 217.781 206.155 217.781C206.003 217.781 205.876 217.835 205.771 217.941C205.67 218.045 205.619 218.172 205.619 218.321C205.619 218.473 205.67 218.6 205.771 218.705C205.876 218.809 206.003 218.861 206.155 218.861ZM210.802 227V219.727H211.466V226.403H214.932V227H210.802ZM217.491 219.727V227H216.827V219.727H217.491ZM225.489 219.727V227H224.842L220.546 220.91H220.489V227H219.825V219.727H220.467L224.779 225.825H224.835V219.727H225.489ZM232.854 222C232.788 221.759 232.691 221.532 232.563 221.322C232.435 221.109 232.277 220.923 232.087 220.764C231.9 220.603 231.684 220.478 231.437 220.388C231.194 220.298 230.921 220.253 230.621 220.253C230.147 220.253 229.723 220.376 229.349 220.622C228.975 220.868 228.679 221.223 228.462 221.688C228.246 222.152 228.138 222.71 228.138 223.364C228.138 224.015 228.247 224.572 228.465 225.036C228.683 225.5 228.981 225.857 229.36 226.105C229.741 226.351 230.177 226.474 230.667 226.474C231.114 226.474 231.51 226.375 231.853 226.176C232.196 225.977 232.464 225.693 232.655 225.324C232.85 224.955 232.944 224.515 232.94 224.006L233.153 224.074H230.823V223.477H233.586V224.074C233.586 224.694 233.46 225.23 233.209 225.683C232.958 226.135 232.614 226.484 232.176 226.73C231.738 226.976 231.235 227.099 230.667 227.099C230.032 227.099 229.477 226.947 229.001 226.641C228.525 226.334 228.155 225.9 227.89 225.342C227.627 224.781 227.496 224.121 227.496 223.364C227.496 222.793 227.571 222.278 227.723 221.819C227.874 221.36 228.089 220.967 228.366 220.64C228.645 220.313 228.975 220.063 229.356 219.891C229.738 219.715 230.159 219.628 230.621 219.628C231.018 219.628 231.382 219.691 231.711 219.816C232.042 219.942 232.333 220.114 232.584 220.335C232.838 220.552 233.045 220.804 233.206 221.091C233.369 221.375 233.479 221.678 233.536 222H232.854Z" fill="#747480"/>
<path d="M196.472 238.063C196.279 238.063 196.114 237.993 195.976 237.855C195.838 237.717 195.769 237.552 195.769 237.359C195.769 237.167 195.838 237.001 195.976 236.863C196.114 236.725 196.279 236.656 196.472 236.656C196.664 236.656 196.83 236.725 196.968 236.863C197.106 237.001 197.175 237.167 197.175 237.359C197.175 237.487 197.142 237.604 197.077 237.711C197.015 237.818 196.93 237.904 196.823 237.969C196.719 238.031 196.602 238.063 196.472 238.063ZM199.501 238.063C199.308 238.063 199.143 237.993 199.005 237.855C198.867 237.717 198.798 237.552 198.798 237.359C198.798 237.167 198.867 237.001 199.005 236.863C199.143 236.725 199.308 236.656 199.501 236.656C199.694 236.656 199.859 236.725 199.997 236.863C200.135 237.001 200.204 237.167 200.204 237.359C200.204 237.487 200.172 237.604 200.106 237.711C200.044 237.818 199.959 237.904 199.853 237.969C199.748 238.031 199.631 238.063 199.501 238.063ZM202.53 238.063C202.338 238.063 202.172 237.993 202.034 237.855C201.896 237.717 201.827 237.552 201.827 237.359C201.827 237.167 201.896 237.001 202.034 236.863C202.172 236.725 202.338 236.656 202.53 236.656C202.723 236.656 202.888 236.725 203.026 236.863C203.164 237.001 203.233 237.167 203.233 237.359C203.233 237.487 203.201 237.604 203.136 237.711C203.073 237.818 202.989 237.904 202.882 237.969C202.778 238.031 202.66 238.063 202.53 238.063Z" fill="#E4E4E4"/>
<path d="M181.372 93.1989C180.311 93.1989 179.367 93.0166 178.538 92.652C177.714 92.2827 177.063 91.776 176.585 91.1321C176.111 90.4834 175.868 89.7353 175.853 88.8878H178.95C178.969 89.2429 179.085 89.5554 179.298 89.8253C179.516 90.0904 179.805 90.2964 180.164 90.4432C180.524 90.59 180.929 90.6634 181.379 90.6634C181.848 90.6634 182.262 90.5805 182.622 90.4148C182.982 90.2491 183.263 90.0194 183.467 89.7259C183.671 89.4323 183.772 89.0937 183.772 88.7102C183.772 88.322 183.663 87.9787 183.446 87.6804C183.233 87.3774 182.925 87.1406 182.522 86.9702C182.125 86.7997 181.651 86.7145 181.102 86.7145H179.745V84.456H181.102C181.566 84.456 181.975 84.3755 182.331 84.2145C182.69 84.0535 182.97 83.831 183.169 83.5469C183.368 83.258 183.467 82.9219 183.467 82.5384C183.467 82.1738 183.379 81.8542 183.204 81.5795C183.034 81.3002 182.792 81.0824 182.48 80.9261C182.172 80.7699 181.812 80.6918 181.4 80.6918C180.984 80.6918 180.602 80.7675 180.257 80.919C179.911 81.0658 179.634 81.2765 179.426 81.5511C179.217 81.8258 179.106 82.1477 179.092 82.517H176.145C176.159 81.679 176.398 80.9403 176.862 80.3011C177.326 79.6619 177.951 79.1624 178.737 78.8026C179.528 78.438 180.42 78.2557 181.414 78.2557C182.418 78.2557 183.297 78.438 184.049 78.8026C184.802 79.1671 185.387 79.6596 185.804 80.2798C186.225 80.8954 186.433 81.5866 186.429 82.3537C186.433 83.1681 186.18 83.8475 185.669 84.392C185.162 84.9366 184.502 85.2822 183.687 85.429V85.5426C184.757 85.6799 185.572 86.0516 186.13 86.6577C186.694 87.259 186.973 88.0118 186.968 88.9162C186.973 89.7448 186.734 90.4811 186.251 91.125C185.773 91.7689 185.112 92.2756 184.27 92.6449C183.427 93.0142 182.461 93.1989 181.372 93.1989Z" fill="white"/>
<path d="M242.404 99.4432V97.0213L248.477 87.4545H250.565V90.8068H249.329L245.501 96.8651V96.9787H254.13V99.4432H242.404ZM249.386 102V98.7045L249.442 97.6321V87.4545H252.326V102H249.386Z" fill="white"/>
<path d="M296.601 141.199C295.597 141.199 294.702 141.014 293.916 140.645C293.135 140.276 292.515 139.767 292.055 139.118C291.596 138.469 291.357 137.726 291.338 136.888H294.321C294.354 137.451 294.591 137.908 295.031 138.259C295.472 138.609 295.995 138.784 296.601 138.784C297.084 138.784 297.51 138.678 297.879 138.464C298.253 138.247 298.545 137.946 298.753 137.562C298.966 137.174 299.072 136.729 299.072 136.227C299.072 135.716 298.964 135.266 298.746 134.878C298.533 134.49 298.237 134.187 297.858 133.969C297.479 133.751 297.046 133.64 296.558 133.635C296.132 133.635 295.718 133.723 295.315 133.898C294.918 134.073 294.607 134.312 294.385 134.615L291.651 134.125L292.339 126.455H301.232V128.969H294.875L294.499 132.612H294.584C294.839 132.252 295.225 131.954 295.741 131.717C296.258 131.481 296.835 131.362 297.474 131.362C298.35 131.362 299.132 131.568 299.818 131.98C300.505 132.392 301.047 132.958 301.445 133.678C301.842 134.393 302.039 135.216 302.034 136.149C302.039 137.129 301.812 138 301.352 138.763C300.898 139.52 300.261 140.117 299.442 140.553C298.627 140.983 297.68 141.199 296.601 141.199Z" fill="white"/>
<path d="M311.558 200.199C310.81 200.194 310.088 200.069 309.392 199.822C308.701 199.576 308.08 199.176 307.531 198.622C306.982 198.068 306.546 197.334 306.224 196.42C305.907 195.507 305.749 194.384 305.749 193.054C305.753 191.832 305.893 190.741 306.168 189.78C306.447 188.814 306.845 187.995 307.361 187.322C307.882 186.65 308.504 186.139 309.229 185.788C309.953 185.433 310.765 185.256 311.665 185.256C312.635 185.256 313.492 185.445 314.236 185.824C314.979 186.198 315.576 186.707 316.026 187.351C316.48 187.995 316.755 188.717 316.849 189.517H313.817C313.698 189.01 313.45 188.613 313.071 188.324C312.692 188.035 312.223 187.891 311.665 187.891C310.718 187.891 309.998 188.303 309.506 189.126C309.018 189.95 308.769 191.07 308.76 192.486H308.859C309.077 192.055 309.371 191.688 309.74 191.385C310.114 191.077 310.538 190.843 311.011 190.682C311.49 190.516 311.994 190.433 312.524 190.433C313.386 190.433 314.153 190.637 314.825 191.044C315.498 191.446 316.028 192 316.416 192.706C316.804 193.411 316.999 194.219 316.999 195.128C316.999 196.113 316.769 196.989 316.31 197.756C315.855 198.523 315.218 199.124 314.399 199.56C313.585 199.991 312.638 200.204 311.558 200.199ZM311.544 197.784C312.018 197.784 312.441 197.67 312.815 197.443C313.189 197.216 313.483 196.908 313.696 196.52C313.909 196.132 314.016 195.696 314.016 195.213C314.016 194.73 313.909 194.297 313.696 193.913C313.488 193.53 313.199 193.224 312.83 192.997C312.46 192.77 312.039 192.656 311.565 192.656C311.21 192.656 310.881 192.723 310.578 192.855C310.28 192.988 310.017 193.172 309.79 193.409C309.567 193.646 309.392 193.92 309.264 194.233C309.136 194.541 309.072 194.87 309.072 195.22C309.072 195.689 309.179 196.117 309.392 196.506C309.61 196.894 309.903 197.204 310.273 197.436C310.647 197.668 311.071 197.784 311.544 197.784Z" fill="white"/>
<path fill-rule="evenodd" clip-rule="evenodd" d="M186.394 170.614H181.562V173.836H186.394V170.614ZM200.892 154.586H197.67V159.338H200.892V154.586ZM212.167 173.836H217V170.614H212.167V173.836ZM199.281 162.56C193.949 162.56 189.616 166.893 189.616 172.225C189.616 177.557 193.949 181.89 199.281 181.89C204.613 181.89 208.946 177.557 208.946 172.225C208.946 166.893 204.613 162.56 199.281 162.56ZM200.892 189.864V185.112H197.67V189.864H200.892ZM193.903 159.678L191.849 156.142L189.067 157.748L191.106 161.279L193.903 159.678ZM215.363 164.794L213.757 162.012L210.225 164.051L211.831 166.833L215.363 164.794ZM204.656 184.772L206.691 188.319L209.473 186.713L207.418 183.177L204.656 184.772ZM183.197 179.656L184.803 182.437L188.339 180.383L186.733 177.601L183.197 179.656ZM209.498 157.754L207.464 161.301L204.678 159.679L206.717 156.148L209.498 157.754ZM215.369 179.661L213.762 182.443L210.231 180.404L211.837 177.622L215.369 179.661ZM189.053 186.696L191.108 183.16L193.87 184.755L191.835 188.302L189.053 186.696ZM183.203 164.799L184.809 162.018L188.356 164.052L186.75 166.834L183.203 164.799Z" fill="#FF9831"/>
<mask id="path-18-outside-1_178_297" maskUnits="userSpaceOnUse" x="237" y="206" width="129" height="126" fill="black">
<rect fill="white" x="237" y="206" width="129" height="126"/>
<path d="M359.198 240.227C348.559 273.378 328.733 302.83 302.023 325.162L243.011 254.581C256.366 243.415 266.28 228.689 271.599 212.114L359.198 240.227Z"/>
</mask>
<path d="M359.198 240.227C348.559 273.378 328.733 302.83 302.023 325.162L243.011 254.581C256.366 243.415 266.28 228.689 271.599 212.114L359.198 240.227Z" fill="#F0881F"/>
<path d="M359.198 240.227C348.559 273.378 328.733 302.83 302.023 325.162L243.011 254.581C256.366 243.415 266.28 228.689 271.599 212.114L359.198 240.227Z" stroke="#CF6300" stroke-width="12" stroke-linejoin="round" mask="url(#path-18-outside-1_178_297)"/>
<path d="M288.776 274L298.423 254.909V254.75H287.185V250.727H303.514V254.807L293.855 274H288.776Z" fill="white"/>
</svg>
