<svg width="308" height="313" viewBox="0 0 308 313" fill="none" xmlns="http://www.w3.org/2000/svg">
<path d="M0 159C2.58068e-06 129.48 8.48419 100.583 24.4422 75.7487C40.4002 50.9144 63.1596 31.1899 90.0101 18.924L122.005 88.962C108.58 95.0949 97.2001 104.957 89.2211 117.374C81.2421 129.791 77 144.24 77 159L0 159Z" fill="#AAE47C"/>
<path d="M25.1643 243.364C8.79239 218.362 0.0489677 189.137 0.000204995 159.251L77.0001 159.126C77.0245 174.068 81.3962 188.681 89.5822 201.182L25.1643 243.364Z" fill="#724BC3"/>
<path d="M89.0288 19.3764C109.042 10.0638 130.822 5.16231 152.895 5.00396C174.968 4.84562 196.817 9.43418 216.961 18.4587C237.106 27.4832 255.075 40.7327 269.65 57.3092C284.226 73.8858 295.068 93.4021 301.441 114.535L227.721 136.768C224.534 126.201 219.113 116.443 211.825 108.155C204.537 99.8663 195.553 93.2416 185.481 88.7293C175.409 84.2171 164.484 81.9228 153.448 82.002C142.411 82.0812 131.521 84.5319 121.514 89.1882L89.0288 19.3764Z" fill="#FFD600"/>
<path d="M255.8 274.554C239.237 289.145 219.731 300.006 198.604 306.399C177.477 312.792 155.222 314.569 133.348 311.609C111.474 308.649 90.4921 301.021 71.8239 289.242C53.1558 277.464 37.2379 261.81 25.149 243.341L89.5745 201.171C95.6189 210.405 103.578 218.232 112.912 224.121C122.246 230.011 132.737 233.824 143.674 235.304C154.611 236.785 165.738 235.896 176.302 232.7C186.866 229.503 196.619 224.073 204.9 216.777L255.8 274.554Z" fill="#E0362C"/>
<path d="M301.403 114.408C309.95 142.663 310.197 172.779 302.114 201.17C294.03 229.561 277.957 255.031 255.809 274.546L204.904 216.773C215.979 207.016 224.015 194.281 228.057 180.085C232.099 165.89 231.975 150.832 227.701 136.704L301.403 114.408Z" fill="#FF9831"/>
<path d="M43.7219 121.455V136H40.6467V124.374H40.5614L37.2305 126.462V123.734L40.8313 121.455H43.7219Z" fill="white"/>
<path d="M139.372 54.1989C138.311 54.1989 137.367 54.0166 136.538 53.652C135.714 53.2827 135.063 52.776 134.585 52.1321C134.111 51.4834 133.868 50.7353 133.853 49.8878H136.95C136.969 50.2429 137.085 50.5554 137.298 50.8253C137.516 51.0904 137.805 51.2964 138.164 51.4432C138.524 51.59 138.929 51.6634 139.379 51.6634C139.848 51.6634 140.262 51.5805 140.622 51.4148C140.982 51.2491 141.263 51.0194 141.467 50.7259C141.671 50.4323 141.772 50.0937 141.772 49.7102C141.772 49.322 141.663 48.9787 141.446 48.6804C141.233 48.3774 140.925 48.1406 140.522 47.9702C140.125 47.7997 139.651 47.7145 139.102 47.7145H137.745V45.456H139.102C139.566 45.456 139.975 45.3755 140.331 45.2145C140.69 45.0535 140.97 44.831 141.169 44.5469C141.368 44.258 141.467 43.9219 141.467 43.5384C141.467 43.1738 141.379 42.8542 141.204 42.5795C141.034 42.3002 140.792 42.0824 140.48 41.9261C140.172 41.7699 139.812 41.6918 139.4 41.6918C138.984 41.6918 138.602 41.7675 138.257 41.919C137.911 42.0658 137.634 42.2765 137.426 42.5511C137.217 42.8258 137.106 43.1477 137.092 43.517H134.145C134.159 42.679 134.398 41.9403 134.862 41.3011C135.326 40.6619 135.951 40.1624 136.737 39.8026C137.528 39.438 138.42 39.2557 139.414 39.2557C140.418 39.2557 141.297 39.438 142.049 39.8026C142.802 40.1671 143.387 40.6596 143.804 41.2798C144.225 41.8954 144.433 42.5866 144.429 43.3537C144.433 44.1681 144.18 44.8475 143.669 45.392C143.162 45.9366 142.502 46.2822 141.687 46.429V46.5426C142.757 46.6799 143.572 47.0516 144.13 47.6577C144.694 48.259 144.973 49.0118 144.968 49.9162C144.973 50.7448 144.734 51.4811 144.251 52.125C143.773 52.7689 143.112 53.2756 142.27 53.6449C141.427 54.0142 140.461 54.1989 139.372 54.1989Z" fill="white"/>
<path d="M195.404 58.4432V56.0213L201.477 46.4545H203.565V49.8068H202.329L198.501 55.8651V55.9787H207.13V58.4432H195.404ZM202.386 61V57.7045L202.442 56.6321V46.4545H205.326V61H202.386Z" fill="white"/>
<path d="M249.601 98.1989C248.597 98.1989 247.702 98.0142 246.916 97.6449C246.135 97.2756 245.515 96.7666 245.055 96.1179C244.596 95.4692 244.357 94.7259 244.338 93.8878H247.321C247.354 94.4512 247.591 94.9081 248.031 95.2585C248.472 95.6089 248.995 95.7841 249.601 95.7841C250.084 95.7841 250.51 95.6776 250.879 95.4645C251.253 95.2467 251.545 94.946 251.753 94.5625C251.966 94.1742 252.072 93.7292 252.072 93.2273C252.072 92.7159 251.964 92.2661 251.746 91.8778C251.533 91.4896 251.237 91.1866 250.858 90.9688C250.479 90.7509 250.046 90.6397 249.558 90.6349C249.132 90.6349 248.718 90.7225 248.315 90.8977C247.918 91.0729 247.607 91.312 247.385 91.6151L244.651 91.125L245.339 83.4545H254.232V85.9688H247.875L247.499 89.6122H247.584C247.839 89.2524 248.225 88.9541 248.741 88.7173C249.258 88.4806 249.835 88.3622 250.474 88.3622C251.35 88.3622 252.132 88.5682 252.818 88.9801C253.505 89.392 254.047 89.9579 254.445 90.6776C254.842 91.3925 255.039 92.2164 255.034 93.1491C255.039 94.1293 254.812 95.0005 254.352 95.7628C253.898 96.5204 253.261 97.117 252.442 97.5526C251.627 97.9834 250.68 98.1989 249.601 98.1989Z" fill="white"/>
<path d="M266.558 171.199C265.81 171.194 265.088 171.069 264.392 170.822C263.701 170.576 263.08 170.176 262.531 169.622C261.982 169.068 261.546 168.334 261.224 167.42C260.907 166.507 260.749 165.384 260.749 164.054C260.753 162.832 260.893 161.741 261.168 160.78C261.447 159.814 261.845 158.995 262.361 158.322C262.882 157.65 263.504 157.139 264.229 156.788C264.953 156.433 265.765 156.256 266.665 156.256C267.635 156.256 268.492 156.445 269.236 156.824C269.979 157.198 270.576 157.707 271.026 158.351C271.48 158.995 271.755 159.717 271.849 160.517H268.817C268.698 160.01 268.45 159.613 268.071 159.324C267.692 159.035 267.223 158.891 266.665 158.891C265.718 158.891 264.998 159.303 264.506 160.126C264.018 160.95 263.769 162.07 263.76 163.486H263.859C264.077 163.055 264.371 162.688 264.74 162.385C265.114 162.077 265.538 161.843 266.011 161.682C266.49 161.516 266.994 161.433 267.524 161.433C268.386 161.433 269.153 161.637 269.825 162.044C270.498 162.446 271.028 163 271.416 163.706C271.804 164.411 271.999 165.219 271.999 166.128C271.999 167.113 271.769 167.989 271.31 168.756C270.855 169.523 270.218 170.124 269.399 170.56C268.585 170.991 267.638 171.204 266.558 171.199ZM266.544 168.784C267.018 168.784 267.441 168.67 267.815 168.443C268.189 168.216 268.483 167.908 268.696 167.52C268.909 167.132 269.016 166.696 269.016 166.213C269.016 165.73 268.909 165.297 268.696 164.913C268.488 164.53 268.199 164.224 267.83 163.997C267.46 163.77 267.039 163.656 266.565 163.656C266.21 163.656 265.881 163.723 265.578 163.855C265.28 163.988 265.017 164.172 264.79 164.409C264.567 164.646 264.392 164.92 264.264 165.233C264.136 165.541 264.072 165.87 264.072 166.22C264.072 166.689 264.179 167.117 264.392 167.506C264.61 167.894 264.903 168.204 265.273 168.436C265.647 168.668 266.071 168.784 266.544 168.784Z" fill="white"/>
<path d="M247.86 225L253.89 213.068V212.969H246.865V210.455H257.071V213.004L251.034 225H247.86Z" fill="white"/>
<path d="M202.382 273.199C201.289 273.199 200.316 273.021 199.463 272.666C198.616 272.306 197.951 271.816 197.468 271.196C196.985 270.576 196.743 269.873 196.743 269.087C196.743 268.481 196.881 267.924 197.155 267.418C197.435 266.906 197.813 266.482 198.292 266.146C198.77 265.805 199.305 265.588 199.897 265.493V265.393C199.12 265.237 198.49 264.861 198.007 264.264C197.525 263.663 197.283 262.964 197.283 262.169C197.283 261.416 197.503 260.746 197.944 260.159C198.384 259.567 198.988 259.103 199.755 258.767C200.526 258.426 201.402 258.256 202.382 258.256C203.363 258.256 204.236 258.426 205.003 258.767C205.775 259.108 206.381 259.574 206.821 260.166C207.262 260.753 207.484 261.421 207.489 262.169C207.484 262.969 207.238 263.668 206.75 264.264C206.263 264.861 205.638 265.237 204.875 265.393V265.493C205.458 265.588 205.986 265.805 206.459 266.146C206.937 266.482 207.316 266.906 207.596 267.418C207.88 267.924 208.024 268.481 208.029 269.087C208.024 269.873 207.78 270.576 207.297 271.196C206.814 271.816 206.147 272.306 205.294 272.666C204.447 273.021 203.476 273.199 202.382 273.199ZM202.382 270.94C202.87 270.94 203.296 270.853 203.661 270.678C204.025 270.498 204.31 270.251 204.513 269.939C204.721 269.622 204.826 269.257 204.826 268.845C204.826 268.424 204.719 268.052 204.506 267.73C204.293 267.403 204.004 267.148 203.64 266.963C203.275 266.774 202.856 266.679 202.382 266.679C201.914 266.679 201.495 266.774 201.125 266.963C200.756 267.148 200.465 267.403 200.252 267.73C200.043 268.052 199.939 268.424 199.939 268.845C199.939 269.257 200.041 269.622 200.245 269.939C200.448 270.251 200.735 270.498 201.104 270.678C201.473 270.853 201.9 270.94 202.382 270.94ZM202.382 264.442C202.79 264.442 203.152 264.359 203.469 264.193C203.786 264.027 204.035 263.798 204.215 263.504C204.395 263.211 204.485 262.872 204.485 262.489C204.485 262.11 204.395 261.778 204.215 261.494C204.035 261.205 203.789 260.981 203.476 260.82C203.164 260.654 202.799 260.571 202.382 260.571C201.971 260.571 201.606 260.654 201.289 260.82C200.971 260.981 200.723 261.205 200.543 261.494C200.368 261.778 200.28 262.11 200.28 262.489C200.28 262.872 200.37 263.211 200.55 263.504C200.73 263.798 200.979 264.027 201.296 264.193C201.613 264.359 201.975 264.442 202.382 264.442Z" fill="white"/>
<path d="M142.239 268.256C142.987 268.256 143.706 268.381 144.398 268.632C145.094 268.883 145.714 269.283 146.259 269.832C146.808 270.382 147.241 271.111 147.558 272.02C147.88 272.924 148.044 274.035 148.048 275.351C148.048 276.587 147.909 277.69 147.629 278.661C147.355 279.626 146.959 280.448 146.443 281.125C145.927 281.802 145.304 282.318 144.575 282.673C143.846 283.024 143.032 283.199 142.132 283.199C141.161 283.199 140.304 283.012 139.561 282.638C138.818 282.259 138.219 281.745 137.764 281.097C137.314 280.443 137.042 279.709 136.947 278.895H139.98C140.098 279.425 140.347 279.837 140.726 280.131C141.105 280.42 141.573 280.564 142.132 280.564C143.079 280.564 143.799 280.152 144.291 279.328C144.784 278.5 145.032 277.366 145.037 275.926H144.938C144.72 276.352 144.426 276.719 144.057 277.027C143.688 277.33 143.264 277.564 142.786 277.73C142.312 277.896 141.808 277.979 141.273 277.979C140.416 277.979 139.651 277.777 138.979 277.375C138.306 276.973 137.776 276.419 137.388 275.713C137 275.008 136.805 274.203 136.805 273.298C136.801 272.323 137.026 271.454 137.48 270.692C137.935 269.929 138.569 269.333 139.384 268.902C140.203 268.466 141.154 268.251 142.239 268.256ZM142.26 270.67C141.782 270.67 141.356 270.784 140.982 271.011C140.612 271.239 140.319 271.544 140.101 271.928C139.888 272.311 139.784 272.74 139.788 273.213C139.788 273.691 139.893 274.122 140.101 274.506C140.314 274.884 140.603 275.187 140.967 275.415C141.337 275.637 141.758 275.749 142.232 275.749C142.587 275.749 142.916 275.682 143.219 275.55C143.522 275.417 143.785 275.235 144.007 275.003C144.234 274.766 144.412 274.494 144.54 274.186C144.668 273.878 144.732 273.552 144.732 273.206C144.727 272.747 144.618 272.325 144.405 271.942C144.192 271.558 143.898 271.25 143.524 271.018C143.15 270.786 142.729 270.67 142.26 270.67Z" fill="white"/>
<path d="M77.9524 243.455V258H74.8771V246.374H74.7919L71.4609 248.462V245.734L75.0618 243.455H77.9524ZM87.1126 258.32C85.891 258.315 84.8398 258.014 83.9592 257.418C83.0832 256.821 82.4085 255.957 81.935 254.825C81.4663 253.694 81.2343 252.332 81.239 250.741C81.239 249.155 81.4734 247.804 81.9421 246.686C82.4156 245.569 83.0903 244.719 83.9663 244.136C84.8469 243.549 85.8957 243.256 87.1126 243.256C88.3294 243.256 89.3758 243.549 90.2518 244.136C91.1325 244.723 91.8095 245.576 92.283 246.693C92.7565 247.806 92.9909 249.155 92.9862 250.741C92.9862 252.337 92.7494 253.701 92.2759 254.832C91.8072 255.964 91.1348 256.828 90.2589 257.425C89.3829 258.021 88.3342 258.32 87.1126 258.32ZM87.1126 255.77C87.9459 255.77 88.6112 255.351 89.1083 254.513C89.6055 253.675 89.8517 252.418 89.8469 250.741C89.8469 249.638 89.7333 248.72 89.506 247.986C89.2835 247.252 88.9663 246.7 88.5543 246.331C88.1471 245.962 87.6665 245.777 87.1126 245.777C86.284 245.777 85.6211 246.191 85.1239 247.02C84.6268 247.848 84.3758 249.089 84.3711 250.741C84.3711 251.859 84.4824 252.792 84.7049 253.54C84.9322 254.283 85.2518 254.842 85.6637 255.216C86.0756 255.585 86.5586 255.77 87.1126 255.77Z" fill="white"/>
<path d="M40.9368 186.455V201H37.8615V189.374H37.7763L34.4453 191.462V188.734L38.0462 186.455H40.9368ZM50.7219 186.455V201H47.6467V189.374H47.5614L44.2305 191.462V188.734L47.8313 186.455H50.7219Z" fill="white"/>
<g style="mix-blend-mode:multiply">
<path d="M137.703 177V165.364H139.811V175.233H144.936V177H137.703ZM149.337 177H147.087L151.184 165.364H153.786L157.888 177H155.638L152.531 167.75H152.44L149.337 177ZM149.411 172.438H155.548V174.131H149.411V172.438ZM152.485 164.648C152.012 164.648 151.606 164.483 151.269 164.153C150.936 163.824 150.769 163.426 150.769 162.96C150.769 162.65 150.845 162.367 150.996 162.114C151.152 161.856 151.36 161.652 151.621 161.5C151.883 161.348 152.171 161.273 152.485 161.273C152.803 161.273 153.091 161.348 153.349 161.5C153.61 161.652 153.817 161.856 153.968 162.114C154.123 162.367 154.201 162.65 154.201 162.96C154.201 163.271 154.123 163.555 153.968 163.812C153.817 164.066 153.61 164.269 153.349 164.42C153.091 164.572 152.803 164.648 152.485 164.648ZM152.485 163.733C152.705 163.729 152.89 163.653 153.042 163.506C153.193 163.354 153.269 163.172 153.269 162.96C153.269 162.748 153.193 162.566 153.042 162.415C152.894 162.263 152.709 162.189 152.485 162.193C152.265 162.193 152.08 162.269 151.928 162.42C151.781 162.568 151.707 162.748 151.707 162.96C151.707 163.172 151.781 163.354 151.928 163.506C152.08 163.657 152.265 163.733 152.485 163.733ZM167.31 169.08C167.215 168.773 167.084 168.498 166.918 168.256C166.755 168.009 166.558 167.799 166.327 167.625C166.1 167.451 165.838 167.32 165.543 167.233C165.247 167.142 164.925 167.097 164.577 167.097C163.952 167.097 163.395 167.254 162.906 167.568C162.418 167.883 162.033 168.345 161.753 168.955C161.476 169.561 161.338 170.299 161.338 171.17C161.338 172.049 161.476 172.794 161.753 173.403C162.029 174.013 162.414 174.477 162.906 174.795C163.399 175.11 163.971 175.267 164.622 175.267C165.213 175.267 165.725 175.153 166.156 174.926C166.592 174.699 166.927 174.377 167.162 173.96C167.397 173.54 167.514 173.047 167.514 172.483L167.992 172.557H164.832V170.909H169.554V172.307C169.554 173.303 169.342 174.165 168.918 174.892C168.493 175.619 167.91 176.18 167.168 176.574C166.425 176.964 165.573 177.159 164.611 177.159C163.539 177.159 162.598 176.919 161.787 176.438C160.98 175.953 160.35 175.265 159.895 174.375C159.444 173.481 159.219 172.42 159.219 171.193C159.219 170.254 159.351 169.415 159.617 168.676C159.886 167.938 160.261 167.311 160.742 166.795C161.223 166.277 161.787 165.883 162.435 165.614C163.082 165.341 163.787 165.205 164.548 165.205C165.192 165.205 165.793 165.299 166.35 165.489C166.906 165.674 167.401 165.939 167.832 166.284C168.268 166.629 168.626 167.038 168.906 167.511C169.187 167.985 169.37 168.508 169.457 169.08H167.31Z" fill="black"/>
<path d="M124.545 182.727H125.209V187.543C125.209 188.037 125.093 188.48 124.861 188.871C124.629 189.259 124.306 189.566 123.891 189.79C123.479 190.013 123 190.124 122.453 190.124C121.909 190.124 121.429 190.012 121.015 189.787C120.601 189.562 120.277 189.255 120.045 188.867C119.813 188.479 119.697 188.037 119.697 187.543V182.727H120.361V187.496C120.361 187.882 120.448 188.227 120.621 188.53C120.793 188.83 121.036 189.067 121.349 189.24C121.664 189.413 122.032 189.499 122.453 189.499C122.874 189.499 123.243 189.413 123.557 189.24C123.872 189.067 124.115 188.83 124.285 188.53C124.458 188.227 124.545 187.882 124.545 187.496V182.727ZM127.549 182.727L129.822 189.137H129.886L132.159 182.727H132.855L130.209 190H129.499L126.853 182.727H127.549ZM141.663 184.545C141.622 184.141 141.444 183.819 141.126 183.58C140.809 183.34 140.41 183.221 139.93 183.221C139.591 183.221 139.293 183.279 139.035 183.395C138.779 183.511 138.578 183.672 138.431 183.878C138.287 184.081 138.214 184.313 138.214 184.574C138.214 184.766 138.256 184.934 138.339 185.078C138.422 185.223 138.533 185.347 138.673 185.451C138.815 185.553 138.971 185.64 139.141 185.714C139.314 185.787 139.488 185.849 139.663 185.898L140.43 186.119C140.662 186.183 140.894 186.264 141.126 186.364C141.358 186.463 141.57 186.589 141.762 186.74C141.956 186.889 142.111 187.073 142.227 187.29C142.346 187.506 142.405 187.765 142.405 188.068C142.405 188.456 142.304 188.806 142.103 189.116C141.902 189.426 141.613 189.672 141.236 189.854C140.86 190.034 140.409 190.124 139.884 190.124C139.389 190.124 138.959 190.043 138.594 189.879C138.23 189.714 137.943 189.485 137.735 189.194C137.527 188.903 137.41 188.565 137.384 188.182H138.065C138.089 188.468 138.184 188.711 138.349 188.91C138.515 189.109 138.731 189.26 138.996 189.364C139.261 189.466 139.557 189.517 139.884 189.517C140.246 189.517 140.568 189.457 140.849 189.336C141.134 189.213 141.356 189.042 141.517 188.825C141.68 188.604 141.762 188.349 141.762 188.058C141.762 187.811 141.698 187.605 141.57 187.44C141.442 187.272 141.264 187.131 141.034 187.017C140.807 186.903 140.543 186.803 140.242 186.715L139.372 186.46C138.802 186.289 138.359 186.054 138.044 185.753C137.729 185.452 137.572 185.069 137.572 184.602C137.572 184.212 137.676 183.868 137.884 183.572C138.095 183.274 138.379 183.042 138.736 182.876C139.096 182.708 139.5 182.624 139.947 182.624C140.4 182.624 140.8 182.707 141.148 182.873C141.496 183.039 141.772 183.267 141.975 183.558C142.181 183.847 142.291 184.176 142.305 184.545H141.663ZM143.962 183.324V182.727H149.236V183.324H146.931V190H146.267V183.324H143.962ZM151.131 190V182.727H153.478C153.994 182.727 154.425 182.821 154.771 183.008C155.119 183.192 155.38 183.449 155.556 183.778C155.733 184.105 155.822 184.48 155.822 184.904C155.822 185.328 155.733 185.702 155.556 186.026C155.38 186.351 155.12 186.604 154.774 186.786C154.429 186.969 154 187.06 153.489 187.06H151.49V186.452H153.471C153.85 186.452 154.165 186.39 154.416 186.264C154.669 186.139 154.857 185.96 154.98 185.728C155.106 185.496 155.169 185.221 155.169 184.904C155.169 184.587 155.106 184.31 154.98 184.073C154.855 183.834 154.666 183.649 154.412 183.519C154.161 183.389 153.844 183.324 153.46 183.324H151.795V190H151.131ZM154.338 186.719L156.127 190H155.36L153.588 186.719H154.338ZM157.85 190H157.154L159.8 182.727H160.51L163.156 190H162.46L160.18 183.59H160.13L157.85 190ZM158.351 187.212H161.959V187.809H158.351V187.212ZM160.155 182.276C159.89 182.276 159.664 182.184 159.477 181.999C159.292 181.812 159.2 181.586 159.2 181.321C159.2 181.143 159.242 180.982 159.327 180.838C159.413 180.694 159.528 180.579 159.672 180.494C159.819 180.408 159.98 180.366 160.155 180.366C160.332 180.366 160.493 180.408 160.638 180.494C160.782 180.579 160.897 180.694 160.982 180.838C161.068 180.982 161.11 181.143 161.11 181.321C161.11 181.496 161.068 181.657 160.982 181.804C160.897 181.948 160.782 182.063 160.638 182.148C160.493 182.234 160.332 182.276 160.155 182.276ZM160.155 181.861C160.306 181.861 160.433 181.809 160.535 181.705C160.639 181.598 160.691 181.47 160.691 181.321C160.691 181.17 160.639 181.042 160.535 180.938C160.433 180.833 160.306 180.781 160.155 180.781C160.003 180.781 159.876 180.835 159.771 180.941C159.67 181.045 159.619 181.172 159.619 181.321C159.619 181.473 159.67 181.6 159.771 181.705C159.876 181.809 160.003 181.861 160.155 181.861ZM164.802 190V182.727H165.466V189.403H168.932V190H164.802ZM171.491 182.727V190H170.827V182.727H171.491ZM179.489 182.727V190H178.842L174.546 183.91H174.489V190H173.825V182.727H174.467L178.779 188.825H178.835V182.727H179.489ZM186.854 185C186.788 184.759 186.691 184.532 186.563 184.322C186.435 184.109 186.277 183.923 186.087 183.764C185.9 183.603 185.684 183.478 185.437 183.388C185.194 183.298 184.921 183.253 184.621 183.253C184.147 183.253 183.723 183.376 183.349 183.622C182.975 183.868 182.679 184.223 182.462 184.688C182.246 185.152 182.138 185.71 182.138 186.364C182.138 187.015 182.247 187.572 182.465 188.036C182.683 188.5 182.981 188.857 183.36 189.105C183.741 189.351 184.177 189.474 184.667 189.474C185.114 189.474 185.51 189.375 185.853 189.176C186.196 188.977 186.464 188.693 186.655 188.324C186.85 187.955 186.944 187.515 186.94 187.006L187.153 187.074H184.823V186.477H187.586V187.074C187.586 187.694 187.46 188.23 187.209 188.683C186.958 189.135 186.614 189.484 186.176 189.73C185.738 189.976 185.235 190.099 184.667 190.099C184.032 190.099 183.477 189.947 183.001 189.641C182.525 189.334 182.155 188.9 181.89 188.342C181.627 187.781 181.496 187.121 181.496 186.364C181.496 185.793 181.571 185.278 181.723 184.819C181.874 184.36 182.089 183.967 182.366 183.64C182.645 183.313 182.975 183.063 183.356 182.891C183.738 182.715 184.159 182.628 184.621 182.628C185.018 182.628 185.382 182.691 185.711 182.816C186.042 182.942 186.333 183.114 186.584 183.335C186.838 183.552 187.045 183.804 187.206 184.091C187.369 184.375 187.479 184.678 187.536 185H186.854Z" fill="#747480"/>
<path d="M150.472 201.063C150.279 201.063 150.114 200.993 149.976 200.855C149.838 200.717 149.769 200.552 149.769 200.359C149.769 200.167 149.838 200.001 149.976 199.863C150.114 199.725 150.279 199.656 150.472 199.656C150.664 199.656 150.83 199.725 150.968 199.863C151.106 200.001 151.175 200.167 151.175 200.359C151.175 200.487 151.142 200.604 151.077 200.711C151.015 200.818 150.93 200.904 150.823 200.969C150.719 201.031 150.602 201.063 150.472 201.063ZM153.501 201.063C153.308 201.063 153.143 200.993 153.005 200.855C152.867 200.717 152.798 200.552 152.798 200.359C152.798 200.167 152.867 200.001 153.005 199.863C153.143 199.725 153.308 199.656 153.501 199.656C153.694 199.656 153.859 199.725 153.997 199.863C154.135 200.001 154.204 200.167 154.204 200.359C154.204 200.487 154.172 200.604 154.106 200.711C154.044 200.818 153.959 200.904 153.853 200.969C153.748 201.031 153.631 201.063 153.501 201.063ZM156.53 201.063C156.338 201.063 156.172 200.993 156.034 200.855C155.896 200.717 155.827 200.552 155.827 200.359C155.827 200.167 155.896 200.001 156.034 199.863C156.172 199.725 156.338 199.656 156.53 199.656C156.723 199.656 156.888 199.725 157.026 199.863C157.164 200.001 157.233 200.167 157.233 200.359C157.233 200.487 157.201 200.604 157.136 200.711C157.073 200.818 156.989 200.904 156.882 200.969C156.778 201.031 156.66 201.063 156.53 201.063Z" fill="white"/>
</g>
<path d="M8.40192 82.5045C8.0041 83.1935 7.89629 84.0124 8.10222 84.7809C8.30815 85.5495 8.81095 86.2047 9.5 86.6025L85.486 130.473C86.9208 131.301 88.7556 130.81 89.584 129.375C97.9085 114.957 110.199 103.246 124.955 95.6711C126.418 94.9199 127.003 93.131 126.268 91.6602L86.8803 12.9169C86.5219 12.2004 85.8919 11.657 85.1305 11.4078C84.3692 11.1586 83.5398 11.2243 82.8271 11.5901C51.7714 27.5342 25.913 52.1743 8.40192 82.5045Z" fill="#90CA62" stroke="#60A32C" stroke-width="6" stroke-linejoin="round"/>
<path d="M62.7301 85V81.4545L71.0142 73.7841C71.7188 73.1023 72.3097 72.4886 72.7869 71.9432C73.2718 71.3977 73.6392 70.8636 73.8892 70.3409C74.1392 69.8106 74.2642 69.2386 74.2642 68.625C74.2642 67.9432 74.1089 67.3561 73.7983 66.8636C73.4877 66.3636 73.0634 65.9811 72.5256 65.7159C71.9877 65.4432 71.3778 65.3068 70.696 65.3068C69.9839 65.3068 69.3627 65.4508 68.8324 65.7386C68.3021 66.0265 67.893 66.4394 67.6051 66.9773C67.3172 67.5152 67.1733 68.1553 67.1733 68.8977H62.5028C62.5028 67.375 62.8475 66.053 63.5369 64.9318C64.2263 63.8106 65.1922 62.9432 66.4347 62.3295C67.6771 61.7159 69.1089 61.4091 70.7301 61.4091C72.3968 61.4091 73.8475 61.7045 75.0824 62.2955C76.3248 62.8788 77.2907 63.6894 77.9801 64.7273C78.6695 65.7652 79.0142 66.9545 79.0142 68.2955C79.0142 69.1742 78.84 70.0417 78.4915 70.8977C78.1506 71.7538 77.5407 72.7045 76.6619 73.75C75.7831 74.7879 74.5445 76.0341 72.946 77.4886L69.5483 80.8182V80.9773H79.321V85H62.7301Z" fill="white"/>
<path d="M146.14 122.26L143.44 119.575L141.325 121.69L144.01 124.375L146.14 122.26ZM137.5 130.75H142V133.75H137.5V130.75ZM152.5 115.825H155.5V120.25H152.5V115.825ZM164.56 119.568L166.672 121.678L163.987 124.363L161.876 122.251L164.56 119.568ZM161.86 142.24L164.545 144.94L166.66 142.825L163.96 140.14L161.86 142.24ZM166 130.75H170.5V133.75H166V130.75ZM154 123.25C149.035 123.25 145 127.285 145 132.25C145 137.215 149.035 141.25 154 141.25C158.965 141.25 163 137.215 163 132.25C163 127.285 158.965 123.25 154 123.25ZM154 138.25C150.685 138.25 148 135.565 148 132.25C148 128.935 150.685 126.25 154 126.25C157.315 126.25 160 128.935 160 132.25C160 135.565 157.315 138.25 154 138.25ZM152.5 144.25H155.5V148.675H152.5V144.25ZM141.325 142.81L143.44 144.925L146.125 142.225L144.01 140.11L141.325 142.81Z" fill="#90CA62"/>
</svg>
