<svg width="374" height="368" viewBox="0 0 374 368" fill="none" xmlns="http://www.w3.org/2000/svg">
<path d="M52 181C52 151.48 60.4842 122.583 76.4422 97.7487C92.4002 72.9144 115.16 53.1899 142.01 40.924L174.005 110.962C160.58 117.095 149.2 126.957 141.221 139.374C133.242 151.791 129 166.24 129 181L52 181Z" fill="#AAE47C"/>
<path d="M115.581 107V104.784L120.759 99.9901C121.199 99.5639 121.569 99.1804 121.867 98.8395C122.17 98.4986 122.4 98.1648 122.556 97.8381C122.712 97.5066 122.79 97.1491 122.79 96.7656C122.79 96.3395 122.693 95.9725 122.499 95.6648C122.305 95.3523 122.04 95.1132 121.703 94.9474C121.367 94.777 120.986 94.6918 120.56 94.6918C120.115 94.6918 119.727 94.7817 119.395 94.9616C119.064 95.1416 118.808 95.3996 118.628 95.7358C118.448 96.072 118.358 96.4721 118.358 96.9361H115.439C115.439 95.9844 115.655 95.1581 116.086 94.4574C116.516 93.7566 117.12 93.2145 117.897 92.831C118.673 92.4474 119.568 92.2557 120.581 92.2557C121.623 92.2557 122.53 92.4403 123.301 92.8097C124.078 93.1742 124.682 93.6809 125.113 94.3295C125.543 94.9782 125.759 95.7216 125.759 96.5597C125.759 97.1089 125.65 97.651 125.432 98.1861C125.219 98.7211 124.838 99.3153 124.289 99.9688C123.739 100.617 122.965 101.396 121.966 102.305L119.843 104.386V104.486H125.951V107H115.581Z" fill="white"/>
<path d="M77.1643 265.364C60.7924 240.362 52.049 211.137 52.0002 181.251L129 181.126C129.024 196.068 133.396 210.681 141.582 223.182L77.1643 265.364Z" fill="#724BC3"/>
<path d="M141.029 41.3764C161.042 32.0638 182.822 27.1623 204.895 27.004C226.968 26.8456 248.817 31.4342 268.961 40.4587C289.106 49.4832 307.075 62.7327 321.65 79.3092C336.226 95.8858 347.068 115.402 353.441 136.535L279.721 158.768C276.534 148.201 271.113 138.443 263.825 130.155C256.537 121.866 247.553 115.242 237.481 110.729C227.409 106.217 216.484 103.923 205.448 104.002C194.411 104.081 183.521 106.532 173.514 111.188L141.029 41.3764Z" fill="#FFD600"/>
<path d="M307.8 296.554C291.237 311.145 271.731 322.006 250.604 328.399C229.477 334.792 207.222 336.569 185.348 333.609C163.474 330.649 142.492 323.021 123.824 311.242C105.156 299.464 89.2379 283.81 77.149 265.341L141.574 223.171C147.619 232.405 155.578 240.232 164.912 246.121C174.246 252.011 184.737 255.824 195.674 257.304C206.611 258.785 217.738 257.896 228.302 254.7C238.866 251.503 248.619 246.073 256.9 238.777L307.8 296.554Z" fill="#E0362C"/>
<path d="M353.403 136.408C361.95 164.663 362.197 194.779 354.114 223.17C346.03 251.561 329.957 277.031 307.809 296.546L256.904 238.773C267.979 229.016 276.015 216.281 280.057 202.085C284.099 187.89 283.975 172.832 279.701 158.704L353.403 136.408Z" fill="#FF9831"/>
<path d="M95.7219 143.455V158H92.6467V146.374H92.5614L89.2305 148.462V145.734L92.8313 143.455H95.7219Z" fill="white"/>
<path d="M299.86 247L305.89 235.068V234.969H298.865V232.455H309.071V235.004L303.034 247H299.86Z" fill="white"/>
<path d="M254.382 295.199C253.289 295.199 252.316 295.021 251.463 294.666C250.616 294.306 249.951 293.816 249.468 293.196C248.985 292.576 248.743 291.873 248.743 291.087C248.743 290.481 248.881 289.924 249.155 289.418C249.435 288.906 249.813 288.482 250.292 288.146C250.77 287.805 251.305 287.588 251.897 287.493V287.393C251.12 287.237 250.49 286.861 250.007 286.264C249.525 285.663 249.283 284.964 249.283 284.169C249.283 283.416 249.503 282.746 249.944 282.159C250.384 281.567 250.988 281.103 251.755 280.767C252.526 280.426 253.402 280.256 254.382 280.256C255.363 280.256 256.236 280.426 257.003 280.767C257.775 281.108 258.381 281.574 258.821 282.166C259.262 282.753 259.484 283.421 259.489 284.169C259.484 284.969 259.238 285.668 258.75 286.264C258.263 286.861 257.638 287.237 256.875 287.393V287.493C257.458 287.588 257.986 287.805 258.459 288.146C258.937 288.482 259.316 288.906 259.596 289.418C259.88 289.924 260.024 290.481 260.029 291.087C260.024 291.873 259.78 292.576 259.297 293.196C258.814 293.816 258.147 294.306 257.294 294.666C256.447 295.021 255.476 295.199 254.382 295.199ZM254.382 292.94C254.87 292.94 255.296 292.853 255.661 292.678C256.025 292.498 256.31 292.251 256.513 291.939C256.721 291.622 256.826 291.257 256.826 290.845C256.826 290.424 256.719 290.052 256.506 289.73C256.293 289.403 256.004 289.148 255.64 288.963C255.275 288.774 254.856 288.679 254.382 288.679C253.914 288.679 253.495 288.774 253.125 288.963C252.756 289.148 252.465 289.403 252.252 289.73C252.043 290.052 251.939 290.424 251.939 290.845C251.939 291.257 252.041 291.622 252.245 291.939C252.448 292.251 252.735 292.498 253.104 292.678C253.473 292.853 253.9 292.94 254.382 292.94ZM254.382 286.442C254.79 286.442 255.152 286.359 255.469 286.193C255.786 286.027 256.035 285.798 256.215 285.504C256.395 285.211 256.485 284.872 256.485 284.489C256.485 284.11 256.395 283.778 256.215 283.494C256.035 283.205 255.789 282.981 255.476 282.82C255.164 282.654 254.799 282.571 254.382 282.571C253.971 282.571 253.606 282.654 253.289 282.82C252.971 282.981 252.723 283.205 252.543 283.494C252.368 283.778 252.28 284.11 252.28 284.489C252.28 284.872 252.37 285.211 252.55 285.504C252.73 285.798 252.979 286.027 253.296 286.193C253.613 286.359 253.975 286.442 254.382 286.442Z" fill="white"/>
<path d="M194.239 290.256C194.987 290.256 195.706 290.381 196.398 290.632C197.094 290.883 197.714 291.283 198.259 291.832C198.808 292.382 199.241 293.111 199.558 294.02C199.88 294.924 200.044 296.035 200.048 297.351C200.048 298.587 199.909 299.69 199.629 300.661C199.355 301.626 198.959 302.448 198.443 303.125C197.927 303.802 197.304 304.318 196.575 304.673C195.846 305.024 195.032 305.199 194.132 305.199C193.161 305.199 192.304 305.012 191.561 304.638C190.818 304.259 190.219 303.745 189.764 303.097C189.314 302.443 189.042 301.709 188.947 300.895H191.98C192.098 301.425 192.347 301.837 192.726 302.131C193.105 302.42 193.573 302.564 194.132 302.564C195.079 302.564 195.799 302.152 196.291 301.328C196.784 300.5 197.032 299.366 197.037 297.926H196.938C196.72 298.352 196.426 298.719 196.057 299.027C195.688 299.33 195.264 299.564 194.786 299.73C194.312 299.896 193.808 299.979 193.273 299.979C192.416 299.979 191.651 299.777 190.979 299.375C190.306 298.973 189.776 298.419 189.388 297.713C189 297.008 188.805 296.203 188.805 295.298C188.801 294.323 189.026 293.454 189.48 292.692C189.935 291.929 190.569 291.333 191.384 290.902C192.203 290.466 193.154 290.251 194.239 290.256ZM194.26 292.67C193.782 292.67 193.356 292.784 192.982 293.011C192.612 293.239 192.319 293.544 192.101 293.928C191.888 294.311 191.784 294.74 191.788 295.213C191.788 295.691 191.893 296.122 192.101 296.506C192.314 296.884 192.603 297.187 192.967 297.415C193.337 297.637 193.758 297.749 194.232 297.749C194.587 297.749 194.916 297.682 195.219 297.55C195.522 297.417 195.785 297.235 196.007 297.003C196.234 296.766 196.412 296.494 196.54 296.186C196.668 295.878 196.732 295.552 196.732 295.206C196.727 294.747 196.618 294.325 196.405 293.942C196.192 293.558 195.898 293.25 195.524 293.018C195.15 292.786 194.729 292.67 194.26 292.67Z" fill="white"/>
<path d="M129.952 265.455V280H126.877V268.374H126.792L123.461 270.462V267.734L127.062 265.455H129.952ZM139.113 280.32C137.891 280.315 136.84 280.014 135.959 279.418C135.083 278.821 134.408 277.957 133.935 276.825C133.466 275.694 133.234 274.332 133.239 272.741C133.239 271.155 133.473 269.804 133.942 268.686C134.416 267.569 135.09 266.719 135.966 266.136C136.847 265.549 137.896 265.256 139.113 265.256C140.329 265.256 141.376 265.549 142.252 266.136C143.132 266.723 143.81 267.576 144.283 268.693C144.757 269.806 144.991 271.155 144.986 272.741C144.986 274.337 144.749 275.701 144.276 276.832C143.807 277.964 143.135 278.828 142.259 279.425C141.383 280.021 140.334 280.32 139.113 280.32ZM139.113 277.77C139.946 277.77 140.611 277.351 141.108 276.513C141.605 275.675 141.852 274.418 141.847 272.741C141.847 271.638 141.733 270.72 141.506 269.986C141.283 269.252 140.966 268.7 140.554 268.331C140.147 267.962 139.667 267.777 139.113 267.777C138.284 267.777 137.621 268.191 137.124 269.02C136.627 269.848 136.376 271.089 136.371 272.741C136.371 273.859 136.482 274.792 136.705 275.54C136.932 276.283 137.252 276.842 137.664 277.216C138.076 277.585 138.559 277.77 139.113 277.77Z" fill="white"/>
<path d="M92.9368 208.455V223H89.8615V211.374H89.7763L86.4453 213.462V210.734L90.0462 208.455H92.9368ZM102.722 208.455V223H99.6467V211.374H99.5614L96.2305 213.462V210.734L99.8313 208.455H102.722Z" fill="white"/>
<path d="M188.82 197V185.364H190.928V190.29H196.32V185.364H198.434V197H196.32V192.057H190.928V197H188.82ZM202.793 197.534L201.764 196.83L210.02 184.852L211.048 185.557L202.793 197.534ZM211.764 191.182C211.764 192.436 211.529 193.509 211.06 194.403C210.594 195.294 209.957 195.975 209.151 196.449C208.348 196.922 207.437 197.159 206.418 197.159C205.399 197.159 204.486 196.922 203.679 196.449C202.876 195.972 202.24 195.288 201.77 194.398C201.304 193.504 201.071 192.432 201.071 191.182C201.071 189.928 201.304 188.856 201.77 187.966C202.24 187.072 202.876 186.388 203.679 185.915C204.486 185.441 205.399 185.205 206.418 185.205C207.437 185.205 208.348 185.441 209.151 185.915C209.957 186.388 210.594 187.072 211.06 187.966C211.529 188.856 211.764 189.928 211.764 191.182ZM209.645 191.182C209.645 190.299 209.507 189.555 209.23 188.949C208.957 188.339 208.579 187.879 208.094 187.568C207.609 187.254 207.05 187.097 206.418 187.097C205.785 187.097 205.226 187.254 204.741 187.568C204.257 187.879 203.876 188.339 203.599 188.949C203.327 189.555 203.19 190.299 203.19 191.182C203.19 192.064 203.327 192.811 203.599 193.42C203.876 194.027 204.257 194.487 204.741 194.801C205.226 195.112 205.785 195.267 206.418 195.267C207.05 195.267 207.609 195.112 208.094 194.801C208.579 194.487 208.957 194.027 209.23 193.42C209.507 192.811 209.645 192.064 209.645 191.182ZM222.193 189.08C222.098 188.773 221.967 188.498 221.801 188.256C221.638 188.009 221.441 187.799 221.21 187.625C220.982 187.451 220.721 187.32 220.426 187.233C220.13 187.142 219.808 187.097 219.46 187.097C218.835 187.097 218.278 187.254 217.789 187.568C217.301 187.883 216.916 188.345 216.636 188.955C216.359 189.561 216.221 190.299 216.221 191.17C216.221 192.049 216.359 192.794 216.636 193.403C216.912 194.013 217.297 194.477 217.789 194.795C218.282 195.11 218.854 195.267 219.505 195.267C220.096 195.267 220.607 195.153 221.039 194.926C221.475 194.699 221.81 194.377 222.045 193.96C222.28 193.54 222.397 193.047 222.397 192.483L222.874 192.557H219.715V190.909H224.437V192.307C224.437 193.303 224.225 194.165 223.801 194.892C223.376 195.619 222.793 196.18 222.051 196.574C221.308 196.964 220.456 197.159 219.494 197.159C218.422 197.159 217.48 196.919 216.67 196.438C215.863 195.953 215.232 195.265 214.778 194.375C214.327 193.481 214.102 192.42 214.102 191.193C214.102 190.254 214.234 189.415 214.499 188.676C214.768 187.938 215.143 187.311 215.624 186.795C216.105 186.277 216.67 185.883 217.318 185.614C217.965 185.341 218.67 185.205 219.431 185.205C220.075 185.205 220.676 185.299 221.232 185.489C221.789 185.674 222.283 185.939 222.715 186.284C223.151 186.629 223.509 187.038 223.789 187.511C224.069 187.985 224.253 188.508 224.34 189.08H222.193Z" fill="black"/>
<path d="M177.545 202.727H178.209V207.543C178.209 208.037 178.093 208.48 177.861 208.871C177.629 209.259 177.306 209.566 176.891 209.79C176.479 210.013 176 210.124 175.453 210.124C174.909 210.124 174.429 210.012 174.015 209.787C173.601 209.562 173.277 209.255 173.045 208.867C172.813 208.479 172.697 208.037 172.697 207.543V202.727H173.361V207.496C173.361 207.882 173.448 208.227 173.621 208.53C173.793 208.83 174.036 209.067 174.349 209.24C174.664 209.413 175.032 209.499 175.453 209.499C175.874 209.499 176.243 209.413 176.557 209.24C176.872 209.067 177.115 208.83 177.285 208.53C177.458 208.227 177.545 207.882 177.545 207.496V202.727ZM180.549 202.727L182.822 209.137H182.886L185.159 202.727H185.855L183.209 210H182.499L179.853 202.727H180.549ZM194.663 204.545C194.622 204.141 194.444 203.819 194.126 203.58C193.809 203.34 193.41 203.221 192.93 203.221C192.591 203.221 192.293 203.279 192.035 203.395C191.779 203.511 191.578 203.672 191.431 203.878C191.287 204.081 191.214 204.313 191.214 204.574C191.214 204.766 191.256 204.934 191.339 205.078C191.422 205.223 191.533 205.347 191.673 205.451C191.815 205.553 191.971 205.64 192.141 205.714C192.314 205.787 192.488 205.849 192.663 205.898L193.43 206.119C193.662 206.183 193.894 206.264 194.126 206.364C194.358 206.463 194.57 206.589 194.762 206.74C194.956 206.889 195.111 207.073 195.227 207.29C195.346 207.506 195.405 207.765 195.405 208.068C195.405 208.456 195.304 208.806 195.103 209.116C194.902 209.426 194.613 209.672 194.236 209.854C193.86 210.034 193.409 210.124 192.884 210.124C192.389 210.124 191.959 210.043 191.594 209.879C191.23 209.714 190.943 209.485 190.735 209.194C190.527 208.903 190.41 208.565 190.384 208.182H191.065C191.089 208.468 191.184 208.711 191.349 208.91C191.515 209.109 191.731 209.26 191.996 209.364C192.261 209.466 192.557 209.517 192.884 209.517C193.246 209.517 193.568 209.457 193.849 209.336C194.134 209.213 194.356 209.042 194.517 208.825C194.68 208.604 194.762 208.349 194.762 208.058C194.762 207.811 194.698 207.605 194.57 207.44C194.442 207.272 194.264 207.131 194.034 207.017C193.807 206.903 193.543 206.803 193.242 206.715L192.372 206.46C191.802 206.289 191.359 206.054 191.044 205.753C190.729 205.452 190.572 205.069 190.572 204.602C190.572 204.212 190.676 203.868 190.884 203.572C191.095 203.274 191.379 203.042 191.736 202.876C192.096 202.708 192.5 202.624 192.947 202.624C193.4 202.624 193.8 202.707 194.148 202.873C194.496 203.039 194.772 203.267 194.975 203.558C195.181 203.847 195.291 204.176 195.305 204.545H194.663ZM196.962 203.324V202.727H202.236V203.324H199.931V210H199.267V203.324H196.962ZM204.131 210V202.727H206.478C206.994 202.727 207.425 202.821 207.771 203.008C208.119 203.192 208.38 203.449 208.556 203.778C208.733 204.105 208.822 204.48 208.822 204.904C208.822 205.328 208.733 205.702 208.556 206.026C208.38 206.351 208.12 206.604 207.774 206.786C207.429 206.969 207 207.06 206.489 207.06H204.49V206.452H206.471C206.85 206.452 207.165 206.39 207.416 206.264C207.669 206.139 207.857 205.96 207.98 205.728C208.106 205.496 208.169 205.221 208.169 204.904C208.169 204.587 208.106 204.31 207.98 204.073C207.855 203.834 207.666 203.649 207.412 203.519C207.161 203.389 206.844 203.324 206.46 203.324H204.795V210H204.131ZM207.338 206.719L209.127 210H208.36L206.588 206.719H207.338ZM210.85 210H210.154L212.8 202.727H213.51L216.156 210H215.46L213.18 203.59H213.13L210.85 210ZM211.351 207.212H214.959V207.809H211.351V207.212ZM213.155 202.276C212.89 202.276 212.664 202.184 212.477 201.999C212.292 201.812 212.2 201.586 212.2 201.321C212.2 201.143 212.242 200.982 212.327 200.838C212.413 200.694 212.528 200.579 212.672 200.494C212.819 200.408 212.98 200.366 213.155 200.366C213.332 200.366 213.493 200.408 213.638 200.494C213.782 200.579 213.897 200.694 213.982 200.838C214.068 200.982 214.11 201.143 214.11 201.321C214.11 201.496 214.068 201.657 213.982 201.804C213.897 201.948 213.782 202.063 213.638 202.148C213.493 202.234 213.332 202.276 213.155 202.276ZM213.155 201.861C213.306 201.861 213.433 201.809 213.535 201.705C213.639 201.598 213.691 201.47 213.691 201.321C213.691 201.17 213.639 201.042 213.535 200.938C213.433 200.833 213.306 200.781 213.155 200.781C213.003 200.781 212.876 200.835 212.771 200.941C212.67 201.045 212.619 201.172 212.619 201.321C212.619 201.473 212.67 201.6 212.771 201.705C212.876 201.809 213.003 201.861 213.155 201.861ZM217.802 210V202.727H218.466V209.403H221.932V210H217.802ZM224.491 202.727V210H223.827V202.727H224.491ZM232.489 202.727V210H231.842L227.546 203.91H227.489V210H226.825V202.727H227.467L231.779 208.825H231.835V202.727H232.489ZM239.854 205C239.788 204.759 239.691 204.532 239.563 204.322C239.435 204.109 239.277 203.923 239.087 203.764C238.9 203.603 238.684 203.478 238.437 203.388C238.194 203.298 237.921 203.253 237.621 203.253C237.147 203.253 236.723 203.376 236.349 203.622C235.975 203.868 235.679 204.223 235.462 204.688C235.246 205.152 235.138 205.71 235.138 206.364C235.138 207.015 235.247 207.572 235.465 208.036C235.683 208.5 235.981 208.857 236.36 209.105C236.741 209.351 237.177 209.474 237.667 209.474C238.114 209.474 238.51 209.375 238.853 209.176C239.196 208.977 239.464 208.693 239.655 208.324C239.85 207.955 239.944 207.515 239.94 207.006L240.153 207.074H237.823V206.477H240.586V207.074C240.586 207.694 240.46 208.23 240.209 208.683C239.958 209.135 239.614 209.484 239.176 209.73C238.738 209.976 238.235 210.099 237.667 210.099C237.032 210.099 236.477 209.947 236.001 209.641C235.525 209.334 235.155 208.9 234.89 208.342C234.627 207.781 234.496 207.121 234.496 206.364C234.496 205.793 234.571 205.278 234.723 204.819C234.874 204.36 235.089 203.967 235.366 203.64C235.645 203.313 235.975 203.063 236.356 202.891C236.738 202.715 237.159 202.628 237.621 202.628C238.018 202.628 238.382 202.691 238.711 202.816C239.042 202.942 239.333 203.114 239.584 203.335C239.838 203.552 240.045 203.804 240.206 204.091C240.369 204.375 240.479 204.678 240.536 205H239.854Z" fill="#747480"/>
<path d="M203.472 221.063C203.279 221.063 203.114 220.993 202.976 220.855C202.838 220.717 202.769 220.552 202.769 220.359C202.769 220.167 202.838 220.001 202.976 219.863C203.114 219.725 203.279 219.656 203.472 219.656C203.664 219.656 203.83 219.725 203.968 219.863C204.106 220.001 204.175 220.167 204.175 220.359C204.175 220.487 204.142 220.604 204.077 220.711C204.015 220.818 203.93 220.904 203.823 220.969C203.719 221.031 203.602 221.063 203.472 221.063ZM206.501 221.063C206.308 221.063 206.143 220.993 206.005 220.855C205.867 220.717 205.798 220.552 205.798 220.359C205.798 220.167 205.867 220.001 206.005 219.863C206.143 219.725 206.308 219.656 206.501 219.656C206.694 219.656 206.859 219.725 206.997 219.863C207.135 220.001 207.204 220.167 207.204 220.359C207.204 220.487 207.172 220.604 207.106 220.711C207.044 220.818 206.959 220.904 206.853 220.969C206.748 221.031 206.631 221.063 206.501 221.063ZM209.53 221.063C209.338 221.063 209.172 220.993 209.034 220.855C208.896 220.717 208.827 220.552 208.827 220.359C208.827 220.167 208.896 220.001 209.034 219.863C209.172 219.725 209.338 219.656 209.53 219.656C209.723 219.656 209.888 219.725 210.026 219.863C210.164 220.001 210.233 220.167 210.233 220.359C210.233 220.487 210.201 220.604 210.136 220.711C210.073 220.818 209.989 220.904 209.882 220.969C209.778 221.031 209.66 221.063 209.53 221.063Z" fill="#E4E4E4"/>
<path d="M188.372 76.1989C187.311 76.1989 186.367 76.0166 185.538 75.652C184.714 75.2827 184.063 74.776 183.585 74.1321C183.111 73.4834 182.868 72.7353 182.853 71.8878H185.95C185.969 72.2429 186.085 72.5554 186.298 72.8253C186.516 73.0904 186.805 73.2964 187.164 73.4432C187.524 73.59 187.929 73.6634 188.379 73.6634C188.848 73.6634 189.262 73.5805 189.622 73.4148C189.982 73.2491 190.263 73.0194 190.467 72.7259C190.671 72.4323 190.772 72.0937 190.772 71.7102C190.772 71.322 190.663 70.9787 190.446 70.6804C190.233 70.3774 189.925 70.1406 189.522 69.9702C189.125 69.7997 188.651 69.7145 188.102 69.7145H186.745V67.456H188.102C188.566 67.456 188.975 67.3755 189.331 67.2145C189.69 67.0535 189.97 66.831 190.169 66.5469C190.368 66.258 190.467 65.9219 190.467 65.5384C190.467 65.1738 190.379 64.8542 190.204 64.5795C190.034 64.3002 189.792 64.0824 189.48 63.9261C189.172 63.7699 188.812 63.6918 188.4 63.6918C187.984 63.6918 187.602 63.7675 187.257 63.919C186.911 64.0658 186.634 64.2765 186.426 64.5511C186.217 64.8258 186.106 65.1477 186.092 65.517H183.145C183.159 64.679 183.398 63.9403 183.862 63.3011C184.326 62.6619 184.951 62.1624 185.737 61.8026C186.528 61.438 187.42 61.2557 188.414 61.2557C189.418 61.2557 190.297 61.438 191.049 61.8026C191.802 62.1671 192.387 62.6596 192.804 63.2798C193.225 63.8954 193.433 64.5866 193.429 65.3537C193.433 66.1681 193.18 66.8475 192.669 67.392C192.162 67.9366 191.502 68.2822 190.687 68.429V68.5426C191.757 68.6799 192.572 69.0516 193.13 69.6577C193.694 70.259 193.973 71.0118 193.968 71.9162C193.973 72.7448 193.734 73.4811 193.251 74.125C192.773 74.7689 192.112 75.2756 191.27 75.6449C190.427 76.0142 189.461 76.1989 188.372 76.1989Z" fill="white"/>
<path d="M249.404 82.4432V80.0213L255.477 70.4545H257.565V73.8068H256.329L252.501 79.8651V79.9787H261.13V82.4432H249.404ZM256.386 85V81.7045L256.442 80.6321V70.4545H259.326V85H256.386Z" fill="white"/>
<path d="M303.601 124.199C302.597 124.199 301.702 124.014 300.916 123.645C300.135 123.276 299.515 122.767 299.055 122.118C298.596 121.469 298.357 120.726 298.338 119.888H301.321C301.354 120.451 301.591 120.908 302.031 121.259C302.472 121.609 302.995 121.784 303.601 121.784C304.084 121.784 304.51 121.678 304.879 121.464C305.253 121.247 305.545 120.946 305.753 120.562C305.966 120.174 306.072 119.729 306.072 119.227C306.072 118.716 305.964 118.266 305.746 117.878C305.533 117.49 305.237 117.187 304.858 116.969C304.479 116.751 304.046 116.64 303.558 116.635C303.132 116.635 302.718 116.723 302.315 116.898C301.918 117.073 301.607 117.312 301.385 117.615L298.651 117.125L299.339 109.455H308.232V111.969H301.875L301.499 115.612H301.584C301.839 115.252 302.225 114.954 302.741 114.717C303.258 114.481 303.835 114.362 304.474 114.362C305.35 114.362 306.132 114.568 306.818 114.98C307.505 115.392 308.047 115.958 308.445 116.678C308.842 117.393 309.039 118.216 309.034 119.149C309.039 120.129 308.812 121 308.352 121.763C307.898 122.52 307.261 123.117 306.442 123.553C305.627 123.983 304.68 124.199 303.601 124.199Z" fill="white"/>
<mask id="path-17-outside-1_178_296" maskUnits="userSpaceOnUse" x="265" y="123" width="109" height="115" fill="black">
<rect fill="white" x="265" y="123" width="109" height="115"/>
<path d="M359.622 129.111C370.005 162.332 370.753 197.816 361.778 231.444L272.889 207.722C277.376 190.908 277.003 173.166 271.811 156.555L359.622 129.111Z"/>
</mask>
<path d="M359.622 129.111C370.005 162.332 370.753 197.816 361.778 231.444L272.889 207.722C277.376 190.908 277.003 173.166 271.811 156.555L359.622 129.111Z" fill="#F0881F"/>
<path d="M359.622 129.111C370.005 162.332 370.753 197.816 361.778 231.444L272.889 207.722C277.376 190.908 277.003 173.166 271.811 156.555L359.622 129.111Z" stroke="#CF6300" stroke-width="12" stroke-linejoin="round" mask="url(#path-17-outside-1_178_296)"/>
<path d="M318.693 192.318C317.496 192.311 316.341 192.11 315.227 191.716C314.121 191.322 313.129 190.682 312.25 189.795C311.371 188.909 310.674 187.735 310.159 186.273C309.652 184.811 309.398 183.015 309.398 180.886C309.405 178.932 309.629 177.186 310.068 175.648C310.515 174.102 311.152 172.792 311.977 171.716C312.811 170.64 313.807 169.822 314.966 169.261C316.125 168.693 317.424 168.409 318.864 168.409C320.417 168.409 321.788 168.712 322.977 169.318C324.167 169.917 325.121 170.731 325.841 171.761C326.568 172.792 327.008 173.947 327.159 175.227H322.307C322.117 174.417 321.72 173.78 321.114 173.318C320.508 172.856 319.758 172.625 318.864 172.625C317.348 172.625 316.197 173.284 315.409 174.602C314.629 175.92 314.231 177.712 314.216 179.977H314.375C314.723 179.288 315.193 178.701 315.784 178.216C316.383 177.723 317.061 177.348 317.818 177.091C318.583 176.826 319.39 176.693 320.239 176.693C321.617 176.693 322.845 177.019 323.92 177.67C324.996 178.314 325.845 179.201 326.466 180.33C327.087 181.458 327.398 182.75 327.398 184.205C327.398 185.78 327.03 187.182 326.295 188.409C325.568 189.636 324.549 190.598 323.239 191.295C321.936 191.985 320.42 192.326 318.693 192.318ZM318.67 188.455C319.428 188.455 320.106 188.273 320.705 187.909C321.303 187.545 321.773 187.053 322.114 186.432C322.455 185.811 322.625 185.114 322.625 184.341C322.625 183.568 322.455 182.875 322.114 182.261C321.78 181.648 321.318 181.159 320.727 180.795C320.136 180.432 319.462 180.25 318.705 180.25C318.136 180.25 317.61 180.356 317.125 180.568C316.648 180.78 316.227 181.076 315.864 181.455C315.508 181.833 315.227 182.273 315.023 182.773C314.818 183.265 314.716 183.792 314.716 184.352C314.716 185.102 314.886 185.788 315.227 186.409C315.576 187.03 316.045 187.527 316.636 187.898C317.235 188.269 317.913 188.455 318.67 188.455Z" fill="white"/>
<path fill-rule="evenodd" clip-rule="evenodd" d="M191.424 153.563H186.438V156.887H191.424V153.563ZM206.381 137.027H203.057V141.93H206.381V137.027ZM218.014 156.887H223V153.563H218.014V156.887ZM204.719 145.254C199.218 145.254 194.748 149.724 194.748 155.225C194.748 160.726 199.218 165.196 204.719 165.196C210.22 165.196 214.69 160.726 214.69 155.225C214.69 149.724 210.22 145.254 204.719 145.254ZM206.381 173.423V168.52H203.057V173.423H206.381ZM199.171 142.28L197.052 138.632L194.182 140.289L196.285 143.933L199.171 142.28ZM221.311 147.558L219.654 144.688L216.011 146.792L217.667 149.662L221.311 147.558ZM210.265 168.17L212.364 171.829L215.234 170.172L213.115 166.524L210.265 168.17ZM188.126 162.891L189.783 165.761L193.43 163.642L191.773 160.772L188.126 162.891ZM215.261 140.295L213.161 143.954L210.287 142.281L212.391 138.638L215.261 140.295ZM221.317 162.897L219.66 165.767L216.017 163.663L217.673 160.794L221.317 162.897ZM194.168 170.154L196.287 166.507L199.137 168.152L197.038 171.811L194.168 170.154ZM188.132 147.564L189.789 144.694L193.448 146.793L191.791 149.663L188.132 147.564Z" fill="#FF9831"/>
</svg>
