<svg width="368" height="373" viewBox="0 0 368 373" fill="none" xmlns="http://www.w3.org/2000/svg">
<path d="M42 203C42 173.48 50.4842 144.583 66.4422 119.749C82.4002 94.9144 105.16 75.1899 132.01 62.924L164.005 132.962C150.58 139.095 139.2 148.957 131.221 161.374C123.242 173.791 119 188.24 119 203L42 203Z" fill="#AAE47C"/>
<path d="M105.581 129V126.784L110.759 121.99C111.199 121.564 111.569 121.18 111.867 120.839C112.17 120.499 112.4 120.165 112.556 119.838C112.712 119.507 112.79 119.149 112.79 118.766C112.79 118.339 112.693 117.973 112.499 117.665C112.305 117.352 112.04 117.113 111.703 116.947C111.367 116.777 110.986 116.692 110.56 116.692C110.115 116.692 109.727 116.782 109.395 116.962C109.064 117.142 108.808 117.4 108.628 117.736C108.448 118.072 108.358 118.472 108.358 118.936H105.439C105.439 117.984 105.655 117.158 106.086 116.457C106.516 115.757 107.12 115.214 107.897 114.831C108.673 114.447 109.568 114.256 110.581 114.256C111.623 114.256 112.53 114.44 113.301 114.81C114.078 115.174 114.682 115.681 115.113 116.33C115.543 116.978 115.759 117.722 115.759 118.56C115.759 119.109 115.65 119.651 115.432 120.186C115.219 120.721 114.838 121.315 114.289 121.969C113.739 122.617 112.965 123.396 111.966 124.305L109.843 126.386V126.486H115.951V129H105.581Z" fill="white"/>
<path d="M67.1643 287.364C50.7924 262.362 42.049 233.137 42.0002 203.251L119 203.126C119.024 218.068 123.396 232.681 131.582 245.182L67.1643 287.364Z" fill="#724BC3"/>
<path d="M131.029 63.3764C151.042 54.0638 172.822 49.1623 194.895 49.004C216.968 48.8456 238.817 53.4342 258.961 62.4587C279.106 71.4832 297.075 84.7327 311.65 101.309C326.226 117.886 337.068 137.402 343.441 158.535L269.721 180.768C266.534 170.201 261.113 160.443 253.825 152.155C246.537 143.866 237.553 137.242 227.481 132.729C217.409 128.217 206.484 125.923 195.448 126.002C184.411 126.081 173.521 128.532 163.514 133.188L131.029 63.3764Z" fill="#FFD600"/>
<path d="M297.8 318.554C281.237 333.145 261.731 344.006 240.604 350.399C219.477 356.792 197.222 358.569 175.348 355.609C153.474 352.649 132.492 345.021 113.824 333.242C95.1558 321.464 79.2379 305.81 67.149 287.341L131.574 245.171C137.619 254.405 145.578 262.232 154.912 268.121C164.246 274.011 174.737 277.824 185.674 279.304C196.611 280.785 207.738 279.896 218.302 276.7C228.866 273.503 238.619 268.073 246.9 260.777L297.8 318.554Z" fill="#E0362C"/>
<path d="M343.403 158.408C351.95 186.663 352.197 216.779 344.114 245.17C336.03 273.561 319.957 299.031 297.809 318.546L246.904 260.773C257.979 251.016 266.015 238.281 270.057 224.085C274.099 209.89 273.975 194.832 269.701 180.704L343.403 158.408Z" fill="#FF9831"/>
<path d="M85.7219 165.455V180H82.6467V168.374H82.5614L79.2305 170.462V167.734L82.8313 165.455H85.7219Z" fill="white"/>
<path d="M184.239 312.256C184.987 312.256 185.706 312.381 186.398 312.632C187.094 312.883 187.714 313.283 188.259 313.832C188.808 314.382 189.241 315.111 189.558 316.02C189.88 316.924 190.044 318.035 190.048 319.351C190.048 320.587 189.909 321.69 189.629 322.661C189.355 323.626 188.959 324.448 188.443 325.125C187.927 325.802 187.304 326.318 186.575 326.673C185.846 327.024 185.032 327.199 184.132 327.199C183.161 327.199 182.304 327.012 181.561 326.638C180.818 326.259 180.219 325.745 179.764 325.097C179.314 324.443 179.042 323.709 178.947 322.895H181.98C182.098 323.425 182.347 323.837 182.726 324.131C183.105 324.42 183.573 324.564 184.132 324.564C185.079 324.564 185.799 324.152 186.291 323.328C186.784 322.5 187.032 321.366 187.037 319.926H186.938C186.72 320.352 186.426 320.719 186.057 321.027C185.688 321.33 185.264 321.564 184.786 321.73C184.312 321.896 183.808 321.979 183.273 321.979C182.416 321.979 181.651 321.777 180.979 321.375C180.306 320.973 179.776 320.419 179.388 319.713C179 319.008 178.805 318.203 178.805 317.298C178.801 316.323 179.026 315.454 179.48 314.692C179.935 313.929 180.569 313.333 181.384 312.902C182.203 312.466 183.154 312.251 184.239 312.256ZM184.26 314.67C183.782 314.67 183.356 314.784 182.982 315.011C182.612 315.239 182.319 315.544 182.101 315.928C181.888 316.311 181.784 316.74 181.788 317.213C181.788 317.691 181.893 318.122 182.101 318.506C182.314 318.884 182.603 319.187 182.967 319.415C183.337 319.637 183.758 319.749 184.232 319.749C184.587 319.749 184.916 319.682 185.219 319.55C185.522 319.417 185.785 319.235 186.007 319.003C186.234 318.766 186.412 318.494 186.54 318.186C186.668 317.878 186.732 317.552 186.732 317.206C186.727 316.747 186.618 316.325 186.405 315.942C186.192 315.558 185.898 315.25 185.524 315.018C185.15 314.786 184.729 314.67 184.26 314.67Z" fill="white"/>
<path d="M119.952 287.455V302H116.877V290.374H116.792L113.461 292.462V289.734L117.062 287.455H119.952ZM129.113 302.32C127.891 302.315 126.84 302.014 125.959 301.418C125.083 300.821 124.408 299.957 123.935 298.825C123.466 297.694 123.234 296.332 123.239 294.741C123.239 293.155 123.473 291.804 123.942 290.686C124.416 289.569 125.09 288.719 125.966 288.136C126.847 287.549 127.896 287.256 129.113 287.256C130.329 287.256 131.376 287.549 132.252 288.136C133.132 288.723 133.81 289.576 134.283 290.693C134.757 291.806 134.991 293.155 134.986 294.741C134.986 296.337 134.749 297.701 134.276 298.832C133.807 299.964 133.135 300.828 132.259 301.425C131.383 302.021 130.334 302.32 129.113 302.32ZM129.113 299.77C129.946 299.77 130.611 299.351 131.108 298.513C131.605 297.675 131.852 296.418 131.847 294.741C131.847 293.638 131.733 292.72 131.506 291.986C131.283 291.252 130.966 290.7 130.554 290.331C130.147 289.962 129.667 289.777 129.113 289.777C128.284 289.777 127.621 290.191 127.124 291.02C126.627 291.848 126.376 293.089 126.371 294.741C126.371 295.859 126.482 296.792 126.705 297.54C126.932 298.283 127.252 298.842 127.664 299.216C128.076 299.585 128.559 299.77 129.113 299.77Z" fill="white"/>
<path d="M82.9368 230.455V245H79.8615V233.374H79.7763L76.4453 235.462V232.734L80.0462 230.455H82.9368ZM92.7219 230.455V245H89.6467V233.374H89.5614L86.2305 235.462V232.734L89.8313 230.455H92.7219Z" fill="white"/>
<path d="M146.942 207.364L149.97 216.523H150.089L153.112 207.364H155.43L151.328 219H148.726L144.629 207.364H146.942ZM157.603 219V207.364H165.171V209.131H159.711V212.29H164.779V214.057H159.711V217.233H165.217V219H157.603ZM167.962 219V207.364H170.07V217.233H175.195V219H167.962ZM181.607 219H177.664V207.364H181.687C182.842 207.364 183.835 207.597 184.664 208.062C185.498 208.525 186.138 209.189 186.585 210.057C187.032 210.924 187.255 211.962 187.255 213.17C187.255 214.383 187.03 215.424 186.579 216.295C186.132 217.167 185.486 217.835 184.642 218.301C183.801 218.767 182.789 219 181.607 219ZM179.772 217.176H181.505C182.316 217.176 182.992 217.028 183.534 216.733C184.075 216.434 184.482 215.989 184.755 215.398C185.028 214.803 185.164 214.061 185.164 213.17C185.164 212.28 185.028 211.542 184.755 210.955C184.482 210.364 184.079 209.922 183.545 209.631C183.015 209.335 182.356 209.188 181.568 209.188H179.772V217.176ZM192.006 207.364V219H189.898V207.364H192.006ZM202.724 211.08C202.629 210.773 202.499 210.498 202.332 210.256C202.169 210.009 201.972 209.799 201.741 209.625C201.514 209.451 201.253 209.32 200.957 209.233C200.662 209.142 200.34 209.097 199.991 209.097C199.366 209.097 198.809 209.254 198.321 209.568C197.832 209.883 197.448 210.345 197.167 210.955C196.891 211.561 196.753 212.299 196.753 213.17C196.753 214.049 196.891 214.794 197.167 215.403C197.444 216.013 197.828 216.477 198.321 216.795C198.813 217.11 199.385 217.267 200.037 217.267C200.628 217.267 201.139 217.153 201.571 216.926C202.006 216.699 202.342 216.377 202.576 215.96C202.811 215.54 202.929 215.047 202.929 214.483L203.406 214.557H200.247V212.909H204.968V214.307C204.968 215.303 204.756 216.165 204.332 216.892C203.908 217.619 203.324 218.18 202.582 218.574C201.84 218.964 200.987 219.159 200.025 219.159C198.953 219.159 198.012 218.919 197.201 218.438C196.395 217.953 195.764 217.265 195.309 216.375C194.859 215.481 194.633 214.42 194.633 213.193C194.633 212.254 194.766 211.415 195.031 210.676C195.3 209.938 195.675 209.311 196.156 208.795C196.637 208.277 197.201 207.883 197.849 207.614C198.497 207.341 199.201 207.205 199.963 207.205C200.607 207.205 201.207 207.299 201.764 207.489C202.321 207.674 202.815 207.939 203.247 208.284C203.682 208.629 204.04 209.038 204.321 209.511C204.601 209.985 204.785 210.508 204.872 211.08H202.724ZM212.256 219V207.364H214.364V212.29H219.756V207.364H221.869V219H219.756V214.057H214.364V219H212.256ZM226.228 219.534L225.2 218.83L233.455 206.852L234.484 207.557L226.228 219.534ZM235.2 213.182C235.2 214.436 234.965 215.509 234.495 216.403C234.029 217.294 233.393 217.975 232.586 218.449C231.783 218.922 230.872 219.159 229.853 219.159C228.834 219.159 227.921 218.922 227.114 218.449C226.311 217.972 225.675 217.288 225.205 216.398C224.739 215.504 224.506 214.432 224.506 213.182C224.506 211.928 224.739 210.856 225.205 209.966C225.675 209.072 226.311 208.388 227.114 207.915C227.921 207.441 228.834 207.205 229.853 207.205C230.872 207.205 231.783 207.441 232.586 207.915C233.393 208.388 234.029 209.072 234.495 209.966C234.965 210.856 235.2 211.928 235.2 213.182ZM233.08 213.182C233.08 212.299 232.942 211.555 232.665 210.949C232.393 210.339 232.014 209.879 231.529 209.568C231.044 209.254 230.486 209.097 229.853 209.097C229.22 209.097 228.662 209.254 228.177 209.568C227.692 209.879 227.311 210.339 227.035 210.949C226.762 211.555 226.626 212.299 226.626 213.182C226.626 214.064 226.762 214.811 227.035 215.42C227.311 216.027 227.692 216.487 228.177 216.801C228.662 217.112 229.22 217.267 229.853 217.267C230.486 217.267 231.044 217.112 231.529 216.801C232.014 216.487 232.393 216.027 232.665 215.42C232.942 214.811 233.08 214.064 233.08 213.182ZM245.628 211.08C245.533 210.773 245.402 210.498 245.236 210.256C245.073 210.009 244.876 209.799 244.645 209.625C244.418 209.451 244.156 209.32 243.861 209.233C243.565 209.142 243.243 209.097 242.895 209.097C242.27 209.097 241.713 209.254 241.224 209.568C240.736 209.883 240.351 210.345 240.071 210.955C239.795 211.561 239.656 212.299 239.656 213.17C239.656 214.049 239.795 214.794 240.071 215.403C240.348 216.013 240.732 216.477 241.224 216.795C241.717 217.11 242.289 217.267 242.94 217.267C243.531 217.267 244.043 217.153 244.474 216.926C244.91 216.699 245.245 216.377 245.48 215.96C245.715 215.54 245.832 215.047 245.832 214.483L246.31 214.557H243.151V212.909H247.872V214.307C247.872 215.303 247.66 216.165 247.236 216.892C246.812 217.619 246.228 218.18 245.486 218.574C244.743 218.964 243.891 219.159 242.929 219.159C241.857 219.159 240.916 218.919 240.105 218.438C239.298 217.953 238.668 217.265 238.213 216.375C237.762 215.481 237.537 214.42 237.537 213.193C237.537 212.254 237.67 211.415 237.935 210.676C238.204 209.938 238.579 209.311 239.06 208.795C239.541 208.277 240.105 207.883 240.753 207.614C241.401 207.341 242.105 207.205 242.867 207.205C243.51 207.205 244.111 207.299 244.668 207.489C245.224 207.674 245.719 207.939 246.151 208.284C246.586 208.629 246.944 209.038 247.224 209.511C247.505 209.985 247.688 210.508 247.776 211.08H245.628Z" fill="black"/>
<path d="M167.545 224.727H168.209V229.543C168.209 230.037 168.093 230.48 167.861 230.871C167.629 231.259 167.306 231.566 166.891 231.79C166.479 232.013 166 232.124 165.453 232.124C164.909 232.124 164.429 232.012 164.015 231.787C163.601 231.562 163.277 231.255 163.045 230.867C162.813 230.479 162.697 230.037 162.697 229.543V224.727H163.361V229.496C163.361 229.882 163.448 230.227 163.621 230.53C163.793 230.83 164.036 231.067 164.349 231.24C164.664 231.413 165.032 231.499 165.453 231.499C165.874 231.499 166.243 231.413 166.557 231.24C166.872 231.067 167.115 230.83 167.285 230.53C167.458 230.227 167.545 229.882 167.545 229.496V224.727ZM170.549 224.727L172.822 231.137H172.886L175.159 224.727H175.855L173.209 232H172.499L169.853 224.727H170.549ZM184.663 226.545C184.622 226.141 184.444 225.819 184.126 225.58C183.809 225.34 183.41 225.221 182.93 225.221C182.591 225.221 182.293 225.279 182.035 225.395C181.779 225.511 181.578 225.672 181.431 225.878C181.287 226.081 181.214 226.313 181.214 226.574C181.214 226.766 181.256 226.934 181.339 227.078C181.422 227.223 181.533 227.347 181.673 227.451C181.815 227.553 181.971 227.64 182.141 227.714C182.314 227.787 182.488 227.849 182.663 227.898L183.43 228.119C183.662 228.183 183.894 228.264 184.126 228.364C184.358 228.463 184.57 228.589 184.762 228.74C184.956 228.889 185.111 229.073 185.227 229.29C185.346 229.506 185.405 229.765 185.405 230.068C185.405 230.456 185.304 230.806 185.103 231.116C184.902 231.426 184.613 231.672 184.236 231.854C183.86 232.034 183.409 232.124 182.884 232.124C182.389 232.124 181.959 232.043 181.594 231.879C181.23 231.714 180.943 231.485 180.735 231.194C180.527 230.903 180.41 230.565 180.384 230.182H181.065C181.089 230.468 181.184 230.711 181.349 230.91C181.515 231.109 181.731 231.26 181.996 231.364C182.261 231.466 182.557 231.517 182.884 231.517C183.246 231.517 183.568 231.457 183.849 231.336C184.134 231.213 184.356 231.042 184.517 230.825C184.68 230.604 184.762 230.349 184.762 230.058C184.762 229.811 184.698 229.605 184.57 229.44C184.442 229.272 184.264 229.131 184.034 229.017C183.807 228.903 183.543 228.803 183.242 228.715L182.372 228.46C181.802 228.289 181.359 228.054 181.044 227.753C180.729 227.452 180.572 227.069 180.572 226.602C180.572 226.212 180.676 225.868 180.884 225.572C181.095 225.274 181.379 225.042 181.736 224.876C182.096 224.708 182.5 224.624 182.947 224.624C183.4 224.624 183.8 224.707 184.148 224.873C184.496 225.039 184.772 225.267 184.975 225.558C185.181 225.847 185.291 226.176 185.305 226.545H184.663ZM186.962 225.324V224.727H192.236V225.324H189.931V232H189.267V225.324H186.962ZM194.131 232V224.727H196.478C196.994 224.727 197.425 224.821 197.771 225.008C198.119 225.192 198.38 225.449 198.556 225.778C198.733 226.105 198.822 226.48 198.822 226.904C198.822 227.328 198.733 227.702 198.556 228.026C198.38 228.351 198.12 228.604 197.774 228.786C197.429 228.969 197 229.06 196.489 229.06H194.49V228.452H196.471C196.85 228.452 197.165 228.39 197.416 228.264C197.669 228.139 197.857 227.96 197.98 227.728C198.106 227.496 198.169 227.221 198.169 226.904C198.169 226.587 198.106 226.31 197.98 226.073C197.855 225.834 197.666 225.649 197.412 225.519C197.161 225.389 196.844 225.324 196.46 225.324H194.795V232H194.131ZM197.338 228.719L199.127 232H198.36L196.588 228.719H197.338ZM200.85 232H200.154L202.8 224.727H203.51L206.156 232H205.46L203.18 225.59H203.13L200.85 232ZM201.351 229.212H204.959V229.809H201.351V229.212ZM203.155 224.276C202.89 224.276 202.664 224.184 202.477 223.999C202.292 223.812 202.2 223.586 202.2 223.321C202.2 223.143 202.242 222.982 202.327 222.838C202.413 222.694 202.528 222.579 202.672 222.494C202.819 222.408 202.98 222.366 203.155 222.366C203.332 222.366 203.493 222.408 203.638 222.494C203.782 222.579 203.897 222.694 203.982 222.838C204.068 222.982 204.11 223.143 204.11 223.321C204.11 223.496 204.068 223.657 203.982 223.804C203.897 223.948 203.782 224.063 203.638 224.148C203.493 224.234 203.332 224.276 203.155 224.276ZM203.155 223.861C203.306 223.861 203.433 223.809 203.535 223.705C203.639 223.598 203.691 223.47 203.691 223.321C203.691 223.17 203.639 223.042 203.535 222.938C203.433 222.833 203.306 222.781 203.155 222.781C203.003 222.781 202.876 222.835 202.771 222.941C202.67 223.045 202.619 223.172 202.619 223.321C202.619 223.473 202.67 223.6 202.771 223.705C202.876 223.809 203.003 223.861 203.155 223.861ZM207.802 232V224.727H208.466V231.403H211.932V232H207.802ZM214.491 224.727V232H213.827V224.727H214.491ZM222.489 224.727V232H221.842L217.546 225.91H217.489V232H216.825V224.727H217.467L221.779 230.825H221.835V224.727H222.489ZM229.854 227C229.788 226.759 229.691 226.532 229.563 226.322C229.435 226.109 229.277 225.923 229.087 225.764C228.9 225.603 228.684 225.478 228.437 225.388C228.194 225.298 227.921 225.253 227.621 225.253C227.147 225.253 226.723 225.376 226.349 225.622C225.975 225.868 225.679 226.223 225.462 226.688C225.246 227.152 225.138 227.71 225.138 228.364C225.138 229.015 225.247 229.572 225.465 230.036C225.683 230.5 225.981 230.857 226.36 231.105C226.741 231.351 227.177 231.474 227.667 231.474C228.114 231.474 228.51 231.375 228.853 231.176C229.196 230.977 229.464 230.693 229.655 230.324C229.85 229.955 229.944 229.515 229.94 229.006L230.153 229.074H227.823V228.477H230.586V229.074C230.586 229.694 230.46 230.23 230.209 230.683C229.958 231.135 229.614 231.484 229.176 231.73C228.738 231.976 228.235 232.099 227.667 232.099C227.032 232.099 226.477 231.947 226.001 231.641C225.525 231.334 225.155 230.9 224.89 230.342C224.627 229.781 224.496 229.121 224.496 228.364C224.496 227.793 224.571 227.278 224.723 226.819C224.874 226.36 225.089 225.967 225.366 225.64C225.645 225.313 225.975 225.063 226.356 224.891C226.738 224.715 227.159 224.628 227.621 224.628C228.018 224.628 228.382 224.691 228.711 224.816C229.042 224.942 229.333 225.114 229.584 225.335C229.838 225.552 230.045 225.804 230.206 226.091C230.369 226.375 230.479 226.678 230.536 227H229.854Z" fill="#747480"/>
<path d="M193.472 243.063C193.279 243.063 193.114 242.993 192.976 242.855C192.838 242.717 192.769 242.552 192.769 242.359C192.769 242.167 192.838 242.001 192.976 241.863C193.114 241.725 193.279 241.656 193.472 241.656C193.664 241.656 193.83 241.725 193.968 241.863C194.106 242.001 194.175 242.167 194.175 242.359C194.175 242.487 194.142 242.604 194.077 242.711C194.015 242.818 193.93 242.904 193.823 242.969C193.719 243.031 193.602 243.063 193.472 243.063ZM196.501 243.063C196.308 243.063 196.143 242.993 196.005 242.855C195.867 242.717 195.798 242.552 195.798 242.359C195.798 242.167 195.867 242.001 196.005 241.863C196.143 241.725 196.308 241.656 196.501 241.656C196.694 241.656 196.859 241.725 196.997 241.863C197.135 242.001 197.204 242.167 197.204 242.359C197.204 242.487 197.172 242.604 197.106 242.711C197.044 242.818 196.959 242.904 196.853 242.969C196.748 243.031 196.631 243.063 196.501 243.063ZM199.53 243.063C199.338 243.063 199.172 242.993 199.034 242.855C198.896 242.717 198.827 242.552 198.827 242.359C198.827 242.167 198.896 242.001 199.034 241.863C199.172 241.725 199.338 241.656 199.53 241.656C199.723 241.656 199.888 241.725 200.026 241.863C200.164 242.001 200.233 242.167 200.233 242.359C200.233 242.487 200.201 242.604 200.136 242.711C200.073 242.818 199.989 242.904 199.882 242.969C199.778 243.031 199.66 243.063 199.53 243.063Z" fill="#E4E4E4"/>
<path d="M178.372 98.1989C177.311 98.1989 176.367 98.0166 175.538 97.652C174.714 97.2827 174.063 96.776 173.585 96.1321C173.111 95.4834 172.868 94.7353 172.853 93.8878H175.95C175.969 94.2429 176.085 94.5554 176.298 94.8253C176.516 95.0904 176.805 95.2964 177.164 95.4432C177.524 95.59 177.929 95.6634 178.379 95.6634C178.848 95.6634 179.262 95.5805 179.622 95.4148C179.982 95.2491 180.263 95.0194 180.467 94.7259C180.671 94.4323 180.772 94.0937 180.772 93.7102C180.772 93.322 180.663 92.9787 180.446 92.6804C180.233 92.3774 179.925 92.1406 179.522 91.9702C179.125 91.7997 178.651 91.7145 178.102 91.7145H176.745V89.456H178.102C178.566 89.456 178.975 89.3755 179.331 89.2145C179.69 89.0535 179.97 88.831 180.169 88.5469C180.368 88.258 180.467 87.9219 180.467 87.5384C180.467 87.1738 180.379 86.8542 180.204 86.5795C180.034 86.3002 179.792 86.0824 179.48 85.9261C179.172 85.7699 178.812 85.6918 178.4 85.6918C177.984 85.6918 177.602 85.7675 177.257 85.919C176.911 86.0658 176.634 86.2765 176.426 86.5511C176.217 86.8258 176.106 87.1477 176.092 87.517H173.145C173.159 86.679 173.398 85.9403 173.862 85.3011C174.326 84.6619 174.951 84.1624 175.737 83.8026C176.528 83.438 177.42 83.2557 178.414 83.2557C179.418 83.2557 180.297 83.438 181.049 83.8026C181.802 84.1671 182.387 84.6596 182.804 85.2798C183.225 85.8954 183.433 86.5866 183.429 87.3537C183.433 88.1681 183.18 88.8475 182.669 89.392C182.162 89.9366 181.502 90.2822 180.687 90.429V90.5426C181.757 90.6799 182.572 91.0516 183.13 91.6577C183.694 92.259 183.973 93.0118 183.968 93.9162C183.973 94.7448 183.734 95.4811 183.251 96.125C182.773 96.7689 182.112 97.2756 181.27 97.6449C180.427 98.0142 179.461 98.1989 178.372 98.1989Z" fill="white"/>
<path d="M239.404 104.443V102.021L245.477 92.4545H247.565V95.8068H246.329L242.501 101.865V101.979H251.13V104.443H239.404ZM246.386 107V103.705L246.442 102.632V92.4545H249.326V107H246.386Z" fill="white"/>
<path d="M293.601 146.199C292.597 146.199 291.702 146.014 290.916 145.645C290.135 145.276 289.515 144.767 289.055 144.118C288.596 143.469 288.357 142.726 288.338 141.888H291.321C291.354 142.451 291.591 142.908 292.031 143.259C292.472 143.609 292.995 143.784 293.601 143.784C294.084 143.784 294.51 143.678 294.879 143.464C295.253 143.247 295.545 142.946 295.753 142.562C295.966 142.174 296.072 141.729 296.072 141.227C296.072 140.716 295.964 140.266 295.746 139.878C295.533 139.49 295.237 139.187 294.858 138.969C294.479 138.751 294.046 138.64 293.558 138.635C293.132 138.635 292.718 138.723 292.315 138.898C291.918 139.073 291.607 139.312 291.385 139.615L288.651 139.125L289.339 131.455H298.232V133.969H291.875L291.499 137.612H291.584C291.839 137.252 292.225 136.954 292.741 136.717C293.258 136.481 293.835 136.362 294.474 136.362C295.35 136.362 296.132 136.568 296.818 136.98C297.505 137.392 298.047 137.958 298.445 138.678C298.842 139.393 299.039 140.216 299.034 141.149C299.039 142.129 298.812 143 298.352 143.763C297.898 144.52 297.261 145.117 296.442 145.553C295.627 145.983 294.68 146.199 293.601 146.199Z" fill="white"/>
<path d="M308.558 205.199C307.81 205.194 307.088 205.069 306.392 204.822C305.701 204.576 305.08 204.176 304.531 203.622C303.982 203.068 303.546 202.334 303.224 201.42C302.907 200.507 302.749 199.384 302.749 198.054C302.753 196.832 302.893 195.741 303.168 194.78C303.447 193.814 303.845 192.995 304.361 192.322C304.882 191.65 305.504 191.139 306.229 190.788C306.953 190.433 307.765 190.256 308.665 190.256C309.635 190.256 310.492 190.445 311.236 190.824C311.979 191.198 312.576 191.707 313.026 192.351C313.48 192.995 313.755 193.717 313.849 194.517H310.817C310.698 194.01 310.45 193.613 310.071 193.324C309.692 193.035 309.223 192.891 308.665 192.891C307.718 192.891 306.998 193.303 306.506 194.126C306.018 194.95 305.769 196.07 305.76 197.486H305.859C306.077 197.055 306.371 196.688 306.74 196.385C307.114 196.077 307.538 195.843 308.011 195.682C308.49 195.516 308.994 195.433 309.524 195.433C310.386 195.433 311.153 195.637 311.825 196.044C312.498 196.446 313.028 197 313.416 197.706C313.804 198.411 313.999 199.219 313.999 200.128C313.999 201.113 313.769 201.989 313.31 202.756C312.855 203.523 312.218 204.124 311.399 204.56C310.585 204.991 309.638 205.204 308.558 205.199ZM308.544 202.784C309.018 202.784 309.441 202.67 309.815 202.443C310.189 202.216 310.483 201.908 310.696 201.52C310.909 201.132 311.016 200.696 311.016 200.213C311.016 199.73 310.909 199.297 310.696 198.913C310.488 198.53 310.199 198.224 309.83 197.997C309.46 197.77 309.039 197.656 308.565 197.656C308.21 197.656 307.881 197.723 307.578 197.855C307.28 197.988 307.017 198.172 306.79 198.409C306.567 198.646 306.392 198.92 306.264 199.233C306.136 199.541 306.072 199.87 306.072 200.22C306.072 200.689 306.179 201.117 306.392 201.506C306.61 201.894 306.903 202.204 307.273 202.436C307.647 202.668 308.071 202.784 308.544 202.784Z" fill="white"/>
<path d="M291.86 271L297.89 259.068V258.969H290.865V256.455H301.071V259.004L295.034 271H291.86Z" fill="white"/>
<mask id="path-17-outside-1_178_298" maskUnits="userSpaceOnUse" x="191" y="247" width="119" height="126" fill="black">
<rect fill="white" x="191" y="247" width="119" height="126"/>
<path d="M303.469 323.94C277.145 346.413 245.016 361.006 210.772 366.042L197.386 275.021C214.508 272.503 230.572 265.207 243.735 253.97L303.469 323.94Z"/>
</mask>
<path d="M303.469 323.94C277.145 346.413 245.016 361.006 210.772 366.042L197.386 275.021C214.508 272.503 230.572 265.207 243.735 253.97L303.469 323.94Z" fill="#D0241A"/>
<path d="M303.469 323.94C277.145 346.413 245.016 361.006 210.772 366.042L197.386 275.021C214.508 272.503 230.572 265.207 243.735 253.97L303.469 323.94Z" stroke="#AD2921" stroke-width="12" stroke-linejoin="round" mask="url(#path-17-outside-1_178_298)"/>
<path d="M240.412 322.318C238.662 322.318 237.105 322.034 235.741 321.466C234.385 320.89 233.321 320.106 232.548 319.114C231.776 318.121 231.389 316.996 231.389 315.739C231.389 314.769 231.609 313.879 232.048 313.068C232.495 312.25 233.101 311.572 233.866 311.034C234.632 310.489 235.488 310.14 236.435 309.989V309.83C235.192 309.58 234.185 308.977 233.412 308.023C232.639 307.061 232.253 305.943 232.253 304.67C232.253 303.466 232.605 302.394 233.31 301.455C234.014 300.508 234.98 299.765 236.207 299.227C237.442 298.682 238.844 298.409 240.412 298.409C241.98 298.409 243.378 298.682 244.605 299.227C245.84 299.773 246.81 300.519 247.514 301.466C248.219 302.405 248.575 303.473 248.582 304.67C248.575 305.951 248.181 307.068 247.401 308.023C246.62 308.977 245.62 309.58 244.401 309.83V309.989C245.332 310.14 246.177 310.489 246.935 311.034C247.7 311.572 248.306 312.25 248.753 313.068C249.207 313.879 249.438 314.769 249.446 315.739C249.438 316.996 249.048 318.121 248.276 319.114C247.503 320.106 246.435 320.89 245.071 321.466C243.715 322.034 242.162 322.318 240.412 322.318ZM240.412 318.705C241.192 318.705 241.874 318.564 242.457 318.284C243.041 317.996 243.495 317.602 243.821 317.102C244.154 316.595 244.321 316.011 244.321 315.352C244.321 314.678 244.151 314.083 243.81 313.568C243.469 313.045 243.007 312.636 242.423 312.341C241.84 312.038 241.17 311.886 240.412 311.886C239.662 311.886 238.991 312.038 238.401 312.341C237.81 312.636 237.344 313.045 237.003 313.568C236.67 314.083 236.503 314.678 236.503 315.352C236.503 316.011 236.666 316.595 236.991 317.102C237.317 317.602 237.776 317.996 238.366 318.284C238.957 318.564 239.639 318.705 240.412 318.705ZM240.412 308.307C241.063 308.307 241.643 308.174 242.151 307.909C242.658 307.644 243.056 307.277 243.344 306.807C243.632 306.337 243.776 305.795 243.776 305.182C243.776 304.576 243.632 304.045 243.344 303.591C243.056 303.129 242.662 302.769 242.162 302.511C241.662 302.246 241.079 302.114 240.412 302.114C239.753 302.114 239.17 302.246 238.662 302.511C238.154 302.769 237.757 303.129 237.469 303.591C237.188 304.045 237.048 304.576 237.048 305.182C237.048 305.795 237.192 306.337 237.48 306.807C237.768 307.277 238.166 307.644 238.673 307.909C239.181 308.174 239.76 308.307 240.412 308.307Z" fill="white"/>
<g clip-path="url(#clip0_178_298)">
<path d="M188.14 166.26L185.44 163.575L183.325 165.69L186.01 168.375L188.14 166.26ZM184 174.75H179.5V177.75H184V174.75ZM197.5 159.825H194.5V164.25H197.5V159.825V159.825ZM208.675 165.69L206.56 163.575L203.875 166.26L205.99 168.375L208.675 165.69ZM203.86 186.24L206.545 188.94L208.66 186.825L205.96 184.14L203.86 186.24ZM208 174.75V177.75H212.5V174.75H208ZM196 167.25C191.035 167.25 187 171.285 187 176.25C187 181.215 191.035 185.25 196 185.25C200.965 185.25 205 181.215 205 176.25C205 171.285 200.965 167.25 196 167.25ZM194.5 192.675H197.5V188.25H194.5V192.675ZM183.325 186.81L185.44 188.925L188.125 186.225L186.01 184.11L183.325 186.81Z" fill="#E0362C"/>
<path d="M192.276 164.096L190.728 160.618L187.992 161.826L189.526 165.3L192.276 164.096ZM185.351 170.519L181.154 168.895L180.071 171.692L184.268 173.317L185.351 170.519ZM203.328 161.474L200.531 160.391L198.933 164.518L201.731 165.601L203.328 161.474ZM211.632 170.978L210.424 168.242L206.95 169.776L208.159 172.512L211.632 170.978ZM199.724 188.404L201.253 191.891L203.989 190.682L202.44 187.203L199.724 188.404ZM207.732 179.183L206.649 181.981L210.846 183.605L211.929 180.808L207.732 179.183ZM188.672 191.026L191.469 192.109L193.067 187.982L190.269 186.899L188.672 191.026ZM180.368 181.522L181.576 184.258L185.055 182.71L183.846 179.974L180.368 181.522Z" fill="#E0362C"/>
</g>
<defs>
<clipPath id="clip0_178_298">
<rect width="36" height="36" fill="white" transform="translate(178 159)"/>
</clipPath>
</defs>
</svg>
