<svg width="368" height="374" viewBox="0 0 368 374" fill="none" xmlns="http://www.w3.org/2000/svg">
<path d="M27 207C27 177.48 35.4842 148.583 51.4422 123.749C67.4002 98.9144 90.1596 79.1899 117.01 66.924L149.005 136.962C135.58 143.095 124.2 152.957 116.221 165.374C108.242 177.791 104 192.24 104 207L27 207Z" fill="#AAE47C"/>
<path d="M90.5813 133V130.784L95.7589 125.99C96.1992 125.564 96.5685 125.18 96.8668 124.839C97.1699 124.499 97.3995 124.165 97.5558 123.838C97.712 123.507 97.7901 123.149 97.7901 122.766C97.7901 122.339 97.6931 121.973 97.4989 121.665C97.3048 121.352 97.0397 121.113 96.7035 120.947C96.3673 120.777 95.9862 120.692 95.56 120.692C95.1149 120.692 94.7267 120.782 94.3952 120.962C94.0638 121.142 93.8081 121.4 93.6282 121.736C93.4483 122.072 93.3583 122.472 93.3583 122.936H90.4393C90.4393 121.984 90.6547 121.158 91.0856 120.457C91.5165 119.757 92.1201 119.214 92.8967 118.831C93.6732 118.447 94.5681 118.256 95.5813 118.256C96.623 118.256 97.5297 118.44 98.3015 118.81C99.078 119.174 99.6817 119.681 100.113 120.33C100.543 120.978 100.759 121.722 100.759 122.56C100.759 123.109 100.65 123.651 100.432 124.186C100.219 124.721 99.8379 125.315 99.2887 125.969C98.7395 126.617 97.9653 127.396 96.9663 128.305L94.8427 130.386V130.486H100.951V133H90.5813Z" fill="white"/>
<path d="M52.1643 291.364C35.7924 266.362 27.049 237.137 27.0002 207.251L104 207.126C104.024 222.068 108.396 236.681 116.582 249.182L52.1643 291.364Z" fill="#724BC3"/>
<path d="M116.029 67.3764C136.042 58.0638 157.822 53.1623 179.895 53.004C201.968 52.8456 223.817 57.4342 243.961 66.4587C264.106 75.4832 282.075 88.7327 296.65 105.309C311.226 121.886 322.068 141.402 328.441 162.535L254.721 184.768C251.534 174.201 246.113 164.443 238.825 156.155C231.537 147.866 222.553 141.242 212.481 136.729C202.409 132.217 191.484 129.923 180.448 130.002C169.411 130.081 158.521 132.532 148.514 137.188L116.029 67.3764Z" fill="#FFD600"/>
<path d="M282.8 322.554C266.237 337.145 246.731 348.006 225.604 354.399C204.477 360.792 182.222 362.569 160.348 359.609C138.474 356.649 117.492 349.021 98.8239 337.242C80.1558 325.464 64.2379 309.81 52.149 291.341L116.574 249.171C122.619 258.405 130.578 266.232 139.912 272.121C149.246 278.011 159.737 281.824 170.674 283.304C181.611 284.785 192.738 283.896 203.302 280.7C213.866 277.503 223.619 272.073 231.9 264.777L282.8 322.554Z" fill="#E0362C"/>
<path d="M328.403 162.408C336.95 190.663 337.197 220.779 329.114 249.17C321.03 277.561 304.957 303.031 282.809 322.546L231.904 264.773C242.979 255.016 251.015 242.281 255.057 228.085C259.099 213.89 258.975 198.832 254.701 184.704L328.403 162.408Z" fill="#FF9831"/>
<path d="M70.7219 169.455V184H67.6467V172.374H67.5614L64.2305 174.462V171.734L67.8313 169.455H70.7219Z" fill="white"/>
<path d="M104.952 291.455V306H101.877V294.374H101.792L98.4609 296.462V293.734L102.062 291.455H104.952ZM114.113 306.32C112.891 306.315 111.84 306.014 110.959 305.418C110.083 304.821 109.408 303.957 108.935 302.825C108.466 301.694 108.234 300.332 108.239 298.741C108.239 297.155 108.473 295.804 108.942 294.686C109.416 293.569 110.09 292.719 110.966 292.136C111.847 291.549 112.896 291.256 114.113 291.256C115.329 291.256 116.376 291.549 117.252 292.136C118.132 292.723 118.81 293.576 119.283 294.693C119.757 295.806 119.991 297.155 119.986 298.741C119.986 300.337 119.749 301.701 119.276 302.832C118.807 303.964 118.135 304.828 117.259 305.425C116.383 306.021 115.334 306.32 114.113 306.32ZM114.113 303.77C114.946 303.77 115.611 303.351 116.108 302.513C116.605 301.675 116.852 300.418 116.847 298.741C116.847 297.638 116.733 296.72 116.506 295.986C116.283 295.252 115.966 294.7 115.554 294.331C115.147 293.962 114.667 293.777 114.113 293.777C113.284 293.777 112.621 294.191 112.124 295.02C111.627 295.848 111.376 297.089 111.371 298.741C111.371 299.859 111.482 300.792 111.705 301.54C111.932 302.283 112.252 302.842 112.664 303.216C113.076 303.585 113.559 303.77 114.113 303.77Z" fill="white"/>
<path d="M67.9368 234.455V249H64.8615V237.374H64.7763L61.4453 239.462V236.734L65.0462 234.455H67.9368ZM77.7219 234.455V249H74.6467V237.374H74.5614L71.2305 239.462V236.734L74.8313 234.455H77.7219Z" fill="white"/>
<path d="M131.942 211.364L134.97 220.523H135.089L138.112 211.364H140.43L136.328 223H133.726L129.629 211.364H131.942ZM142.603 223V211.364H150.171V213.131H144.711V216.29H149.779V218.057H144.711V221.233H150.217V223H142.603ZM152.962 223V211.364H155.07V221.233H160.195V223H152.962ZM166.607 223H162.664V211.364H166.687C167.842 211.364 168.835 211.597 169.664 212.062C170.498 212.525 171.138 213.189 171.585 214.057C172.032 214.924 172.255 215.962 172.255 217.17C172.255 218.383 172.03 219.424 171.579 220.295C171.132 221.167 170.486 221.835 169.642 222.301C168.801 222.767 167.789 223 166.607 223ZM164.772 221.176H166.505C167.316 221.176 167.992 221.028 168.534 220.733C169.075 220.434 169.482 219.989 169.755 219.398C170.028 218.803 170.164 218.061 170.164 217.17C170.164 216.28 170.028 215.542 169.755 214.955C169.482 214.364 169.079 213.922 168.545 213.631C168.015 213.335 167.356 213.188 166.568 213.188H164.772V221.176ZM177.006 211.364V223H174.898V211.364H177.006ZM187.724 215.08C187.629 214.773 187.499 214.498 187.332 214.256C187.169 214.009 186.972 213.799 186.741 213.625C186.514 213.451 186.253 213.32 185.957 213.233C185.662 213.142 185.34 213.097 184.991 213.097C184.366 213.097 183.809 213.254 183.321 213.568C182.832 213.883 182.448 214.345 182.167 214.955C181.891 215.561 181.753 216.299 181.753 217.17C181.753 218.049 181.891 218.794 182.167 219.403C182.444 220.013 182.828 220.477 183.321 220.795C183.813 221.11 184.385 221.267 185.037 221.267C185.628 221.267 186.139 221.153 186.571 220.926C187.006 220.699 187.342 220.377 187.576 219.96C187.811 219.54 187.929 219.047 187.929 218.483L188.406 218.557H185.247V216.909H189.968V218.307C189.968 219.303 189.756 220.165 189.332 220.892C188.908 221.619 188.324 222.18 187.582 222.574C186.84 222.964 185.987 223.159 185.025 223.159C183.953 223.159 183.012 222.919 182.201 222.438C181.395 221.953 180.764 221.265 180.309 220.375C179.859 219.481 179.633 218.42 179.633 217.193C179.633 216.254 179.766 215.415 180.031 214.676C180.3 213.938 180.675 213.311 181.156 212.795C181.637 212.277 182.201 211.883 182.849 211.614C183.497 211.341 184.201 211.205 184.963 211.205C185.607 211.205 186.207 211.299 186.764 211.489C187.321 211.674 187.815 211.939 188.247 212.284C188.682 212.629 189.04 213.038 189.321 213.511C189.601 213.985 189.785 214.508 189.872 215.08H187.724ZM197.256 223V211.364H199.364V216.29H204.756V211.364H206.869V223H204.756V218.057H199.364V223H197.256ZM211.228 223.534L210.2 222.83L218.455 210.852L219.484 211.557L211.228 223.534ZM220.2 217.182C220.2 218.436 219.965 219.509 219.495 220.403C219.029 221.294 218.393 221.975 217.586 222.449C216.783 222.922 215.872 223.159 214.853 223.159C213.834 223.159 212.921 222.922 212.114 222.449C211.311 221.972 210.675 221.288 210.205 220.398C209.739 219.504 209.506 218.432 209.506 217.182C209.506 215.928 209.739 214.856 210.205 213.966C210.675 213.072 211.311 212.388 212.114 211.915C212.921 211.441 213.834 211.205 214.853 211.205C215.872 211.205 216.783 211.441 217.586 211.915C218.393 212.388 219.029 213.072 219.495 213.966C219.965 214.856 220.2 215.928 220.2 217.182ZM218.08 217.182C218.08 216.299 217.942 215.555 217.665 214.949C217.393 214.339 217.014 213.879 216.529 213.568C216.044 213.254 215.486 213.097 214.853 213.097C214.22 213.097 213.662 213.254 213.177 213.568C212.692 213.879 212.311 214.339 212.035 214.949C211.762 215.555 211.626 216.299 211.626 217.182C211.626 218.064 211.762 218.811 212.035 219.42C212.311 220.027 212.692 220.487 213.177 220.801C213.662 221.112 214.22 221.267 214.853 221.267C215.486 221.267 216.044 221.112 216.529 220.801C217.014 220.487 217.393 220.027 217.665 219.42C217.942 218.811 218.08 218.064 218.08 217.182ZM230.628 215.08C230.533 214.773 230.402 214.498 230.236 214.256C230.073 214.009 229.876 213.799 229.645 213.625C229.418 213.451 229.156 213.32 228.861 213.233C228.565 213.142 228.243 213.097 227.895 213.097C227.27 213.097 226.713 213.254 226.224 213.568C225.736 213.883 225.351 214.345 225.071 214.955C224.795 215.561 224.656 216.299 224.656 217.17C224.656 218.049 224.795 218.794 225.071 219.403C225.348 220.013 225.732 220.477 226.224 220.795C226.717 221.11 227.289 221.267 227.94 221.267C228.531 221.267 229.043 221.153 229.474 220.926C229.91 220.699 230.245 220.377 230.48 219.96C230.715 219.54 230.832 219.047 230.832 218.483L231.31 218.557H228.151V216.909H232.872V218.307C232.872 219.303 232.66 220.165 232.236 220.892C231.812 221.619 231.228 222.18 230.486 222.574C229.743 222.964 228.891 223.159 227.929 223.159C226.857 223.159 225.916 222.919 225.105 222.438C224.298 221.953 223.668 221.265 223.213 220.375C222.762 219.481 222.537 218.42 222.537 217.193C222.537 216.254 222.67 215.415 222.935 214.676C223.204 213.938 223.579 213.311 224.06 212.795C224.541 212.277 225.105 211.883 225.753 211.614C226.401 211.341 227.105 211.205 227.867 211.205C228.51 211.205 229.111 211.299 229.668 211.489C230.224 211.674 230.719 211.939 231.151 212.284C231.586 212.629 231.944 213.038 232.224 213.511C232.505 213.985 232.688 214.508 232.776 215.08H230.628Z" fill="black"/>
<path d="M152.545 228.727H153.209V233.543C153.209 234.037 153.093 234.48 152.861 234.871C152.629 235.259 152.306 235.566 151.891 235.79C151.479 236.013 151 236.124 150.453 236.124C149.909 236.124 149.429 236.012 149.015 235.787C148.601 235.562 148.277 235.255 148.045 234.867C147.813 234.479 147.697 234.037 147.697 233.543V228.727H148.361V233.496C148.361 233.882 148.448 234.227 148.621 234.53C148.793 234.83 149.036 235.067 149.349 235.24C149.664 235.413 150.032 235.499 150.453 235.499C150.874 235.499 151.243 235.413 151.557 235.24C151.872 235.067 152.115 234.83 152.285 234.53C152.458 234.227 152.545 233.882 152.545 233.496V228.727ZM155.549 228.727L157.822 235.137H157.886L160.159 228.727H160.855L158.209 236H157.499L154.853 228.727H155.549ZM169.663 230.545C169.622 230.141 169.444 229.819 169.126 229.58C168.809 229.34 168.41 229.221 167.93 229.221C167.591 229.221 167.293 229.279 167.035 229.395C166.779 229.511 166.578 229.672 166.431 229.878C166.287 230.081 166.214 230.313 166.214 230.574C166.214 230.766 166.256 230.934 166.339 231.078C166.422 231.223 166.533 231.347 166.673 231.451C166.815 231.553 166.971 231.64 167.141 231.714C167.314 231.787 167.488 231.849 167.663 231.898L168.43 232.119C168.662 232.183 168.894 232.264 169.126 232.364C169.358 232.463 169.57 232.589 169.762 232.74C169.956 232.889 170.111 233.073 170.227 233.29C170.346 233.506 170.405 233.765 170.405 234.068C170.405 234.456 170.304 234.806 170.103 235.116C169.902 235.426 169.613 235.672 169.236 235.854C168.86 236.034 168.409 236.124 167.884 236.124C167.389 236.124 166.959 236.043 166.594 235.879C166.23 235.714 165.943 235.485 165.735 235.194C165.527 234.903 165.41 234.565 165.384 234.182H166.065C166.089 234.468 166.184 234.711 166.349 234.91C166.515 235.109 166.731 235.26 166.996 235.364C167.261 235.466 167.557 235.517 167.884 235.517C168.246 235.517 168.568 235.457 168.849 235.336C169.134 235.213 169.356 235.042 169.517 234.825C169.68 234.604 169.762 234.349 169.762 234.058C169.762 233.811 169.698 233.605 169.57 233.44C169.442 233.272 169.264 233.131 169.034 233.017C168.807 232.903 168.543 232.803 168.242 232.715L167.372 232.46C166.802 232.289 166.359 232.054 166.044 231.753C165.729 231.452 165.572 231.069 165.572 230.602C165.572 230.212 165.676 229.868 165.884 229.572C166.095 229.274 166.379 229.042 166.736 228.876C167.096 228.708 167.5 228.624 167.947 228.624C168.4 228.624 168.8 228.707 169.148 228.873C169.496 229.039 169.772 229.267 169.975 229.558C170.181 229.847 170.291 230.176 170.305 230.545H169.663ZM171.962 229.324V228.727H177.236V229.324H174.931V236H174.267V229.324H171.962ZM179.131 236V228.727H181.478C181.994 228.727 182.425 228.821 182.771 229.008C183.119 229.192 183.38 229.449 183.556 229.778C183.733 230.105 183.822 230.48 183.822 230.904C183.822 231.328 183.733 231.702 183.556 232.026C183.38 232.351 183.12 232.604 182.774 232.786C182.429 232.969 182 233.06 181.489 233.06H179.49V232.452H181.471C181.85 232.452 182.165 232.39 182.416 232.264C182.669 232.139 182.857 231.96 182.98 231.728C183.106 231.496 183.169 231.221 183.169 230.904C183.169 230.587 183.106 230.31 182.98 230.073C182.855 229.834 182.666 229.649 182.412 229.519C182.161 229.389 181.844 229.324 181.46 229.324H179.795V236H179.131ZM182.338 232.719L184.127 236H183.36L181.588 232.719H182.338ZM185.85 236H185.154L187.8 228.727H188.51L191.156 236H190.46L188.18 229.59H188.13L185.85 236ZM186.351 233.212H189.959V233.809H186.351V233.212ZM188.155 228.276C187.89 228.276 187.664 228.184 187.477 227.999C187.292 227.812 187.2 227.586 187.2 227.321C187.2 227.143 187.242 226.982 187.327 226.838C187.413 226.694 187.528 226.579 187.672 226.494C187.819 226.408 187.98 226.366 188.155 226.366C188.332 226.366 188.493 226.408 188.638 226.494C188.782 226.579 188.897 226.694 188.982 226.838C189.068 226.982 189.11 227.143 189.11 227.321C189.11 227.496 189.068 227.657 188.982 227.804C188.897 227.948 188.782 228.063 188.638 228.148C188.493 228.234 188.332 228.276 188.155 228.276ZM188.155 227.861C188.306 227.861 188.433 227.809 188.535 227.705C188.639 227.598 188.691 227.47 188.691 227.321C188.691 227.17 188.639 227.042 188.535 226.938C188.433 226.833 188.306 226.781 188.155 226.781C188.003 226.781 187.876 226.835 187.771 226.941C187.67 227.045 187.619 227.172 187.619 227.321C187.619 227.473 187.67 227.6 187.771 227.705C187.876 227.809 188.003 227.861 188.155 227.861ZM192.802 236V228.727H193.466V235.403H196.932V236H192.802ZM199.491 228.727V236H198.827V228.727H199.491ZM207.489 228.727V236H206.842L202.546 229.91H202.489V236H201.825V228.727H202.467L206.779 234.825H206.835V228.727H207.489ZM214.854 231C214.788 230.759 214.691 230.532 214.563 230.322C214.435 230.109 214.277 229.923 214.087 229.764C213.9 229.603 213.684 229.478 213.437 229.388C213.194 229.298 212.921 229.253 212.621 229.253C212.147 229.253 211.723 229.376 211.349 229.622C210.975 229.868 210.679 230.223 210.462 230.688C210.246 231.152 210.138 231.71 210.138 232.364C210.138 233.015 210.247 233.572 210.465 234.036C210.683 234.5 210.981 234.857 211.36 235.105C211.741 235.351 212.177 235.474 212.667 235.474C213.114 235.474 213.51 235.375 213.853 235.176C214.196 234.977 214.464 234.693 214.655 234.324C214.85 233.955 214.944 233.515 214.94 233.006L215.153 233.074H212.823V232.477H215.586V233.074C215.586 233.694 215.46 234.23 215.209 234.683C214.958 235.135 214.614 235.484 214.176 235.73C213.738 235.976 213.235 236.099 212.667 236.099C212.032 236.099 211.477 235.947 211.001 235.641C210.525 235.334 210.155 234.9 209.89 234.342C209.627 233.781 209.496 233.121 209.496 232.364C209.496 231.793 209.571 231.278 209.723 230.819C209.874 230.36 210.089 229.967 210.366 229.64C210.645 229.313 210.975 229.063 211.356 228.891C211.738 228.715 212.159 228.628 212.621 228.628C213.018 228.628 213.382 228.691 213.711 228.816C214.042 228.942 214.333 229.114 214.584 229.335C214.838 229.552 215.045 229.804 215.206 230.091C215.369 230.375 215.479 230.678 215.536 231H214.854Z" fill="#747480"/>
<path d="M178.472 247.063C178.279 247.063 178.114 246.993 177.976 246.855C177.838 246.717 177.769 246.552 177.769 246.359C177.769 246.167 177.838 246.001 177.976 245.863C178.114 245.725 178.279 245.656 178.472 245.656C178.664 245.656 178.83 245.725 178.968 245.863C179.106 246.001 179.175 246.167 179.175 246.359C179.175 246.487 179.142 246.604 179.077 246.711C179.015 246.818 178.93 246.904 178.823 246.969C178.719 247.031 178.602 247.063 178.472 247.063ZM181.501 247.063C181.308 247.063 181.143 246.993 181.005 246.855C180.867 246.717 180.798 246.552 180.798 246.359C180.798 246.167 180.867 246.001 181.005 245.863C181.143 245.725 181.308 245.656 181.501 245.656C181.694 245.656 181.859 245.725 181.997 245.863C182.135 246.001 182.204 246.167 182.204 246.359C182.204 246.487 182.172 246.604 182.106 246.711C182.044 246.818 181.959 246.904 181.853 246.969C181.748 247.031 181.631 247.063 181.501 247.063ZM184.53 247.063C184.338 247.063 184.172 246.993 184.034 246.855C183.896 246.717 183.827 246.552 183.827 246.359C183.827 246.167 183.896 246.001 184.034 245.863C184.172 245.725 184.338 245.656 184.53 245.656C184.723 245.656 184.888 245.725 185.026 245.863C185.164 246.001 185.233 246.167 185.233 246.359C185.233 246.487 185.201 246.604 185.136 246.711C185.073 246.818 184.989 246.904 184.882 246.969C184.778 247.031 184.66 247.063 184.53 247.063Z" fill="#E4E4E4"/>
<path d="M163.372 102.199C162.311 102.199 161.367 102.017 160.538 101.652C159.714 101.283 159.063 100.776 158.585 100.132C158.111 99.4834 157.868 98.7353 157.853 97.8878H160.95C160.969 98.2429 161.085 98.5554 161.298 98.8253C161.516 99.0904 161.805 99.2964 162.164 99.4432C162.524 99.59 162.929 99.6634 163.379 99.6634C163.848 99.6634 164.262 99.5805 164.622 99.4148C164.982 99.2491 165.263 99.0194 165.467 98.7259C165.671 98.4323 165.772 98.0937 165.772 97.7102C165.772 97.322 165.663 96.9787 165.446 96.6804C165.233 96.3774 164.925 96.1406 164.522 95.9702C164.125 95.7997 163.651 95.7145 163.102 95.7145H161.745V93.456H163.102C163.566 93.456 163.975 93.3755 164.331 93.2145C164.69 93.0535 164.97 92.831 165.169 92.5469C165.368 92.258 165.467 91.9219 165.467 91.5384C165.467 91.1738 165.379 90.8542 165.204 90.5795C165.034 90.3002 164.792 90.0824 164.48 89.9261C164.172 89.7699 163.812 89.6918 163.4 89.6918C162.984 89.6918 162.602 89.7675 162.257 89.919C161.911 90.0658 161.634 90.2765 161.426 90.5511C161.217 90.8258 161.106 91.1477 161.092 91.517H158.145C158.159 90.679 158.398 89.9403 158.862 89.3011C159.326 88.6619 159.951 88.1624 160.737 87.8026C161.528 87.438 162.42 87.2557 163.414 87.2557C164.418 87.2557 165.297 87.438 166.049 87.8026C166.802 88.1671 167.387 88.6596 167.804 89.2798C168.225 89.8954 168.433 90.5866 168.429 91.3537C168.433 92.1681 168.18 92.8475 167.669 93.392C167.162 93.9366 166.502 94.2822 165.687 94.429V94.5426C166.757 94.6799 167.572 95.0516 168.13 95.6577C168.694 96.259 168.973 97.0118 168.968 97.9162C168.973 98.7448 168.734 99.4811 168.251 100.125C167.773 100.769 167.112 101.276 166.27 101.645C165.427 102.014 164.461 102.199 163.372 102.199Z" fill="white"/>
<path d="M224.404 108.443V106.021L230.477 96.4545H232.565V99.8068H231.329L227.501 105.865V105.979H236.13V108.443H224.404ZM231.386 111V107.705L231.442 106.632V96.4545H234.326V111H231.386Z" fill="white"/>
<path d="M278.601 150.199C277.597 150.199 276.702 150.014 275.916 149.645C275.135 149.276 274.515 148.767 274.055 148.118C273.596 147.469 273.357 146.726 273.338 145.888H276.321C276.354 146.451 276.591 146.908 277.031 147.259C277.472 147.609 277.995 147.784 278.601 147.784C279.084 147.784 279.51 147.678 279.879 147.464C280.253 147.247 280.545 146.946 280.753 146.562C280.966 146.174 281.072 145.729 281.072 145.227C281.072 144.716 280.964 144.266 280.746 143.878C280.533 143.49 280.237 143.187 279.858 142.969C279.479 142.751 279.046 142.64 278.558 142.635C278.132 142.635 277.718 142.723 277.315 142.898C276.918 143.073 276.607 143.312 276.385 143.615L273.651 143.125L274.339 135.455H283.232V137.969H276.875L276.499 141.612H276.584C276.839 141.252 277.225 140.954 277.741 140.717C278.258 140.481 278.835 140.362 279.474 140.362C280.35 140.362 281.132 140.568 281.818 140.98C282.505 141.392 283.047 141.958 283.445 142.678C283.842 143.393 284.039 144.216 284.034 145.149C284.039 146.129 283.812 147 283.352 147.763C282.898 148.52 282.261 149.117 281.442 149.553C280.627 149.983 279.68 150.199 278.601 150.199Z" fill="white"/>
<path d="M293.558 209.199C292.81 209.194 292.088 209.069 291.392 208.822C290.701 208.576 290.08 208.176 289.531 207.622C288.982 207.068 288.546 206.334 288.224 205.42C287.907 204.507 287.749 203.384 287.749 202.054C287.753 200.832 287.893 199.741 288.168 198.78C288.447 197.814 288.845 196.995 289.361 196.322C289.882 195.65 290.504 195.139 291.229 194.788C291.953 194.433 292.765 194.256 293.665 194.256C294.635 194.256 295.492 194.445 296.236 194.824C296.979 195.198 297.576 195.707 298.026 196.351C298.48 196.995 298.755 197.717 298.849 198.517H295.817C295.698 198.01 295.45 197.613 295.071 197.324C294.692 197.035 294.223 196.891 293.665 196.891C292.718 196.891 291.998 197.303 291.506 198.126C291.018 198.95 290.769 200.07 290.76 201.486H290.859C291.077 201.055 291.371 200.688 291.74 200.385C292.114 200.077 292.538 199.843 293.011 199.682C293.49 199.516 293.994 199.433 294.524 199.433C295.386 199.433 296.153 199.637 296.825 200.044C297.498 200.446 298.028 201 298.416 201.706C298.804 202.411 298.999 203.219 298.999 204.128C298.999 205.113 298.769 205.989 298.31 206.756C297.855 207.523 297.218 208.124 296.399 208.56C295.585 208.991 294.638 209.204 293.558 209.199ZM293.544 206.784C294.018 206.784 294.441 206.67 294.815 206.443C295.189 206.216 295.483 205.908 295.696 205.52C295.909 205.132 296.016 204.696 296.016 204.213C296.016 203.73 295.909 203.297 295.696 202.913C295.488 202.53 295.199 202.224 294.83 201.997C294.46 201.77 294.039 201.656 293.565 201.656C293.21 201.656 292.881 201.723 292.578 201.855C292.28 201.988 292.017 202.172 291.79 202.409C291.567 202.646 291.392 202.92 291.264 203.233C291.136 203.541 291.072 203.87 291.072 204.22C291.072 204.689 291.179 205.117 291.392 205.506C291.61 205.894 291.903 206.204 292.273 206.436C292.647 206.668 293.071 206.784 293.544 206.784Z" fill="white"/>
<path d="M276.86 275L282.89 263.068V262.969H275.865V260.455H286.071V263.004L280.034 275H276.86Z" fill="white"/>
<path d="M229.382 321.199C228.289 321.199 227.316 321.021 226.463 320.666C225.616 320.306 224.951 319.816 224.468 319.196C223.985 318.576 223.743 317.873 223.743 317.087C223.743 316.481 223.881 315.924 224.155 315.418C224.435 314.906 224.813 314.482 225.292 314.146C225.77 313.805 226.305 313.588 226.897 313.493V313.393C226.12 313.237 225.49 312.861 225.007 312.264C224.525 311.663 224.283 310.964 224.283 310.169C224.283 309.416 224.503 308.746 224.944 308.159C225.384 307.567 225.988 307.103 226.755 306.767C227.526 306.426 228.402 306.256 229.382 306.256C230.363 306.256 231.236 306.426 232.003 306.767C232.775 307.108 233.381 307.574 233.821 308.166C234.262 308.753 234.484 309.421 234.489 310.169C234.484 310.969 234.238 311.668 233.75 312.264C233.263 312.861 232.638 313.237 231.875 313.393V313.493C232.458 313.588 232.986 313.805 233.459 314.146C233.937 314.482 234.316 314.906 234.596 315.418C234.88 315.924 235.024 316.481 235.029 317.087C235.024 317.873 234.78 318.576 234.297 319.196C233.814 319.816 233.147 320.306 232.294 320.666C231.447 321.021 230.476 321.199 229.382 321.199ZM229.382 318.94C229.87 318.94 230.296 318.853 230.661 318.678C231.025 318.498 231.31 318.251 231.513 317.939C231.721 317.622 231.826 317.257 231.826 316.845C231.826 316.424 231.719 316.052 231.506 315.73C231.293 315.403 231.004 315.148 230.64 314.963C230.275 314.774 229.856 314.679 229.382 314.679C228.914 314.679 228.495 314.774 228.125 314.963C227.756 315.148 227.465 315.403 227.252 315.73C227.043 316.052 226.939 316.424 226.939 316.845C226.939 317.257 227.041 317.622 227.245 317.939C227.448 318.251 227.735 318.498 228.104 318.678C228.473 318.853 228.9 318.94 229.382 318.94ZM229.382 312.442C229.79 312.442 230.152 312.359 230.469 312.193C230.786 312.027 231.035 311.798 231.215 311.504C231.395 311.211 231.485 310.872 231.485 310.489C231.485 310.11 231.395 309.778 231.215 309.494C231.035 309.205 230.789 308.981 230.476 308.82C230.164 308.654 229.799 308.571 229.382 308.571C228.971 308.571 228.606 308.654 228.289 308.82C227.971 308.981 227.723 309.205 227.543 309.494C227.368 309.778 227.28 310.11 227.28 310.489C227.28 310.872 227.37 311.211 227.55 311.504C227.73 311.798 227.979 312.027 228.296 312.193C228.613 312.359 228.975 312.442 229.382 312.442Z" fill="white"/>
<g clip-path="url(#clip0_178_299)">
<path d="M173.14 170.26L170.44 167.575L168.325 169.69L171.01 172.375L173.14 170.26ZM169 178.75H164.5V181.75H169V178.75ZM182.5 163.825H179.5V168.25H182.5V163.825V163.825ZM193.675 169.69L191.56 167.575L188.875 170.26L190.99 172.375L193.675 169.69ZM188.86 190.24L191.545 192.94L193.66 190.825L190.96 188.14L188.86 190.24ZM193 178.75V181.75H197.5V178.75H193ZM181 171.25C176.035 171.25 172 175.285 172 180.25C172 185.215 176.035 189.25 181 189.25C185.965 189.25 190 185.215 190 180.25C190 175.285 185.965 171.25 181 171.25ZM179.5 196.675H182.5V192.25H179.5V196.675ZM168.325 190.81L170.44 192.925L173.125 190.225L171.01 188.11L168.325 190.81Z" fill="#E0362C"/>
<path d="M177.276 168.096L175.728 164.618L172.992 165.826L174.526 169.3L177.276 168.096ZM170.351 174.519L166.154 172.895L165.071 175.692L169.268 177.317L170.351 174.519ZM188.328 165.474L185.531 164.391L183.933 168.518L186.731 169.601L188.328 165.474ZM196.632 174.978L195.424 172.242L191.95 173.776L193.159 176.512L196.632 174.978ZM184.724 192.404L186.253 195.891L188.989 194.682L187.44 191.203L184.724 192.404ZM192.732 183.183L191.649 185.981L195.846 187.605L196.929 184.808L192.732 183.183ZM173.672 195.026L176.469 196.109L178.067 191.982L175.269 190.899L173.672 195.026ZM165.368 185.522L166.576 188.258L170.055 186.71L168.846 183.974L165.368 185.522Z" fill="#E0362C"/>
</g>
<mask id="path-19-outside-1_178_299" maskUnits="userSpaceOnUse" x="106" y="262" width="116" height="112" fill="black">
<rect fill="white" x="106" y="262" width="116" height="112"/>
<path d="M215.234 365.33C180.727 371.273 145.241 367.248 112.942 353.726L148.471 268.863C164.62 275.624 182.364 277.637 199.617 274.665L215.234 365.33Z"/>
</mask>
<path d="M215.234 365.33C180.727 371.273 145.241 367.248 112.942 353.726L148.471 268.863C164.62 275.624 182.364 277.637 199.617 274.665L215.234 365.33Z" fill="#D0241A"/>
<path d="M215.234 365.33C180.727 371.273 145.241 367.248 112.942 353.726L148.471 268.863C164.62 275.624 182.364 277.637 199.617 274.665L215.234 365.33Z" stroke="#AD2921" stroke-width="12" stroke-linejoin="round" mask="url(#path-19-outside-1_178_299)"/>
<path d="M165.182 312.409C166.379 312.409 167.53 312.61 168.636 313.011C169.75 313.413 170.742 314.053 171.614 314.932C172.492 315.811 173.186 316.977 173.693 318.432C174.208 319.879 174.47 321.655 174.477 323.761C174.477 325.739 174.254 327.504 173.807 329.057C173.367 330.602 172.735 331.917 171.909 333C171.083 334.083 170.087 334.909 168.92 335.477C167.754 336.038 166.451 336.318 165.011 336.318C163.458 336.318 162.087 336.019 160.898 335.42C159.708 334.814 158.75 333.992 158.023 332.955C157.303 331.909 156.867 330.735 156.716 329.432H161.568C161.758 330.28 162.155 330.939 162.761 331.409C163.367 331.871 164.117 332.102 165.011 332.102C166.527 332.102 167.678 331.443 168.466 330.125C169.254 328.799 169.652 326.985 169.659 324.682H169.5C169.152 325.364 168.682 325.951 168.091 326.443C167.5 326.928 166.822 327.303 166.057 327.568C165.299 327.833 164.492 327.966 163.636 327.966C162.265 327.966 161.042 327.644 159.966 327C158.89 326.356 158.042 325.47 157.42 324.341C156.799 323.212 156.489 321.924 156.489 320.477C156.481 318.917 156.841 317.527 157.568 316.307C158.295 315.087 159.311 314.133 160.614 313.443C161.924 312.746 163.447 312.402 165.182 312.409ZM165.216 316.273C164.451 316.273 163.769 316.455 163.17 316.818C162.58 317.182 162.11 317.67 161.761 318.284C161.42 318.898 161.254 319.583 161.261 320.341C161.261 321.106 161.428 321.795 161.761 322.409C162.102 323.015 162.564 323.5 163.148 323.864C163.739 324.22 164.413 324.398 165.17 324.398C165.739 324.398 166.265 324.292 166.75 324.08C167.235 323.867 167.655 323.576 168.011 323.205C168.375 322.826 168.659 322.39 168.864 321.898C169.068 321.405 169.17 320.883 169.17 320.33C169.163 319.595 168.989 318.92 168.648 318.307C168.307 317.693 167.837 317.201 167.239 316.83C166.64 316.458 165.966 316.273 165.216 316.273Z" fill="white"/>
<defs>
<clipPath id="clip0_178_299">
<rect width="36" height="36" fill="white" transform="translate(163 163)"/>
</clipPath>
</defs>
</svg>
