<svg width="26" height="26" viewBox="0 0 26 26" fill="none" xmlns="http://www.w3.org/2000/svg">
<g clip-path="url(#clip0_178_282)">
<path d="M7.32325 5.24333L5.37325 3.30416L3.84575 4.83166L5.78492 6.77083L7.32325 5.24333ZM4.33325 11.375H1.08325V13.5417H4.33325V11.375ZM14.0833 0.595825H11.9166V3.79166H14.0833V0.595825ZM22.1541 4.83166L20.6266 3.30416L18.6874 5.24333L20.2149 6.77083L22.1541 4.83166ZM18.6766 19.6733L20.6158 21.6233L22.1433 20.0958L20.1933 18.1567L18.6766 19.6733ZM21.6666 11.375V13.5417H24.9166V11.375H21.6666ZM12.9999 5.95833C9.41409 5.95833 6.49992 8.87249 6.49992 12.4583C6.49992 16.0442 9.41409 18.9583 12.9999 18.9583C16.5858 18.9583 19.4999 16.0442 19.4999 12.4583C19.4999 8.87249 16.5858 5.95833 12.9999 5.95833ZM11.9166 24.3208H14.0833V21.125H11.9166V24.3208ZM3.84575 20.085L5.37325 21.6125L7.31242 19.6625L5.78492 18.135L3.84575 20.085Z" fill="#E0362C"/>
<path d="M10.3107 3.68059L9.19221 1.16825L7.21629 2.04132L8.32466 4.54976L10.3107 3.68059ZM5.3088 8.31941L2.27795 7.14617L1.49579 9.16673L4.52664 10.34L5.3088 8.31941ZM18.2926 1.78682L16.272 1.00466L15.1183 3.98499L17.1389 4.76715L18.2926 1.78682ZM24.29 8.65056L23.417 6.67464L20.9085 7.78302L21.7816 9.75893L24.29 8.65056ZM15.6893 21.2361L16.7937 23.7546L18.7696 22.8815L17.6512 20.3692L15.6893 21.2361ZM21.4733 14.5767L20.6911 16.5972L23.722 17.7705L24.5041 15.7499L21.4733 14.5767ZM7.70737 23.1298L9.72793 23.912L10.8816 20.9317L8.86105 20.1495L7.70737 23.1298ZM1.70989 16.2661L2.58297 18.242L5.09531 17.1235L4.22224 15.1476L1.70989 16.2661Z" fill="#E0362C"/>
</g>
<defs>
<clipPath id="clip0_178_282">
<rect width="26" height="26" fill="white"/>
</clipPath>
</defs>
</svg>
